  0
SECTION
  2
HEADER
  9
$ACADVER
  1
AC1032
  9
$ACADMAINTVER
 90
      228
  9
$DWGCODEPAGE
  3
ANSI_1252
  9
$REQUIREDVERSIONS
160
                 0
  9
$INSBASE
 10
0.0
 20
0.0
 30
0.0
  9
$EXTMIN
 10
1.000000000000000E+20
 20
1.000000000000000E+20
 30
1.000000000000000E+20
  9
$EXTMAX
 10
-1.000000000000000E+20
 20
-1.000000000000000E+20
 30
-1.000000000000000E+20
  9
$LIMMIN
 10
0.0
 20
0.0
  9
$LIMMAX
 10
12.0
 20
9.0
  9
$ORTHOMODE
 70
     0
  9
$REGENMODE
 70
     1
  9
$FILLMODE
 70
     1
  9
$QTEXTMODE
 70
     0
  9
$MIRRTEXT
 70
     0
  9
$LTSCALE
 40
1.0
  9
$ATTMODE
 70
     1
  9
$TEXTSIZE
 40
0.2
  9
$TRACEWID
 40
0.05
  9
$TEXTSTYLE
  7
Standard
  9
$CLAYER
  8
0
  9
$CELTYPE
  6
ByLayer
  9
$CECOLOR
 62
   256
  9
$CELTSCALE
 40
1.0
  9
$DISPSILH
 70
     0
  9
$DIMSCALE
 40
1.0
  9
$DIMASZ
 40
0.18
  9
$DIMEXO
 40
0.0625
  9
$DIMDLI
 40
0.38
  9
$DIMRND
 40
0.0
  9
$DIMDLE
 40
0.0
  9
$DIMEXE
 40
0.18
  9
$DIMTP
 40
0.0
  9
$DIMTM
 40
0.0
  9
$DIMTXT
 40
0.18
  9
$DIMCEN
 40
0.09
  9
$DIMTSZ
 40
0.0
  9
$DIMTOL
 70
     0
  9
$DIMLIM
 70
     0
  9
$DIMTIH
 70
     1
  9
$DIMTOH
 70
     1
  9
$DIMSE1
 70
     0
  9
$DIMSE2
 70
     0
  9
$DIMTAD
 70
     0
  9
$DIMZIN
 70
     0
  9
$DIMBLK
  1

  9
$DIMASO
 70
     1
  9
$DIMSHO
 70
     1
  9
$DIMPOST
  1

  9
$DIMAPOST
  1

  9
$DIMALT
 70
     0
  9
$DIMALTD
 70
     2
  9
$DIMALTF
 40
25.4
  9
$DIMLFAC
 40
1.0
  9
$DIMTOFL
 70
     0
  9
$DIMTVP
 40
0.0
  9
$DIMTIX
 70
     0
  9
$DIMSOXD
 70
     0
  9
$DIMSAH
 70
     0
  9
$DIMBLK1
  1

  9
$DIMBLK2
  1

  9
$DIMSTYLE
  2
Standard
  9
$DIMCLRD
 70
     0
  9
$DIMCLRE
 70
     0
  9
$DIMCLRT
 70
     0
  9
$DIMTFAC
 40
1.0
  9
$DIMGAP
 40
0.09
  9
$DIMJUST
 70
     0
  9
$DIMSD1
 70
     0
  9
$DIMSD2
 70
     0
  9
$DIMTOLJ
 70
     1
  9
$DIMTZIN
 70
     0
  9
$DIMALTZ
 70
     0
  9
$DIMALTTZ
 70
     0
  9
$DIMUPT
 70
     0
  9
$DIMDEC
 70
     4
  9
$DIMTDEC
 70
     4
  9
$DIMALTU
 70
     2
  9
$DIMALTTD
 70
     2
  9
$DIMTXSTY
  7
Standard
  9
$DIMAUNIT
 70
     0
  9
$DIMADEC
 70
     0
  9
$DIMALTRND
 40
0.0
  9
$DIMAZIN
 70
     0
  9
$DIMDSEP
 70
    46
  9
$DIMATFIT
 70
     3
  9
$DIMFRAC
 70
     0
  9
$DIMLDRBLK
  1

  9
$DIMLUNIT
 70
     2
  9
$DIMLWD
 70
    -2
  9
$DIMLWE
 70
    -2
  9
$DIMTMOVE
 70
     0
  9
$DIMFXL
 40
1.0
  9
$DIMFXLON
 70
     0
  9
$DIMJOGANG
 40
0.7853981633974483
  9
$DIMTFILL
 70
     0
  9
$DIMTFILLCLR
 70
     0
  9
$DIMARCSYM
 70
     0
  9
$DIMLTYPE
  6

  9
$DIMLTEX1
  6

  9
$DIMLTEX2
  6

  9
$DIMTXTDIRECTION
 70
     0
  9
$LUNITS
 70
     2
  9
$LUPREC
 70
     4
  9
$SKETCHINC
 40
0.1
  9
$FILLETRAD
 40
0.0
  9
$AUNITS
 70
     0
  9
$AUPREC
 70
     0
  9
$MENU
  1
..
  9
$ELEVATION
 40
0.0
  9
$PELEVATION
 40
0.0
  9
$THICKNESS
 40
0.0
  9
$LIMCHECK
 70
     0
  9
$CHAMFERA
 40
0.0
  9
$CHAMFERB
 40
0.0
  9
$CHAMFERC
 40
0.0
  9
$CHAMFERD
 40
0.0
  9
$SKPOLY
 70
     0
  9
$TDCREATE
 40
2460166.982569444
  9
$TDUCREATE
 40
2460166.899236111
  9
$TDUPDATE
 40
2460166.982569444
  9
$TDUUPDATE
 40
2460166.899236111
  9
$TDINDWG
 40
0.0000000000
  9
$TDUSRTIMER
 40
0.0000000000
  9
$USRTIMER
 70
     1
  9
$ANGBASE
 50
0.0
  9
$ANGDIR
 70
     0
  9
$PDMODE
 70
     0
  9
$PDSIZE
 40
0.0
  9
$PLINEWID
 40
0.0
  9
$SPLFRAME
 70
     0
  9
$SPLINETYPE
 70
     6
  9
$SPLINESEGS
 70
     8
  9
$HANDSEED
  5
2B2
  9
$SURFTAB1
 70
     6
  9
$SURFTAB2
 70
     6
  9
$SURFTYPE
 70
     6
  9
$SURFU
 70
     6
  9
$SURFV
 70
     6
  9
$UCSBASE
  2

  9
$UCSNAME
  2

  9
$UCSORG
 10
0.0
 20
0.0
 30
0.0
  9
$UCSXDIR
 10
1.0
 20
0.0
 30
0.0
  9
$UCSYDIR
 10
0.0
 20
1.0
 30
0.0
  9
$UCSORTHOREF
  2

  9
$UCSORTHOVIEW
 70
     0
  9
$UCSORGTOP
 10
0.0
 20
0.0
 30
0.0
  9
$UCSORGBOTTOM
 10
0.0
 20
0.0
 30
0.0
  9
$UCSORGLEFT
 10
0.0
 20
0.0
 30
0.0
  9
$UCSORGRIGHT
 10
0.0
 20
0.0
 30
0.0
  9
$UCSORGFRONT
 10
0.0
 20
0.0
 30
0.0
  9
$UCSORGBACK
 10
0.0
 20
0.0
 30
0.0
  9
$PUCSBASE
  2

  9
$PUCSNAME
  2

  9
$PUCSORG
 10
0.0
 20
0.0
 30
0.0
  9
$PUCSXDIR
 10
1.0
 20
0.0
 30
0.0
  9
$PUCSYDIR
 10
0.0
 20
1.0
 30
0.0
  9
$PUCSORTHOREF
  2

  9
$PUCSORTHOVIEW
 70
     0
  9
$PUCSORGTOP
 10
0.0
 20
0.0
 30
0.0
  9
$PUCSORGBOTTOM
 10
0.0
 20
0.0
 30
0.0
  9
$PUCSORGLEFT
 10
0.0
 20
0.0
 30
0.0
  9
$PUCSORGRIGHT
 10
0.0
 20
0.0
 30
0.0
  9
$PUCSORGFRONT
 10
0.0
 20
0.0
 30
0.0
  9
$PUCSORGBACK
 10
0.0
 20
0.0
 30
0.0
  9
$USERI1
 70
     0
  9
$USERI2
 70
     0
  9
$USERI3
 70
     0
  9
$USERI4
 70
     0
  9
$USERI5
 70
     0
  9
$USERR1
 40
0.0
  9
$USERR2
 40
0.0
  9
$USERR3
 40
0.0
  9
$USERR4
 40
0.0
  9
$USERR5
 40
0.0
  9
$WORLDVIEW
 70
     1
  9
$SHADEDGE
 70
     3
  9
$SHADEDIF
 70
    70
  9
$TILEMODE
 70
     1
  9
$MAXACTVP
 70
    64
  9
$PINSBASE
 10
0.0
 20
0.0
 30
0.0
  9
$PLIMCHECK
 70
     0
  9
$PEXTMIN
 10
1.000000000000000E+20
 20
1.000000000000000E+20
 30
1.000000000000000E+20
  9
$PEXTMAX
 10
-1.000000000000000E+20
 20
-1.000000000000000E+20
 30
-1.000000000000000E+20
  9
$PLIMMIN
 10
0.0
 20
0.0
  9
$PLIMMAX
 10
12.0
 20
9.0
  9
$UNITMODE
 70
     0
  9
$VISRETAIN
 70
     1
  9
$PLINEGEN
 70
     0
  9
$PSLTSCALE
 70
     1
  9
$TREEDEPTH
 70
  3020
  9
$CMLSTYLE
  2
Standard
  9
$CMLJUST
 70
     0
  9
$CMLSCALE
 40
1.0
  9
$PROXYGRAPHICS
 70
     1
  9
$MEASUREMENT
 70
     0
  9
$CELWEIGHT
370
    -1
  9
$ENDCAPS
280
     0
  9
$JOINSTYLE
280
     0
  9
$LWDISPLAY
290
     1
  9
$INSUNITS
 70
     4
  9
$HYPERLINKBASE
  1

  9
$STYLESHEET
  1

  9
$XEDIT
290
     1
  9
$CEPSNTYPE
380
     0
  9
$PSTYLEMODE
290
     1
  9
$FINGERPRINTGUID
  2
{62682FCE-DC07-AA4B-A593-48DBCF576773}
  9
$VERSIONGUID
  2
{CC98D6CB-D97A-474F-B3FA-A204CF3C4619}
  9
$EXTNAMES
290
     1
  9
$PSVPSCALE
 40
0.0
  9
$OLESTARTUP
290
     0
  9
$SORTENTS
280
   127
  9
$INDEXCTL
280
     0
  9
$HIDETEXT
280
     1
  9
$XCLIPFRAME
280
     2
  9
$HALOGAP
280
     0
  9
$OBSCOLOR
 70
   257
  9
$OBSLTYPE
280
     0
  9
$INTERSECTIONDISPLAY
280
     0
  9
$INTERSECTIONCOLOR
 70
   257
  9
$DIMASSOC
280
     2
  9
$PROJECTNAME
  1

  9
$CAMERADISPLAY
290
     0
  9
$LENSLENGTH
 40
50.0
  9
$CAMERAHEIGHT
 40
0.0
  9
$STEPSPERSEC
 40
2.0
  9
$STEPSIZE
 40
6.0
  9
$3DDWFPREC
 40
2.0
  9
$PSOLWIDTH
 40
0.25
  9
$PSOLHEIGHT
 40
4.0
  9
$LOFTANG1
 40
1.570796326794896
  9
$LOFTANG2
 40
1.570796326794896
  9
$LOFTMAG1
 40
0.0
  9
$LOFTMAG2
 40
0.0
  9
$LOFTPARAM
 70
     7
  9
$LOFTNORMALS
280
     1
  9
$LATITUDE
 40
37.795
  9
$LONGITUDE
 40
-122.394
  9
$NORTHDIRECTION
 40
0.0
  9
$TIMEZONE
 70
 -8000
  9
$LIGHTGLYPHDISPLAY
280
     1
  9
$TILEMODELIGHTSYNCH
280
     1
  9
$CMATERIAL
347
11
  9
$SOLIDHIST
280
     0
  9
$SHOWHIST
280
     1
  9
$DWFFRAME
280
     2
  9
$DGNFRAME
280
     0
  9
$REALWORLDSCALE
290
     1
  9
$INTERFERECOLOR
 62
     1
  9
$INTERFEREOBJVS
345
33
  9
$INTERFEREVPVS
346
30
  9
$CSHADOW
280
     0
  9
$SHADOWPLANELOCATION
 40
0.0
  0
ENDSEC
  0
SECTION
  2
CLASSES
  0
CLASS
  1
ACDBDICTIONARYWDFLT
  2
AcDbDictionaryWithDefault
  3
ObjectDBX Classes
 90
        0
 91
        1
280
     0
281
     0
  0
CLASS
  1
MATERIAL
  2
AcDbMaterial
  3
ObjectDBX Classes
 90
     1153
 91
        3
280
     0
281
     0
  0
CLASS
  1
VISUALSTYLE
  2
AcDbVisualStyle
  3
ObjectDBX Classes
 90
     4095
 91
       24
280
     0
281
     0
  0
CLASS
  1
SCALE
  2
AcDbScale
  3
ObjectDBX Classes
 90
     1153
 91
       17
280
     0
281
     0
  0
CLASS
  1
TABLESTYLE
  2
AcDbTableStyle
  3
ObjectDBX Classes
 90
     4095
 91
        1
280
     0
281
     0
  0
CLASS
  1
MLEADERSTYLE
  2
AcDbMLeaderStyle
  3
ACDB_MLEADERSTYLE_CLASS
 90
     4095
 91
        1
280
     0
281
     0
  0
CLASS
  1
ACDBSECTIONVIEWSTYLE
  2
AcDbSectionViewStyle
  3
ObjectDBX Classes
 90
     1025
 91
        1
280
     0
281
     0
  0
CLASS
  1
ACDBDETAILVIEWSTYLE
  2
AcDbDetailViewStyle
  3
ObjectDBX Classes
 90
     1025
 91
        1
280
     0
281
     0
  0
CLASS
  1
DICTIONARYVAR
  2
AcDbDictionaryVar
  3
ObjectDBX Classes
 90
        0
 91
        5
280
     0
281
     0
  0
CLASS
  1
CELLSTYLEMAP
  2
AcDbCellStyleMap
  3
ObjectDBX Classes
 90
     1152
 91
        1
280
     0
281
     0
  0
ENDSEC
  0
SECTION
  2
TABLES
  0
TABLE
  2
VPORT
  5
8
330
0
100
AcDbSymbolTable
 70
     1
  0
VPORT
  5
57
330
8
100
AcDbSymbolTableRecord
100
AcDbViewportTableRecord
  2
*Active
 70
     0
 10
0.0
 20
0.0
 11
1.0
 21
1.0
 12
0.0
 22
0.0
 13
0.0
 23
0.0
 14
1.0
 24
1.0
 15
0.0
 25
0.0
 16
0.0
 26
0.0
 36
1.0
 17
148.5000119155985
 27
104.9999970067687
 37
0.0
 40
214.1999938938081
 41
1.414285868084602
 42
50.0
 43
0.0
 44
0.0
 50
0.0
 51
0.0
 71
     0
 72
   100
 73
     1
 74
     1
 75
     0
 76
     0
 77
     0
 78
     0
281
     0
 65
     1
110
0.0
120
0.0
130
0.0
111
1.0
121
0.0
131
0.0
112
0.0
122
1.0
132
0.0
 79
     0
146
0.0
 60
     3
 61
     5
292
     1
282
     1
141
0.0
142
0.0
 63
   250
421
  3355443
  0
ENDTAB
  0
TABLE
  2
LTYPE
  5
5
330
0
100
AcDbSymbolTable
 70
     1
  0
LTYPE
  5
5B
330
5
100
AcDbSymbolTableRecord
100
AcDbLinetypeTableRecord
  2
ByBlock
 70
     0
  3

 72
    65
 73
     0
 40
0.0
  0
LTYPE
  5
5C
330
5
100
AcDbSymbolTableRecord
100
AcDbLinetypeTableRecord
  2
ByLayer
 70
     0
  3

 72
    65
 73
     0
 40
0.0
  0
LTYPE
  5
5D
330
5
100
AcDbSymbolTableRecord
100
AcDbLinetypeTableRecord
  2
Continuous
 70
     0
  3
Solid line
 72
    65
 73
     0
 40
0.0
  0
ENDTAB
  0
TABLE
  2
LAYER
  5
2
330
0
100
AcDbSymbolTable
 70
     2
  0
LAYER
  5
54
330
2
100
AcDbSymbolTableRecord
100
AcDbLayerTableRecord
  2
0
 70
     0
 62
     7
  6
Continuous
370
    -3
390
F
347
21
348
0
  0
LAYER
  5
78
330
2
100
AcDbSymbolTableRecord
100
AcDbLayerTableRecord
  2
Ebene 1
 70
     0
 62
     7
  6
Continuous
370
     0
390
F
347
21
348
0
  0
ENDTAB
  0
TABLE
  2
STYLE
  5
3
330
0
100
AcDbSymbolTable
 70
     2
  0
STYLE
  5
55
330
3
100
AcDbSymbolTableRecord
100
AcDbTextStyleTableRecord
  2
Standard
 70
     0
 40
0.0
 41
1.0
 50
0.0
 71
     0
 42
0.2
  3
txt
  4

  0
STYLE
  5
5A
330
3
100
AcDbSymbolTableRecord
100
AcDbTextStyleTableRecord
  2
Annotative
 70
     0
 40
0.0
 41
1.0
 50
0.0
 71
     0
 42
0.2
  3
txt
  4

1001
AcadAnnotative
1000
AnnotativeData
1002
{
1070
     1
1070
     1
1002
}
  0
ENDTAB
  0
TABLE
  2
VIEW
  5
6
330
0
100
AcDbSymbolTable
 70
     0
  0
ENDTAB
  0
TABLE
  2
UCS
  5
7
330
0
100
AcDbSymbolTable
 70
     0
  0
ENDTAB
  0
TABLE
  2
APPID
  5
9
330
0
100
AcDbSymbolTable
 70
     2
  0
APPID
  5
56
330
9
100
AcDbSymbolTableRecord
100
AcDbRegAppTableRecord
  2
ACAD
 70
     0
  0
APPID
  5
5E
330
9
100
AcDbSymbolTableRecord
100
AcDbRegAppTableRecord
  2
AcadAnnotative
 70
     0
  0
ENDTAB
  0
TABLE
  2
DIMSTYLE
  5
A
330
0
100
AcDbSymbolTable
 70
     2
100
AcDbDimStyleTable
 71
     0
  0
DIMSTYLE
105
58
330
A
100
AcDbSymbolTableRecord
100
AcDbDimStyleTableRecord
  2
Standard
 70
     0
340
55
  0
DIMSTYLE
105
59
330
A
100
AcDbSymbolTableRecord
100
AcDbDimStyleTableRecord
  2
Annotative
 70
     0
340
55
1001
AcadAnnotative
1000
AnnotativeData
1002
{
1070
     1
1070
     1
1002
}
  0
ENDTAB
  0
TABLE
  2
BLOCK_RECORD
  5
1
330
0
100
AcDbSymbolTable
 70
   113
  0
BLOCK_RECORD
  5
70
330
1
100
AcDbSymbolTableRecord
100
AcDbBlockTableRecord
  2
*Model_Space
340
73
 70
     0
280
     1
281
     0
  0
BLOCK_RECORD
  5
6C
330
1
100
AcDbSymbolTableRecord
100
AcDbBlockTableRecord
  2
*Paper_Space
340
6F
 70
     0
280
     1
281
     0
  0
BLOCK_RECORD
  5
74
330
1
100
AcDbSymbolTableRecord
100
AcDbBlockTableRecord
  2
*Paper_Space0
340
77
 70
     0
280
     1
281
     0
  0
BLOCK_RECORD
  5
79
330
1
100
AcDbSymbolTableRecord
100
AcDbBlockTableRecord
  2
Block_0
340
0
102
{BLKREFS
331
7A
102
}
 70
     0
280
     1
281
     0
  0
BLOCK_RECORD
  5
7E
330
1
100
AcDbSymbolTableRecord
100
AcDbBlockTableRecord
  2
Block_1
340
0
102
{BLKREFS
331
7F
102
}
 70
     0
280
     1
281
     0
  0
BLOCK_RECORD
  5
83
330
1
100
AcDbSymbolTableRecord
100
AcDbBlockTableRecord
  2
Block_2
340
0
102
{BLKREFS
331
84
102
}
 70
     0
280
     1
281
     0
  0
BLOCK_RECORD
  5
88
330
1
100
AcDbSymbolTableRecord
100
AcDbBlockTableRecord
  2
Block_3
340
0
102
{BLKREFS
331
89
102
}
 70
     0
280
     1
281
     0
  0
BLOCK_RECORD
  5
8D
330
1
100
AcDbSymbolTableRecord
100
AcDbBlockTableRecord
  2
Block_4
340
0
102
{BLKREFS
331
8E
102
}
 70
     0
280
     1
281
     0
  0
BLOCK_RECORD
  5
92
330
1
100
AcDbSymbolTableRecord
100
AcDbBlockTableRecord
  2
Block_5
340
0
102
{BLKREFS
331
93
102
}
 70
     0
280
     1
281
     0
  0
BLOCK_RECORD
  5
97
330
1
100
AcDbSymbolTableRecord
100
AcDbBlockTableRecord
  2
Block_6
340
0
102
{BLKREFS
331
98
102
}
 70
     0
280
     1
281
     0
  0
BLOCK_RECORD
  5
9C
330
1
100
AcDbSymbolTableRecord
100
AcDbBlockTableRecord
  2
Block_7
340
0
102
{BLKREFS
331
9D
102
}
 70
     0
280
     1
281
     0
  0
BLOCK_RECORD
  5
A1
330
1
100
AcDbSymbolTableRecord
100
AcDbBlockTableRecord
  2
Block_8
340
0
102
{BLKREFS
331
A2
102
}
 70
     0
280
     1
281
     0
  0
BLOCK_RECORD
  5
A6
330
1
100
AcDbSymbolTableRecord
100
AcDbBlockTableRecord
  2
Block_9
340
0
102
{BLKREFS
331
A7
102
}
 70
     0
280
     1
281
     0
  0
BLOCK_RECORD
  5
AB
330
1
100
AcDbSymbolTableRecord
100
AcDbBlockTableRecord
  2
Block_10
340
0
102
{BLKREFS
331
AC
102
}
 70
     0
280
     1
281
     0
  0
BLOCK_RECORD
  5
B0
330
1
100
AcDbSymbolTableRecord
100
AcDbBlockTableRecord
  2
Block_11
340
0
102
{BLKREFS
331
B1
102
}
 70
     0
280
     1
281
     0
  0
BLOCK_RECORD
  5
B5
330
1
100
AcDbSymbolTableRecord
100
AcDbBlockTableRecord
  2
Block_12
340
0
102
{BLKREFS
331
B6
102
}
 70
     0
280
     1
281
     0
  0
BLOCK_RECORD
  5
BA
330
1
100
AcDbSymbolTableRecord
100
AcDbBlockTableRecord
  2
Block_13
340
0
102
{BLKREFS
331
BB
102
}
 70
     0
280
     1
281
     0
  0
BLOCK_RECORD
  5
BF
330
1
100
AcDbSymbolTableRecord
100
AcDbBlockTableRecord
  2
Block_14
340
0
102
{BLKREFS
331
C0
102
}
 70
     0
280
     1
281
     0
  0
BLOCK_RECORD
  5
C4
330
1
100
AcDbSymbolTableRecord
100
AcDbBlockTableRecord
  2
Block_15
340
0
102
{BLKREFS
331
C5
102
}
 70
     0
280
     1
281
     0
  0
BLOCK_RECORD
  5
C9
330
1
100
AcDbSymbolTableRecord
100
AcDbBlockTableRecord
  2
Block_16
340
0
102
{BLKREFS
331
CA
102
}
 70
     0
280
     1
281
     0
  0
BLOCK_RECORD
  5
CE
330
1
100
AcDbSymbolTableRecord
100
AcDbBlockTableRecord
  2
Block_17
340
0
102
{BLKREFS
331
CF
102
}
 70
     0
280
     1
281
     0
  0
BLOCK_RECORD
  5
D3
330
1
100
AcDbSymbolTableRecord
100
AcDbBlockTableRecord
  2
Block_18
340
0
102
{BLKREFS
331
D4
102
}
 70
     0
280
     1
281
     0
  0
BLOCK_RECORD
  5
D8
330
1
100
AcDbSymbolTableRecord
100
AcDbBlockTableRecord
  2
Block_19
340
0
102
{BLKREFS
331
D9
102
}
 70
     0
280
     1
281
     0
  0
BLOCK_RECORD
  5
DD
330
1
100
AcDbSymbolTableRecord
100
AcDbBlockTableRecord
  2
Block_20
340
0
102
{BLKREFS
331
DE
102
}
 70
     0
280
     1
281
     0
  0
BLOCK_RECORD
  5
E2
330
1
100
AcDbSymbolTableRecord
100
AcDbBlockTableRecord
  2
Block_21
340
0
102
{BLKREFS
331
E3
102
}
 70
     0
280
     1
281
     0
  0
BLOCK_RECORD
  5
E7
330
1
100
AcDbSymbolTableRecord
100
AcDbBlockTableRecord
  2
Block_22
340
0
102
{BLKREFS
331
E8
102
}
 70
     0
280
     1
281
     0
  0
BLOCK_RECORD
  5
EC
330
1
100
AcDbSymbolTableRecord
100
AcDbBlockTableRecord
  2
Block_23
340
0
102
{BLKREFS
331
ED
102
}
 70
     0
280
     1
281
     0
  0
BLOCK_RECORD
  5
F1
330
1
100
AcDbSymbolTableRecord
100
AcDbBlockTableRecord
  2
Block_24
340
0
102
{BLKREFS
331
F2
102
}
 70
     0
280
     1
281
     0
  0
BLOCK_RECORD
  5
F6
330
1
100
AcDbSymbolTableRecord
100
AcDbBlockTableRecord
  2
Block_25
340
0
102
{BLKREFS
331
F7
102
}
 70
     0
280
     1
281
     0
  0
BLOCK_RECORD
  5
FB
330
1
100
AcDbSymbolTableRecord
100
AcDbBlockTableRecord
  2
Block_26
340
0
102
{BLKREFS
331
FC
102
}
 70
     0
280
     1
281
     0
  0
BLOCK_RECORD
  5
100
330
1
100
AcDbSymbolTableRecord
100
AcDbBlockTableRecord
  2
Block_27
340
0
102
{BLKREFS
331
101
102
}
 70
     0
280
     1
281
     0
  0
BLOCK_RECORD
  5
105
330
1
100
AcDbSymbolTableRecord
100
AcDbBlockTableRecord
  2
Block_28
340
0
102
{BLKREFS
331
106
102
}
 70
     0
280
     1
281
     0
  0
BLOCK_RECORD
  5
10A
330
1
100
AcDbSymbolTableRecord
100
AcDbBlockTableRecord
  2
Block_29
340
0
102
{BLKREFS
331
10B
102
}
 70
     0
280
     1
281
     0
  0
BLOCK_RECORD
  5
10F
330
1
100
AcDbSymbolTableRecord
100
AcDbBlockTableRecord
  2
Block_30
340
0
102
{BLKREFS
331
110
102
}
 70
     0
280
     1
281
     0
  0
BLOCK_RECORD
  5
114
330
1
100
AcDbSymbolTableRecord
100
AcDbBlockTableRecord
  2
Block_31
340
0
102
{BLKREFS
331
115
102
}
 70
     0
280
     1
281
     0
  0
BLOCK_RECORD
  5
119
330
1
100
AcDbSymbolTableRecord
100
AcDbBlockTableRecord
  2
Block_32
340
0
102
{BLKREFS
331
11A
102
}
 70
     0
280
     1
281
     0
  0
BLOCK_RECORD
  5
11E
330
1
100
AcDbSymbolTableRecord
100
AcDbBlockTableRecord
  2
Block_33
340
0
102
{BLKREFS
331
11F
102
}
 70
     0
280
     1
281
     0
  0
BLOCK_RECORD
  5
123
330
1
100
AcDbSymbolTableRecord
100
AcDbBlockTableRecord
  2
Block_34
340
0
102
{BLKREFS
331
124
102
}
 70
     0
280
     1
281
     0
  0
BLOCK_RECORD
  5
128
330
1
100
AcDbSymbolTableRecord
100
AcDbBlockTableRecord
  2
Block_35
340
0
102
{BLKREFS
331
129
102
}
 70
     0
280
     1
281
     0
  0
BLOCK_RECORD
  5
12D
330
1
100
AcDbSymbolTableRecord
100
AcDbBlockTableRecord
  2
Block_36
340
0
102
{BLKREFS
331
12E
102
}
 70
     0
280
     1
281
     0
  0
BLOCK_RECORD
  5
132
330
1
100
AcDbSymbolTableRecord
100
AcDbBlockTableRecord
  2
Block_37
340
0
102
{BLKREFS
331
133
102
}
 70
     0
280
     1
281
     0
  0
BLOCK_RECORD
  5
137
330
1
100
AcDbSymbolTableRecord
100
AcDbBlockTableRecord
  2
Block_38
340
0
102
{BLKREFS
331
138
102
}
 70
     0
280
     1
281
     0
  0
BLOCK_RECORD
  5
13C
330
1
100
AcDbSymbolTableRecord
100
AcDbBlockTableRecord
  2
Block_39
340
0
102
{BLKREFS
331
13D
102
}
 70
     0
280
     1
281
     0
  0
BLOCK_RECORD
  5
141
330
1
100
AcDbSymbolTableRecord
100
AcDbBlockTableRecord
  2
Block_40
340
0
102
{BLKREFS
331
142
102
}
 70
     0
280
     1
281
     0
  0
BLOCK_RECORD
  5
146
330
1
100
AcDbSymbolTableRecord
100
AcDbBlockTableRecord
  2
Block_41
340
0
102
{BLKREFS
331
147
102
}
 70
     0
280
     1
281
     0
  0
BLOCK_RECORD
  5
14B
330
1
100
AcDbSymbolTableRecord
100
AcDbBlockTableRecord
  2
Block_42
340
0
102
{BLKREFS
331
14C
102
}
 70
     0
280
     1
281
     0
  0
BLOCK_RECORD
  5
150
330
1
100
AcDbSymbolTableRecord
100
AcDbBlockTableRecord
  2
Block_43
340
0
102
{BLKREFS
331
151
102
}
 70
     0
280
     1
281
     0
  0
BLOCK_RECORD
  5
155
330
1
100
AcDbSymbolTableRecord
100
AcDbBlockTableRecord
  2
Block_44
340
0
102
{BLKREFS
331
156
102
}
 70
     0
280
     1
281
     0
  0
BLOCK_RECORD
  5
15A
330
1
100
AcDbSymbolTableRecord
100
AcDbBlockTableRecord
  2
Block_45
340
0
102
{BLKREFS
331
15B
102
}
 70
     0
280
     1
281
     0
  0
BLOCK_RECORD
  5
15F
330
1
100
AcDbSymbolTableRecord
100
AcDbBlockTableRecord
  2
Block_46
340
0
102
{BLKREFS
331
160
102
}
 70
     0
280
     1
281
     0
  0
BLOCK_RECORD
  5
164
330
1
100
AcDbSymbolTableRecord
100
AcDbBlockTableRecord
  2
Block_47
340
0
102
{BLKREFS
331
165
102
}
 70
     0
280
     1
281
     0
  0
BLOCK_RECORD
  5
169
330
1
100
AcDbSymbolTableRecord
100
AcDbBlockTableRecord
  2
Block_48
340
0
102
{BLKREFS
331
16A
102
}
 70
     0
280
     1
281
     0
  0
BLOCK_RECORD
  5
16E
330
1
100
AcDbSymbolTableRecord
100
AcDbBlockTableRecord
  2
Block_49
340
0
102
{BLKREFS
331
16F
102
}
 70
     0
280
     1
281
     0
  0
BLOCK_RECORD
  5
173
330
1
100
AcDbSymbolTableRecord
100
AcDbBlockTableRecord
  2
Block_50
340
0
102
{BLKREFS
331
174
102
}
 70
     0
280
     1
281
     0
  0
BLOCK_RECORD
  5
178
330
1
100
AcDbSymbolTableRecord
100
AcDbBlockTableRecord
  2
Block_51
340
0
102
{BLKREFS
331
179
102
}
 70
     0
280
     1
281
     0
  0
BLOCK_RECORD
  5
17D
330
1
100
AcDbSymbolTableRecord
100
AcDbBlockTableRecord
  2
Block_52
340
0
102
{BLKREFS
331
17E
102
}
 70
     0
280
     1
281
     0
  0
BLOCK_RECORD
  5
182
330
1
100
AcDbSymbolTableRecord
100
AcDbBlockTableRecord
  2
Block_53
340
0
102
{BLKREFS
331
183
102
}
 70
     0
280
     1
281
     0
  0
BLOCK_RECORD
  5
187
330
1
100
AcDbSymbolTableRecord
100
AcDbBlockTableRecord
  2
Block_54
340
0
102
{BLKREFS
331
188
102
}
 70
     0
280
     1
281
     0
  0
BLOCK_RECORD
  5
18C
330
1
100
AcDbSymbolTableRecord
100
AcDbBlockTableRecord
  2
Block_55
340
0
102
{BLKREFS
331
18D
102
}
 70
     0
280
     1
281
     0
  0
BLOCK_RECORD
  5
191
330
1
100
AcDbSymbolTableRecord
100
AcDbBlockTableRecord
  2
Block_56
340
0
102
{BLKREFS
331
192
102
}
 70
     0
280
     1
281
     0
  0
BLOCK_RECORD
  5
196
330
1
100
AcDbSymbolTableRecord
100
AcDbBlockTableRecord
  2
Block_57
340
0
102
{BLKREFS
331
197
102
}
 70
     0
280
     1
281
     0
  0
BLOCK_RECORD
  5
19B
330
1
100
AcDbSymbolTableRecord
100
AcDbBlockTableRecord
  2
Block_58
340
0
102
{BLKREFS
331
19C
102
}
 70
     0
280
     1
281
     0
  0
BLOCK_RECORD
  5
1A0
330
1
100
AcDbSymbolTableRecord
100
AcDbBlockTableRecord
  2
Block_59
340
0
102
{BLKREFS
331
1A1
102
}
 70
     0
280
     1
281
     0
  0
BLOCK_RECORD
  5
1A5
330
1
100
AcDbSymbolTableRecord
100
AcDbBlockTableRecord
  2
Block_60
340
0
102
{BLKREFS
331
1A6
102
}
 70
     0
280
     1
281
     0
  0
BLOCK_RECORD
  5
1AA
330
1
100
AcDbSymbolTableRecord
100
AcDbBlockTableRecord
  2
Block_61
340
0
102
{BLKREFS
331
1AB
102
}
 70
     0
280
     1
281
     0
  0
BLOCK_RECORD
  5
1AF
330
1
100
AcDbSymbolTableRecord
100
AcDbBlockTableRecord
  2
Block_62
340
0
102
{BLKREFS
331
1B0
102
}
 70
     0
280
     1
281
     0
  0
BLOCK_RECORD
  5
1B4
330
1
100
AcDbSymbolTableRecord
100
AcDbBlockTableRecord
  2
Block_63
340
0
102
{BLKREFS
331
1B5
102
}
 70
     0
280
     1
281
     0
  0
BLOCK_RECORD
  5
1B9
330
1
100
AcDbSymbolTableRecord
100
AcDbBlockTableRecord
  2
Block_64
340
0
102
{BLKREFS
331
1BA
102
}
 70
     0
280
     1
281
     0
  0
BLOCK_RECORD
  5
1BE
330
1
100
AcDbSymbolTableRecord
100
AcDbBlockTableRecord
  2
Block_65
340
0
102
{BLKREFS
331
1BF
102
}
 70
     0
280
     1
281
     0
  0
BLOCK_RECORD
  5
1C3
330
1
100
AcDbSymbolTableRecord
100
AcDbBlockTableRecord
  2
Block_66
340
0
102
{BLKREFS
331
1C4
102
}
 70
     0
280
     1
281
     0
  0
BLOCK_RECORD
  5
1C8
330
1
100
AcDbSymbolTableRecord
100
AcDbBlockTableRecord
  2
Block_67
340
0
102
{BLKREFS
331
1C9
102
}
 70
     0
280
     1
281
     0
  0
BLOCK_RECORD
  5
1CD
330
1
100
AcDbSymbolTableRecord
100
AcDbBlockTableRecord
  2
Block_68
340
0
102
{BLKREFS
331
1CE
102
}
 70
     0
280
     1
281
     0
  0
BLOCK_RECORD
  5
1D2
330
1
100
AcDbSymbolTableRecord
100
AcDbBlockTableRecord
  2
Block_69
340
0
102
{BLKREFS
331
1D3
102
}
 70
     0
280
     1
281
     0
  0
BLOCK_RECORD
  5
1D7
330
1
100
AcDbSymbolTableRecord
100
AcDbBlockTableRecord
  2
Block_70
340
0
102
{BLKREFS
331
1D8
102
}
 70
     0
280
     1
281
     0
  0
BLOCK_RECORD
  5
1DC
330
1
100
AcDbSymbolTableRecord
100
AcDbBlockTableRecord
  2
Block_71
340
0
102
{BLKREFS
331
1DD
102
}
 70
     0
280
     1
281
     0
  0
BLOCK_RECORD
  5
1E1
330
1
100
AcDbSymbolTableRecord
100
AcDbBlockTableRecord
  2
Block_72
340
0
102
{BLKREFS
331
1E2
102
}
 70
     0
280
     1
281
     0
  0
BLOCK_RECORD
  5
1E6
330
1
100
AcDbSymbolTableRecord
100
AcDbBlockTableRecord
  2
Block_73
340
0
102
{BLKREFS
331
1E7
102
}
 70
     0
280
     1
281
     0
  0
BLOCK_RECORD
  5
1EB
330
1
100
AcDbSymbolTableRecord
100
AcDbBlockTableRecord
  2
Block_74
340
0
102
{BLKREFS
331
1EC
102
}
 70
     0
280
     1
281
     0
  0
BLOCK_RECORD
  5
1F0
330
1
100
AcDbSymbolTableRecord
100
AcDbBlockTableRecord
  2
Block_75
340
0
102
{BLKREFS
331
1F1
102
}
 70
     0
280
     1
281
     0
  0
BLOCK_RECORD
  5
1F5
330
1
100
AcDbSymbolTableRecord
100
AcDbBlockTableRecord
  2
Block_76
340
0
102
{BLKREFS
331
1F6
102
}
 70
     0
280
     1
281
     0
  0
BLOCK_RECORD
  5
1FA
330
1
100
AcDbSymbolTableRecord
100
AcDbBlockTableRecord
  2
Block_77
340
0
102
{BLKREFS
331
1FB
102
}
 70
     0
280
     1
281
     0
  0
BLOCK_RECORD
  5
1FF
330
1
100
AcDbSymbolTableRecord
100
AcDbBlockTableRecord
  2
Block_78
340
0
102
{BLKREFS
331
200
102
}
 70
     0
280
     1
281
     0
  0
BLOCK_RECORD
  5
204
330
1
100
AcDbSymbolTableRecord
100
AcDbBlockTableRecord
  2
Block_79
340
0
102
{BLKREFS
331
205
102
}
 70
     0
280
     1
281
     0
  0
BLOCK_RECORD
  5
209
330
1
100
AcDbSymbolTableRecord
100
AcDbBlockTableRecord
  2
Block_80
340
0
102
{BLKREFS
331
20A
102
}
 70
     0
280
     1
281
     0
  0
BLOCK_RECORD
  5
20E
330
1
100
AcDbSymbolTableRecord
100
AcDbBlockTableRecord
  2
Block_81
340
0
102
{BLKREFS
331
20F
102
}
 70
     0
280
     1
281
     0
  0
BLOCK_RECORD
  5
213
330
1
100
AcDbSymbolTableRecord
100
AcDbBlockTableRecord
  2
Block_82
340
0
102
{BLKREFS
331
214
102
}
 70
     0
280
     1
281
     0
  0
BLOCK_RECORD
  5
218
330
1
100
AcDbSymbolTableRecord
100
AcDbBlockTableRecord
  2
Block_83
340
0
102
{BLKREFS
331
219
102
}
 70
     0
280
     1
281
     0
  0
BLOCK_RECORD
  5
21D
330
1
100
AcDbSymbolTableRecord
100
AcDbBlockTableRecord
  2
Block_84
340
0
102
{BLKREFS
331
21E
102
}
 70
     0
280
     1
281
     0
  0
BLOCK_RECORD
  5
222
330
1
100
AcDbSymbolTableRecord
100
AcDbBlockTableRecord
  2
Block_85
340
0
102
{BLKREFS
331
223
102
}
 70
     0
280
     1
281
     0
  0
BLOCK_RECORD
  5
227
330
1
100
AcDbSymbolTableRecord
100
AcDbBlockTableRecord
  2
Block_86
340
0
102
{BLKREFS
331
228
102
}
 70
     0
280
     1
281
     0
  0
BLOCK_RECORD
  5
22C
330
1
100
AcDbSymbolTableRecord
100
AcDbBlockTableRecord
  2
Block_87
340
0
102
{BLKREFS
331
22D
102
}
 70
     0
280
     1
281
     0
  0
BLOCK_RECORD
  5
231
330
1
100
AcDbSymbolTableRecord
100
AcDbBlockTableRecord
  2
Block_88
340
0
102
{BLKREFS
331
232
102
}
 70
     0
280
     1
281
     0
  0
BLOCK_RECORD
  5
236
330
1
100
AcDbSymbolTableRecord
100
AcDbBlockTableRecord
  2
Block_89
340
0
102
{BLKREFS
331
237
102
}
 70
     0
280
     1
281
     0
  0
BLOCK_RECORD
  5
23B
330
1
100
AcDbSymbolTableRecord
100
AcDbBlockTableRecord
  2
Block_90
340
0
102
{BLKREFS
331
23C
102
}
 70
     0
280
     1
281
     0
  0
BLOCK_RECORD
  5
240
330
1
100
AcDbSymbolTableRecord
100
AcDbBlockTableRecord
  2
Block_91
340
0
102
{BLKREFS
331
241
102
}
 70
     0
280
     1
281
     0
  0
BLOCK_RECORD
  5
245
330
1
100
AcDbSymbolTableRecord
100
AcDbBlockTableRecord
  2
Block_92
340
0
102
{BLKREFS
331
246
102
}
 70
     0
280
     1
281
     0
  0
BLOCK_RECORD
  5
24A
330
1
100
AcDbSymbolTableRecord
100
AcDbBlockTableRecord
  2
Block_93
340
0
102
{BLKREFS
331
24B
102
}
 70
     0
280
     1
281
     0
  0
BLOCK_RECORD
  5
24F
330
1
100
AcDbSymbolTableRecord
100
AcDbBlockTableRecord
  2
Block_94
340
0
102
{BLKREFS
331
250
102
}
 70
     0
280
     1
281
     0
  0
BLOCK_RECORD
  5
254
330
1
100
AcDbSymbolTableRecord
100
AcDbBlockTableRecord
  2
Block_95
340
0
102
{BLKREFS
331
255
102
}
 70
     0
280
     1
281
     0
  0
BLOCK_RECORD
  5
259
330
1
100
AcDbSymbolTableRecord
100
AcDbBlockTableRecord
  2
Block_96
340
0
102
{BLKREFS
331
25A
102
}
 70
     0
280
     1
281
     0
  0
BLOCK_RECORD
  5
25E
330
1
100
AcDbSymbolTableRecord
100
AcDbBlockTableRecord
  2
Block_97
340
0
102
{BLKREFS
331
25F
102
}
 70
     0
280
     1
281
     0
  0
BLOCK_RECORD
  5
263
330
1
100
AcDbSymbolTableRecord
100
AcDbBlockTableRecord
  2
Block_98
340
0
102
{BLKREFS
331
264
102
}
 70
     0
280
     1
281
     0
  0
BLOCK_RECORD
  5
268
330
1
100
AcDbSymbolTableRecord
100
AcDbBlockTableRecord
  2
Block_99
340
0
102
{BLKREFS
331
269
102
}
 70
     0
280
     1
281
     0
  0
BLOCK_RECORD
  5
26D
330
1
100
AcDbSymbolTableRecord
100
AcDbBlockTableRecord
  2
Block_100
340
0
102
{BLKREFS
331
26E
102
}
 70
     0
280
     1
281
     0
  0
BLOCK_RECORD
  5
272
330
1
100
AcDbSymbolTableRecord
100
AcDbBlockTableRecord
  2
Block_101
340
0
102
{BLKREFS
331
273
102
}
 70
     0
280
     1
281
     0
  0
BLOCK_RECORD
  5
277
330
1
100
AcDbSymbolTableRecord
100
AcDbBlockTableRecord
  2
Block_102
340
0
102
{BLKREFS
331
278
102
}
 70
     0
280
     1
281
     0
  0
BLOCK_RECORD
  5
27C
330
1
100
AcDbSymbolTableRecord
100
AcDbBlockTableRecord
  2
Block_103
340
0
102
{BLKREFS
331
27D
102
}
 70
     0
280
     1
281
     0
  0
BLOCK_RECORD
  5
281
330
1
100
AcDbSymbolTableRecord
100
AcDbBlockTableRecord
  2
Block_104
340
0
102
{BLKREFS
331
282
102
}
 70
     0
280
     1
281
     0
  0
BLOCK_RECORD
  5
286
330
1
100
AcDbSymbolTableRecord
100
AcDbBlockTableRecord
  2
Block_105
340
0
102
{BLKREFS
331
287
102
}
 70
     0
280
     1
281
     0
  0
BLOCK_RECORD
  5
28B
330
1
100
AcDbSymbolTableRecord
100
AcDbBlockTableRecord
  2
Block_106
340
0
102
{BLKREFS
331
28C
102
}
 70
     0
280
     1
281
     0
  0
BLOCK_RECORD
  5
290
330
1
100
AcDbSymbolTableRecord
100
AcDbBlockTableRecord
  2
Block_107
340
0
102
{BLKREFS
331
291
102
}
 70
     0
280
     1
281
     0
  0
BLOCK_RECORD
  5
295
330
1
100
AcDbSymbolTableRecord
100
AcDbBlockTableRecord
  2
Block_108
340
0
102
{BLKREFS
331
296
102
}
 70
     0
280
     1
281
     0
  0
BLOCK_RECORD
  5
29A
330
1
100
AcDbSymbolTableRecord
100
AcDbBlockTableRecord
  2
Block_109
340
0
102
{BLKREFS
331
29B
102
}
 70
     0
280
     1
281
     0
  0
BLOCK_RECORD
  5
29F
330
1
100
AcDbSymbolTableRecord
100
AcDbBlockTableRecord
  2
Block_110
340
0
102
{BLKREFS
331
2A0
102
}
 70
     0
280
     1
281
     0
  0
BLOCK_RECORD
  5
2A4
330
1
100
AcDbSymbolTableRecord
100
AcDbBlockTableRecord
  2
Block_111
340
0
102
{BLKREFS
331
2A5
102
}
 70
     0
280
     1
281
     0
  0
ENDTAB
  0
ENDSEC
  0
SECTION
  2
BLOCKS
  0
BLOCK
  5
71
330
70
100
AcDbEntity
  8
0
100
AcDbBlockBegin
  2
*Model_Space
 70
     0
 10
0.0
 20
0.0
 30
0.0
  3
*Model_Space
  1

  0
ENDBLK
  5
72
330
70
100
AcDbEntity
  8
0
100
AcDbBlockEnd
  0
BLOCK
  5
6D
330
6C
100
AcDbEntity
 67
     1
  8
0
100
AcDbBlockBegin
  2
*Paper_Space
 70
     0
 10
0.0
 20
0.0
 30
0.0
  3
*Paper_Space
  1

  0
ENDBLK
  5
6E
330
6C
100
AcDbEntity
 67
     1
  8
0
100
AcDbBlockEnd
  0
BLOCK
  5
75
330
74
100
AcDbEntity
 67
     1
  8
0
100
AcDbBlockBegin
  2
*Paper_Space0
 70
     0
 10
0.0
 20
0.0
 30
0.0
  3
*Paper_Space0
  1

  0
ENDBLK
  5
76
330
74
100
AcDbEntity
 67
     1
  8
0
100
AcDbBlockEnd
  0
BLOCK
  5
7B
330
79
100
AcDbEntity
  8
0
100
AcDbBlockBegin
  2
Block_0
 70
     0
 10
0.0
 20
0.0
 30
0.0
  3
Block_0
  1

  0
LINE
  5
7D
330
79
100
AcDbEntity
  8
Ebene 1
 62
   254
370
    25
100
AcDbLine
 10
188.7177365743721
 20
95.40852838661477
 30
0.0
 11
188.7177365743721
 21
95.40852838661477
 31
0.0
  0
ENDBLK
  5
7C
330
79
100
AcDbEntity
  8
0
100
AcDbBlockEnd
  0
BLOCK
  5
80
330
7E
100
AcDbEntity
  8
0
100
AcDbBlockBegin
  2
Block_1
 70
     0
 10
0.0
 20
0.0
 30
0.0
  3
Block_1
  1

  0
LINE
  5
82
330
7E
100
AcDbEntity
  8
Ebene 1
 62
   254
370
    25
100
AcDbLine
 10
188.7177365743721
 20
105.1277777514958
 30
0.0
 11
188.7177365743721
 21
105.1277777514958
 31
0.0
  0
ENDBLK
  5
81
330
7E
100
AcDbEntity
  8
0
100
AcDbBlockEnd
  0
BLOCK
  5
85
330
83
100
AcDbEntity
  8
0
100
AcDbBlockBegin
  2
Block_2
 70
     0
 10
0.0
 20
0.0
 30
0.0
  3
Block_2
  1

  0
LINE
  5
87
330
83
100
AcDbEntity
  8
Ebene 1
 62
   254
370
    25
100
AcDbLine
 10
169.2792378446087
 20
114.8470271163769
 30
0.0
 11
169.2792378446087
 21
114.8470271163769
 31
0.0
  0
ENDBLK
  5
86
330
83
100
AcDbEntity
  8
0
100
AcDbBlockEnd
  0
BLOCK
  5
8A
330
88
100
AcDbEntity
  8
0
100
AcDbBlockBegin
  2
Block_3
 70
     0
 10
0.0
 20
0.0
 30
0.0
  3
Block_3
  1

  0
LINE
  5
8C
330
88
100
AcDbEntity
  8
Ebene 1
 62
   254
370
    25
100
AcDbLine
 10
123.2082243972227
 20
114.8470271163769
 30
0.0
 11
123.2082243972227
 21
114.8470271163769
 31
0.0
  0
ENDBLK
  5
8B
330
88
100
AcDbEntity
  8
0
100
AcDbBlockEnd
  0
BLOCK
  5
8F
330
8D
100
AcDbEntity
  8
0
100
AcDbBlockBegin
  2
Block_4
 70
     0
 10
0.0
 20
0.0
 30
0.0
  3
Block_4
  1

  0
LINE
  5
91
330
8D
100
AcDbEntity
  8
Ebene 1
 62
   254
370
    25
100
AcDbLine
 10
108.3211522402573
 20
105.3664267153002
 30
0.0
 11
108.3211522402573
 21
105.3664267153002
 31
0.0
  0
ENDBLK
  5
90
330
8D
100
AcDbEntity
  8
0
100
AcDbBlockEnd
  0
BLOCK
  5
94
330
92
100
AcDbEntity
  8
0
100
AcDbBlockBegin
  2
Block_5
 70
     0
 10
0.0
 20
0.0
 30
0.0
  3
Block_5
  1

  0
LINE
  5
96
330
92
100
AcDbEntity
  8
Ebene 1
 62
   254
370
    25
100
AcDbLine
 10
112.0179312850669
 20
97.43865847011164
 30
0.0
 11
112.0179312850669
 21
97.43865847011164
 31
0.0
  0
ENDBLK
  5
95
330
92
100
AcDbEntity
  8
0
100
AcDbBlockEnd
  0
BLOCK
  5
99
330
97
100
AcDbEntity
  8
0
100
AcDbBlockBegin
  2
Block_6
 70
     0
 10
0.0
 20
0.0
 30
0.0
  3
Block_6
  1

  0
LINE
  5
9B
330
97
100
AcDbEntity
  8
Ebene 1
 62
   254
370
    25
100
AcDbLine
 10
112.6799060719856
 20
98.12011836552358
 30
0.0
 11
112.6799060719856
 21
98.12011836552358
 31
0.0
  0
ENDBLK
  5
9A
330
97
100
AcDbEntity
  8
0
100
AcDbBlockEnd
  0
BLOCK
  5
9E
330
9C
100
AcDbEntity
  8
0
100
AcDbBlockBegin
  2
Block_7
 70
     0
 10
0.0
 20
0.0
 30
0.0
  3
Block_7
  1

  0
LINE
  5
A0
330
9C
100
AcDbEntity
  8
Ebene 1
 62
   254
370
    25
100
AcDbLine
 10
113.6518310084737
 20
103.8521884343115
 30
0.0
 11
113.6518310084737
 21
103.8521884343115
 31
0.0
  0
ENDBLK
  5
9F
330
9C
100
AcDbEntity
  8
0
100
AcDbBlockEnd
  0
BLOCK
  5
A3
330
A1
100
AcDbEntity
  8
0
100
AcDbBlockBegin
  2
Block_8
 70
     0
 10
0.0
 20
0.0
 30
0.0
  3
Block_8
  1

  0
LINE
  5
A5
330
A1
100
AcDbEntity
  8
Ebene 1
 62
   254
370
    25
100
AcDbLine
 10
127.7456412221426
 20
110.4242400695282
 30
0.0
 11
127.7456412221426
 21
110.4242400695282
 31
0.0
  0
ENDBLK
  5
A4
330
A1
100
AcDbEntity
  8
0
100
AcDbBlockEnd
  0
BLOCK
  5
A8
330
A6
100
AcDbEntity
  8
0
100
AcDbBlockBegin
  2
Block_9
 70
     0
 10
0.0
 20
0.0
 30
0.0
  3
Block_9
  1

  0
LINE
  5
AA
330
A6
100
AcDbEntity
  8
Ebene 1
 62
   254
370
    25
100
AcDbLine
 10
128.8546749355853
 20
108.0459095959716
 30
0.0
 11
128.8546749355853
 21
108.0459095959716
 31
0.0
  0
ENDBLK
  5
A9
330
A6
100
AcDbEntity
  8
0
100
AcDbBlockEnd
  0
BLOCK
  5
AD
330
AB
100
AcDbEntity
  8
0
100
AcDbBlockBegin
  2
Block_10
 70
     0
 10
0.0
 20
0.0
 30
0.0
  3
Block_10
  1

  0
LINE
  5
AF
330
AB
100
AcDbEntity
  8
Ebene 1
 62
   254
370
    25
100
AcDbLine
 10
126.123999206687
 20
106.7725745916483
 30
0.0
 11
126.123999206687
 21
106.7725745916483
 31
0.0
  0
ENDBLK
  5
AE
330
AB
100
AcDbEntity
  8
0
100
AcDbBlockEnd
  0
BLOCK
  5
B2
330
B0
100
AcDbEntity
  8
0
100
AcDbBlockBegin
  2
Block_11
 70
     0
 10
0.0
 20
0.0
 30
0.0
  3
Block_11
  1

  0
LINE
  5
B4
330
B0
100
AcDbEntity
  8
Ebene 1
 62
   254
370
    25
100
AcDbLine
 10
127.0276563065293
 20
104.834675687269
 30
0.0
 11
127.0276563065293
 21
104.834675687269
 31
0.0
  0
ENDBLK
  5
B3
330
B0
100
AcDbEntity
  8
0
100
AcDbBlockEnd
  0
BLOCK
  5
B7
330
B5
100
AcDbEntity
  8
0
100
AcDbBlockBegin
  2
Block_12
 70
     0
 10
0.0
 20
0.0
 30
0.0
  3
Block_12
  1

  0
LINE
  5
B9
330
B5
100
AcDbEntity
  8
Ebene 1
 62
   254
370
    25
100
AcDbLine
 10
128.8774688970734
 20
105.6972574643912
 30
0.0
 11
128.8774688970734
 21
105.6972574643912
 31
0.0
  0
ENDBLK
  5
B8
330
B5
100
AcDbEntity
  8
0
100
AcDbBlockEnd
  0
BLOCK
  5
BC
330
BA
100
AcDbEntity
  8
0
100
AcDbBlockBegin
  2
Block_13
 70
     0
 10
0.0
 20
0.0
 30
0.0
  3
Block_13
  1

  0
LINE
  5
BE
330
BA
100
AcDbEntity
  8
Ebene 1
 62
   254
370
    25
100
AcDbLine
 10
129.945427287796
 20
103.4070133046702
 30
0.0
 11
129.945427287796
 21
103.4070133046702
 31
0.0
  0
ENDBLK
  5
BD
330
BA
100
AcDbEntity
  8
0
100
AcDbBlockEnd
  0
BLOCK
  5
C1
330
BF
100
AcDbEntity
  8
0
100
AcDbBlockBegin
  2
Block_14
 70
     0
 10
0.0
 20
0.0
 30
0.0
  3
Block_14
  1

  0
LINE
  5
C3
330
BF
100
AcDbEntity
  8
Ebene 1
 62
   254
370
    25
100
AcDbLine
 10
126.5981473620497
 20
101.8461510413061
 30
0.0
 11
126.5981473620497
 21
101.8461510413061
 31
0.0
  0
ENDBLK
  5
C2
330
BF
100
AcDbEntity
  8
0
100
AcDbBlockEnd
  0
BLOCK
  5
C6
330
C4
100
AcDbEntity
  8
0
100
AcDbBlockBegin
  2
Block_15
 70
     0
 10
0.0
 20
0.0
 30
0.0
  3
Block_15
  1

  0
LINE
  5
C8
330
C4
100
AcDbEntity
  8
Ebene 1
 62
   254
370
    25
100
AcDbLine
 10
127.0677014785723
 20
100.7785379231873
 30
0.0
 11
127.0677014785723
 21
100.7785379231873
 31
0.0
  0
ENDBLK
  5
C7
330
C4
100
AcDbEntity
  8
0
100
AcDbBlockEnd
  0
BLOCK
  5
CB
330
C9
100
AcDbEntity
  8
0
100
AcDbBlockBegin
  2
Block_16
 70
     0
 10
0.0
 20
0.0
 30
0.0
  3
Block_16
  1

  0
LINE
  5
CD
330
C9
100
AcDbEntity
  8
Ebene 1
 62
   254
370
    25
100
AcDbLine
 10
185.8019617649071
 20
95.40852838661477
 30
0.0
 11
185.8019617649071
 21
95.40852838661477
 31
0.0
  0
ENDBLK
  5
CC
330
C9
100
AcDbEntity
  8
0
100
AcDbBlockEnd
  0
BLOCK
  5
D0
330
CE
100
AcDbEntity
  8
0
100
AcDbBlockBegin
  2
Block_17
 70
     0
 10
0.0
 20
0.0
 30
0.0
  3
Block_17
  1

  0
LINE
  5
D2
330
CE
100
AcDbEntity
  8
Ebene 1
 62
   254
370
    25
100
AcDbLine
 10
171.2555212929044
 20
96.38045332310289
 30
0.0
 11
171.2555212929044
 21
96.38045332310289
 31
0.0
  0
ENDBLK
  5
D1
330
CE
100
AcDbEntity
  8
0
100
AcDbBlockEnd
  0
BLOCK
  5
D5
330
D3
100
AcDbEntity
  8
0
100
AcDbBlockBegin
  2
Block_18
 70
     0
 10
0.0
 20
0.0
 30
0.0
  3
Block_18
  1

  0
SPLINE
  5
D7
330
D3
100
AcDbEntity
  8
Ebene 1
 62
   254
370
    25
100
AcDbSpline
210
0.0
220
0.0
230
1.0
 70
     8
 71
     3
 72
    11
 73
     7
 74
     0
 42
0.0000000001
 43
0.0000000001
 40
0.0
 40
0.0
 40
0.0
 40
0.0
 40
1.0
 40
1.0
 40
1.0
 40
2.0
 40
2.0
 40
2.0
 40
2.0
 10
182.6432057213203
 20
100.5111343031778
 30
0.0
 10
182.6432057213203
 20
99.30338083227056
 30
0.0
 10
183.6222833575131
 20
98.32430319607846
 30
0.0
 10
184.830036828419
 20
98.32430319607846
 30
0.0
 10
186.037790299325
 20
98.32430319607846
 30
0.0
 10
187.0168679355171
 20
99.30338083227056
 30
0.0
 10
187.0168679355171
 20
100.5111343031778
 30
0.0
  0
ENDBLK
  5
D6
330
D3
100
AcDbEntity
  8
0
100
AcDbBlockEnd
  0
BLOCK
  5
DA
330
D8
100
AcDbEntity
  8
0
100
AcDbBlockBegin
  2
Block_19
 70
     0
 10
0.0
 20
0.0
 30
0.0
  3
Block_19
  1

  0
LINE
  5
DC
330
D8
100
AcDbEntity
  8
Ebene 1
 62
   254
370
    25
100
AcDbLine
 10
185.8019617649071
 20
95.40852838661477
 30
0.0
 11
188.7177365743721
 21
95.40852838661477
 31
0.0
  0
ENDBLK
  5
DB
330
D8
100
AcDbEntity
  8
0
100
AcDbBlockEnd
  0
BLOCK
  5
DF
330
DD
100
AcDbEntity
  8
0
100
AcDbBlockBegin
  2
Block_20
 70
     0
 10
0.0
 20
0.0
 30
0.0
  3
Block_20
  1

  0
LINE
  5
E1
330
DD
100
AcDbEntity
  8
Ebene 1
 62
   254
370
    25
100
AcDbLine
 10
188.7177365743721
 20
95.40852838661477
 30
0.0
 11
188.7177365743721
 21
105.1277777514958
 31
0.0
  0
ENDBLK
  5
E0
330
DD
100
AcDbEntity
  8
0
100
AcDbBlockEnd
  0
BLOCK
  5
E4
330
E2
100
AcDbEntity
  8
0
100
AcDbBlockBegin
  2
Block_21
 70
     0
 10
0.0
 20
0.0
 30
0.0
  3
Block_21
  1

  0
SPLINE
  5
E6
330
E2
100
AcDbEntity
  8
Ebene 1
 62
   254
370
    25
100
AcDbSpline
210
0.0
220
0.0
230
1.0
 70
     8
 71
     3
 72
     8
 73
     4
 74
     0
 42
0.0000000001
 43
0.0000000001
 40
0.0
 40
0.0
 40
0.0
 40
0.0
 40
1.0
 40
1.0
 40
1.0
 40
1.0
 10
188.7177365743721
 20
105.1277777514958
 30
0.0
 10
180.8508657560924
 20
104.0303351841559
 30
0.0
 10
173.121406281704
 20
107.8950649213498
 30
0.0
 10
169.2792378446087
 20
114.8470271163769
 30
0.0
  0
ENDBLK
  5
E5
330
E2
100
AcDbEntity
  8
0
100
AcDbBlockEnd
  0
BLOCK
  5
E9
330
E7
100
AcDbEntity
  8
0
100
AcDbBlockBegin
  2
Block_22
 70
     0
 10
0.0
 20
0.0
 30
0.0
  3
Block_22
  1

  0
LINE
  5
EB
330
E7
100
AcDbEntity
  8
Ebene 1
 62
   254
370
    25
100
AcDbLine
 10
169.2792378446087
 20
114.8470271163769
 30
0.0
 11
123.2082243972227
 21
114.8470271163769
 31
0.0
  0
ENDBLK
  5
EA
330
E7
100
AcDbEntity
  8
0
100
AcDbBlockEnd
  0
BLOCK
  5
EE
330
EC
100
AcDbEntity
  8
0
100
AcDbBlockBegin
  2
Block_23
 70
     0
 10
0.0
 20
0.0
 30
0.0
  3
Block_23
  1

  0
LINE
  5
F0
330
EC
100
AcDbEntity
  8
Ebene 1
 62
   254
370
    25
100
AcDbLine
 10
123.2082243972227
 20
114.8470271163769
 30
0.0
 11
108.3211522402573
 21
105.3664267153002
 31
0.0
  0
ENDBLK
  5
EF
330
EC
100
AcDbEntity
  8
0
100
AcDbBlockEnd
  0
BLOCK
  5
F3
330
F1
100
AcDbEntity
  8
0
100
AcDbBlockBegin
  2
Block_24
 70
     0
 10
0.0
 20
0.0
 30
0.0
  3
Block_24
  1

  0
LINE
  5
F5
330
F1
100
AcDbEntity
  8
Ebene 1
 62
   254
370
    25
100
AcDbLine
 10
108.3211522402573
 20
105.3664267153002
 30
0.0
 11
112.0179312850669
 21
97.43865847011164
 31
0.0
  0
ENDBLK
  5
F4
330
F1
100
AcDbEntity
  8
0
100
AcDbBlockEnd
  0
BLOCK
  5
F8
330
F6
100
AcDbEntity
  8
0
100
AcDbBlockBegin
  2
Block_25
 70
     0
 10
0.0
 20
0.0
 30
0.0
  3
Block_25
  1

  0
LINE
  5
FA
330
F6
100
AcDbEntity
  8
Ebene 1
 62
   254
370
    25
100
AcDbLine
 10
112.0179312850669
 20
97.43865847011164
 30
0.0
 11
112.6799060719856
 21
98.12011836552358
 31
0.0
  0
ENDBLK
  5
F9
330
F6
100
AcDbEntity
  8
0
100
AcDbBlockEnd
  0
BLOCK
  5
FD
330
FB
100
AcDbEntity
  8
0
100
AcDbBlockBegin
  2
Block_26
 70
     0
 10
0.0
 20
0.0
 30
0.0
  3
Block_26
  1

  0
LINE
  5
FF
330
FB
100
AcDbEntity
  8
Ebene 1
 62
   254
370
    25
100
AcDbLine
 10
112.6799060719856
 20
98.12011836552358
 30
0.0
 11
113.6518310084737
 21
103.8521884343115
 31
0.0
  0
ENDBLK
  5
FE
330
FB
100
AcDbEntity
  8
0
100
AcDbBlockEnd
  0
BLOCK
  5
102
330
100
100
AcDbEntity
  8
0
100
AcDbBlockBegin
  2
Block_27
 70
     0
 10
0.0
 20
0.0
 30
0.0
  3
Block_27
  1

  0
LINE
  5
104
330
100
100
AcDbEntity
  8
Ebene 1
 62
   254
370
    25
100
AcDbLine
 10
113.6518310084737
 20
103.8521884343115
 30
0.0
 11
127.7456412221426
 21
110.4242400695282
 31
0.0
  0
ENDBLK
  5
103
330
100
100
AcDbEntity
  8
0
100
AcDbBlockEnd
  0
BLOCK
  5
107
330
105
100
AcDbEntity
  8
0
100
AcDbBlockBegin
  2
Block_28
 70
     0
 10
0.0
 20
0.0
 30
0.0
  3
Block_28
  1

  0
LINE
  5
109
330
105
100
AcDbEntity
  8
Ebene 1
 62
   254
370
    25
100
AcDbLine
 10
127.7456412221426
 20
110.4242400695282
 30
0.0
 11
128.8546749355853
 21
108.0459095959716
 31
0.0
  0
ENDBLK
  5
108
330
105
100
AcDbEntity
  8
0
100
AcDbBlockEnd
  0
BLOCK
  5
10C
330
10A
100
AcDbEntity
  8
0
100
AcDbBlockBegin
  2
Block_29
 70
     0
 10
0.0
 20
0.0
 30
0.0
  3
Block_29
  1

  0
LINE
  5
10E
330
10A
100
AcDbEntity
  8
Ebene 1
 62
   254
370
    25
100
AcDbLine
 10
128.8546749355853
 20
108.0459095959716
 30
0.0
 11
126.123999206687
 21
106.7725745916483
 31
0.0
  0
ENDBLK
  5
10D
330
10A
100
AcDbEntity
  8
0
100
AcDbBlockEnd
  0
BLOCK
  5
111
330
10F
100
AcDbEntity
  8
0
100
AcDbBlockBegin
  2
Block_30
 70
     0
 10
0.0
 20
0.0
 30
0.0
  3
Block_30
  1

  0
LINE
  5
113
330
10F
100
AcDbEntity
  8
Ebene 1
 62
   254
370
    25
100
AcDbLine
 10
126.123999206687
 20
106.7725745916483
 30
0.0
 11
127.0276563065293
 21
104.834675687269
 31
0.0
  0
ENDBLK
  5
112
330
10F
100
AcDbEntity
  8
0
100
AcDbBlockEnd
  0
BLOCK
  5
116
330
114
100
AcDbEntity
  8
0
100
AcDbBlockBegin
  2
Block_31
 70
     0
 10
0.0
 20
0.0
 30
0.0
  3
Block_31
  1

  0
LINE
  5
118
330
114
100
AcDbEntity
  8
Ebene 1
 62
   254
370
    25
100
AcDbLine
 10
127.0276563065293
 20
104.834675687269
 30
0.0
 11
128.8774688970734
 21
105.6972574643912
 31
0.0
  0
ENDBLK
  5
117
330
114
100
AcDbEntity
  8
0
100
AcDbBlockEnd
  0
BLOCK
  5
11B
330
119
100
AcDbEntity
  8
0
100
AcDbBlockBegin
  2
Block_32
 70
     0
 10
0.0
 20
0.0
 30
0.0
  3
Block_32
  1

  0
LINE
  5
11D
330
119
100
AcDbEntity
  8
Ebene 1
 62
   254
370
    25
100
AcDbLine
 10
128.8774688970734
 20
105.6972574643912
 30
0.0
 11
129.945427287796
 21
103.4070133046702
 31
0.0
  0
ENDBLK
  5
11C
330
119
100
AcDbEntity
  8
0
100
AcDbBlockEnd
  0
BLOCK
  5
120
330
11E
100
AcDbEntity
  8
0
100
AcDbBlockBegin
  2
Block_33
 70
     0
 10
0.0
 20
0.0
 30
0.0
  3
Block_33
  1

  0
LINE
  5
122
330
11E
100
AcDbEntity
  8
Ebene 1
 62
   254
370
    25
100
AcDbLine
 10
129.945427287796
 20
103.4070133046702
 30
0.0
 11
126.5981473620497
 21
101.8461510413061
 31
0.0
  0
ENDBLK
  5
121
330
11E
100
AcDbEntity
  8
0
100
AcDbBlockEnd
  0
BLOCK
  5
125
330
123
100
AcDbEntity
  8
0
100
AcDbBlockBegin
  2
Block_34
 70
     0
 10
0.0
 20
0.0
 30
0.0
  3
Block_34
  1

  0
LINE
  5
127
330
123
100
AcDbEntity
  8
Ebene 1
 62
   254
370
    25
100
AcDbLine
 10
126.5981473620497
 20
101.8461510413061
 30
0.0
 11
127.0677014785723
 21
100.7785379231873
 31
0.0
  0
ENDBLK
  5
126
330
123
100
AcDbEntity
  8
0
100
AcDbBlockEnd
  0
BLOCK
  5
12A
330
128
100
AcDbEntity
  8
0
100
AcDbBlockBegin
  2
Block_35
 70
     0
 10
0.0
 20
0.0
 30
0.0
  3
Block_35
  1

  0
LINE
  5
12C
330
128
100
AcDbEntity
  8
Ebene 1
 62
   254
370
    25
100
AcDbLine
 10
127.0677014785723
 20
100.7785379231873
 30
0.0
 11
171.2555212929044
 21
96.38045332310289
 31
0.0
  0
ENDBLK
  5
12B
330
128
100
AcDbEntity
  8
0
100
AcDbBlockEnd
  0
BLOCK
  5
12F
330
12D
100
AcDbEntity
  8
0
100
AcDbBlockBegin
  2
Block_36
 70
     0
 10
0.0
 20
0.0
 30
0.0
  3
Block_36
  1

  0
SPLINE
  5
131
330
12D
100
AcDbEntity
  8
Ebene 1
 62
   254
370
    25
100
AcDbSpline
210
0.0
220
0.0
230
1.0
 70
     8
 71
     3
 72
     8
 73
     4
 74
     0
 42
0.0000000001
 43
0.0000000001
 40
0.0
 40
0.0
 40
0.0
 40
0.0
 40
1.0
 40
1.0
 40
1.0
 40
1.0
 10
171.2555212929044
 20
96.38045332310289
 30
0.0
 10
175.5407995716103
 20
100.1289522814059
 30
0.0
 10
182.0534628066041
 20
99.69380666532011
 30
0.0
 10
185.8019617649071
 20
95.40852838661477
 30
0.0
  0
ENDBLK
  5
130
330
12D
100
AcDbEntity
  8
0
100
AcDbBlockEnd
  0
BLOCK
  5
134
330
132
100
AcDbEntity
  8
0
100
AcDbBlockBegin
  2
Block_37
 70
     0
 10
0.0
 20
0.0
 30
0.0
  3
Block_37
  1

  0
SPLINE
  5
136
330
132
100
AcDbEntity
  8
Ebene 1
 62
   254
370
    25
100
AcDbSpline
210
0.0
220
0.0
230
1.0
 70
     8
 71
     3
 72
    11
 73
     7
 74
     0
 42
0.0000000001
 43
0.0000000001
 40
0.0
 40
0.0
 40
0.0
 40
0.0
 40
1.0
 40
1.0
 40
1.0
 40
2.0
 40
2.0
 40
2.0
 40
2.0
 10
182.6432057213203
 20
100.5111343031778
 30
0.0
 10
182.6432057213203
 20
99.30338083227056
 30
0.0
 10
183.6222833575131
 20
98.32430319607846
 30
0.0
 10
184.830036828419
 20
98.32430319607846
 30
0.0
 10
186.037790299325
 20
98.32430319607846
 30
0.0
 10
187.0168679355171
 20
99.30338083227056
 30
0.0
 10
187.0168679355171
 20
100.5111343031778
 30
0.0
  0
ENDBLK
  5
135
330
132
100
AcDbEntity
  8
0
100
AcDbBlockEnd
  0
BLOCK
  5
139
330
137
100
AcDbEntity
  8
0
100
AcDbBlockBegin
  2
Block_38
 70
     0
 10
0.0
 20
0.0
 30
0.0
  3
Block_38
  1

  0
LINE
  5
13B
330
137
100
AcDbEntity
  8
Ebene 1
 62
   254
370
    25
100
AcDbLine
 10
185.8019617649071
 20
95.40852838661477
 30
0.0
 11
188.7177365743721
 21
95.40852838661477
 31
0.0
  0
ENDBLK
  5
13A
330
137
100
AcDbEntity
  8
0
100
AcDbBlockEnd
  0
BLOCK
  5
13E
330
13C
100
AcDbEntity
  8
0
100
AcDbBlockBegin
  2
Block_39
 70
     0
 10
0.0
 20
0.0
 30
0.0
  3
Block_39
  1

  0
SPLINE
  5
140
330
13C
100
AcDbEntity
  8
Ebene 1
 62
   254
370
    25
100
AcDbSpline
210
0.0
220
0.0
230
1.0
 70
     8
 71
     3
 72
     8
 73
     4
 74
     0
 42
0.0000000001
 43
0.0000000001
 40
0.0
 40
0.0
 40
0.0
 40
0.0
 40
1.0
 40
1.0
 40
1.0
 40
1.0
 10
171.2555212929044
 20
96.38045332310289
 30
0.0
 10
175.5407995716103
 20
100.1289522814059
 30
0.0
 10
182.0534628066041
 20
99.69380666532011
 30
0.0
 10
185.8019617649071
 20
95.40852838661477
 30
0.0
  0
ENDBLK
  5
13F
330
13C
100
AcDbEntity
  8
0
100
AcDbBlockEnd
  0
BLOCK
  5
143
330
141
100
AcDbEntity
  8
0
100
AcDbBlockBegin
  2
Block_40
 70
     0
 10
0.0
 20
0.0
 30
0.0
  3
Block_40
  1

  0
LINE
  5
145
330
141
100
AcDbEntity
  8
Ebene 1
 62
   254
370
    25
100
AcDbLine
 10
127.0677014785723
 20
100.7785379231873
 30
0.0
 11
171.2555212929044
 21
96.38045332310289
 31
0.0
  0
ENDBLK
  5
144
330
141
100
AcDbEntity
  8
0
100
AcDbBlockEnd
  0
BLOCK
  5
148
330
146
100
AcDbEntity
  8
0
100
AcDbBlockBegin
  2
Block_41
 70
     0
 10
0.0
 20
0.0
 30
0.0
  3
Block_41
  1

  0
LINE
  5
14A
330
146
100
AcDbEntity
  8
Ebene 1
 62
   254
370
    25
100
AcDbLine
 10
126.5981473620497
 20
101.8461510413061
 30
0.0
 11
127.0677014785723
 21
100.7785379231873
 31
0.0
  0
ENDBLK
  5
149
330
146
100
AcDbEntity
  8
0
100
AcDbBlockEnd
  0
BLOCK
  5
14D
330
14B
100
AcDbEntity
  8
0
100
AcDbBlockBegin
  2
Block_42
 70
     0
 10
0.0
 20
0.0
 30
0.0
  3
Block_42
  1

  0
LINE
  5
14F
330
14B
100
AcDbEntity
  8
Ebene 1
 62
   254
370
    25
100
AcDbLine
 10
129.945427287796
 20
103.4070133046702
 30
0.0
 11
126.5981473620497
 21
101.8461510413061
 31
0.0
  0
ENDBLK
  5
14E
330
14B
100
AcDbEntity
  8
0
100
AcDbBlockEnd
  0
BLOCK
  5
152
330
150
100
AcDbEntity
  8
0
100
AcDbBlockBegin
  2
Block_43
 70
     0
 10
0.0
 20
0.0
 30
0.0
  3
Block_43
  1

  0
LINE
  5
154
330
150
100
AcDbEntity
  8
Ebene 1
 62
   254
370
    25
100
AcDbLine
 10
128.8774688970734
 20
105.6972574643912
 30
0.0
 11
129.945427287796
 21
103.4070133046702
 31
0.0
  0
ENDBLK
  5
153
330
150
100
AcDbEntity
  8
0
100
AcDbBlockEnd
  0
BLOCK
  5
157
330
155
100
AcDbEntity
  8
0
100
AcDbBlockBegin
  2
Block_44
 70
     0
 10
0.0
 20
0.0
 30
0.0
  3
Block_44
  1

  0
LINE
  5
159
330
155
100
AcDbEntity
  8
Ebene 1
 62
   254
370
    25
100
AcDbLine
 10
127.0276563065293
 20
104.834675687269
 30
0.0
 11
128.8774688970734
 21
105.6972574643912
 31
0.0
  0
ENDBLK
  5
158
330
155
100
AcDbEntity
  8
0
100
AcDbBlockEnd
  0
BLOCK
  5
15C
330
15A
100
AcDbEntity
  8
0
100
AcDbBlockBegin
  2
Block_45
 70
     0
 10
0.0
 20
0.0
 30
0.0
  3
Block_45
  1

  0
LINE
  5
15E
330
15A
100
AcDbEntity
  8
Ebene 1
 62
   254
370
    25
100
AcDbLine
 10
126.123999206687
 20
106.7725745916483
 30
0.0
 11
127.0276563065293
 21
104.834675687269
 31
0.0
  0
ENDBLK
  5
15D
330
15A
100
AcDbEntity
  8
0
100
AcDbBlockEnd
  0
BLOCK
  5
161
330
15F
100
AcDbEntity
  8
0
100
AcDbBlockBegin
  2
Block_46
 70
     0
 10
0.0
 20
0.0
 30
0.0
  3
Block_46
  1

  0
LINE
  5
163
330
15F
100
AcDbEntity
  8
Ebene 1
 62
   254
370
    25
100
AcDbLine
 10
128.8546749355853
 20
108.0459095959716
 30
0.0
 11
126.123999206687
 21
106.7725745916483
 31
0.0
  0
ENDBLK
  5
162
330
15F
100
AcDbEntity
  8
0
100
AcDbBlockEnd
  0
BLOCK
  5
166
330
164
100
AcDbEntity
  8
0
100
AcDbBlockBegin
  2
Block_47
 70
     0
 10
0.0
 20
0.0
 30
0.0
  3
Block_47
  1

  0
LINE
  5
168
330
164
100
AcDbEntity
  8
Ebene 1
 62
   254
370
    25
100
AcDbLine
 10
127.7456412221426
 20
110.4242400695282
 30
0.0
 11
128.8546749355853
 21
108.0459095959716
 31
0.0
  0
ENDBLK
  5
167
330
164
100
AcDbEntity
  8
0
100
AcDbBlockEnd
  0
BLOCK
  5
16B
330
169
100
AcDbEntity
  8
0
100
AcDbBlockBegin
  2
Block_48
 70
     0
 10
0.0
 20
0.0
 30
0.0
  3
Block_48
  1

  0
LINE
  5
16D
330
169
100
AcDbEntity
  8
Ebene 1
 62
   254
370
    25
100
AcDbLine
 10
113.6518310084737
 20
103.8521884343115
 30
0.0
 11
127.7456412221426
 21
110.4242400695282
 31
0.0
  0
ENDBLK
  5
16C
330
169
100
AcDbEntity
  8
0
100
AcDbBlockEnd
  0
BLOCK
  5
170
330
16E
100
AcDbEntity
  8
0
100
AcDbBlockBegin
  2
Block_49
 70
     0
 10
0.0
 20
0.0
 30
0.0
  3
Block_49
  1

  0
LINE
  5
172
330
16E
100
AcDbEntity
  8
Ebene 1
 62
   254
370
    25
100
AcDbLine
 10
112.6799060719856
 20
98.12011836552358
 30
0.0
 11
113.6518310084737
 21
103.8521884343115
 31
0.0
  0
ENDBLK
  5
171
330
16E
100
AcDbEntity
  8
0
100
AcDbBlockEnd
  0
BLOCK
  5
175
330
173
100
AcDbEntity
  8
0
100
AcDbBlockBegin
  2
Block_50
 70
     0
 10
0.0
 20
0.0
 30
0.0
  3
Block_50
  1

  0
LINE
  5
177
330
173
100
AcDbEntity
  8
Ebene 1
 62
   254
370
    25
100
AcDbLine
 10
112.0179312850669
 20
97.43865847011164
 30
0.0
 11
112.6799060719856
 21
98.12011836552358
 31
0.0
  0
ENDBLK
  5
176
330
173
100
AcDbEntity
  8
0
100
AcDbBlockEnd
  0
BLOCK
  5
17A
330
178
100
AcDbEntity
  8
0
100
AcDbBlockBegin
  2
Block_51
 70
     0
 10
0.0
 20
0.0
 30
0.0
  3
Block_51
  1

  0
LINE
  5
17C
330
178
100
AcDbEntity
  8
Ebene 1
 62
   254
370
    25
100
AcDbLine
 10
108.3211522402573
 20
105.3664267153002
 30
0.0
 11
112.0179312850669
 21
97.43865847011164
 31
0.0
  0
ENDBLK
  5
17B
330
178
100
AcDbEntity
  8
0
100
AcDbBlockEnd
  0
BLOCK
  5
17F
330
17D
100
AcDbEntity
  8
0
100
AcDbBlockBegin
  2
Block_52
 70
     0
 10
0.0
 20
0.0
 30
0.0
  3
Block_52
  1

  0
LINE
  5
181
330
17D
100
AcDbEntity
  8
Ebene 1
 62
   254
370
    25
100
AcDbLine
 10
123.2082243972227
 20
114.8470271163769
 30
0.0
 11
108.3211522402573
 21
105.3664267153002
 31
0.0
  0
ENDBLK
  5
180
330
17D
100
AcDbEntity
  8
0
100
AcDbBlockEnd
  0
BLOCK
  5
184
330
182
100
AcDbEntity
  8
0
100
AcDbBlockBegin
  2
Block_53
 70
     0
 10
0.0
 20
0.0
 30
0.0
  3
Block_53
  1

  0
LINE
  5
186
330
182
100
AcDbEntity
  8
Ebene 1
 62
   254
370
    25
100
AcDbLine
 10
169.2792378446087
 20
114.8470271163769
 30
0.0
 11
123.2082243972227
 21
114.8470271163769
 31
0.0
  0
ENDBLK
  5
185
330
182
100
AcDbEntity
  8
0
100
AcDbBlockEnd
  0
BLOCK
  5
189
330
187
100
AcDbEntity
  8
0
100
AcDbBlockBegin
  2
Block_54
 70
     0
 10
0.0
 20
0.0
 30
0.0
  3
Block_54
  1

  0
SPLINE
  5
18B
330
187
100
AcDbEntity
  8
Ebene 1
 62
   254
370
    25
100
AcDbSpline
210
0.0
220
0.0
230
1.0
 70
     8
 71
     3
 72
     8
 73
     4
 74
     0
 42
0.0000000001
 43
0.0000000001
 40
0.0
 40
0.0
 40
0.0
 40
0.0
 40
1.0
 40
1.0
 40
1.0
 40
1.0
 10
188.7177365743721
 20
105.1277777514958
 30
0.0
 10
180.8508657560924
 20
104.0303351841559
 30
0.0
 10
173.121406281704
 20
107.8950649213498
 30
0.0
 10
169.2792378446087
 20
114.8470271163769
 30
0.0
  0
ENDBLK
  5
18A
330
187
100
AcDbEntity
  8
0
100
AcDbBlockEnd
  0
BLOCK
  5
18E
330
18C
100
AcDbEntity
  8
0
100
AcDbBlockBegin
  2
Block_55
 70
     0
 10
0.0
 20
0.0
 30
0.0
  3
Block_55
  1

  0
LINE
  5
190
330
18C
100
AcDbEntity
  8
Ebene 1
 62
   254
370
    25
100
AcDbLine
 10
188.7177365743721
 20
95.40852838661477
 30
0.0
 11
188.7177365743721
 21
105.1277777514958
 31
0.0
  0
ENDBLK
  5
18F
330
18C
100
AcDbEntity
  8
0
100
AcDbBlockEnd
  0
BLOCK
  5
193
330
191
100
AcDbEntity
  8
0
100
AcDbBlockBegin
  2
Block_56
 70
     0
 10
0.0
 20
0.0
 30
0.0
  3
Block_56
  1

  0
LINE
  5
195
330
191
100
AcDbEntity
  8
Ebene 1
 62
   254
370
    25
100
AcDbLine
 10
182.6432057213203
 20
100.5111343031778
 30
0.0
 11
182.6432057213203
 21
100.5111343031778
 31
0.0
  0
ENDBLK
  5
194
330
191
100
AcDbEntity
  8
0
100
AcDbBlockEnd
  0
BLOCK
  5
198
330
196
100
AcDbEntity
  8
0
100
AcDbBlockBegin
  2
Block_57
 70
     0
 10
0.0
 20
0.0
 30
0.0
  3
Block_57
  1

  0
SPLINE
  5
19A
330
196
100
AcDbEntity
  8
Ebene 1
 62
   254
370
    25
100
AcDbSpline
210
0.0
220
0.0
230
1.0
 70
     8
 71
     3
 72
    11
 73
     7
 74
     0
 42
0.0000000001
 43
0.0000000001
 40
0.0
 40
0.0
 40
0.0
 40
0.0
 40
1.0
 40
1.0
 40
1.0
 40
2.0
 40
2.0
 40
2.0
 40
2.0
 10
187.0168679355171
 20
100.5111343031778
 30
0.0
 10
187.0168679355171
 20
101.7188877740831
 30
0.0
 10
186.037790299325
 20
102.6979654102759
 30
0.0
 10
184.830036828419
 20
102.6979654102759
 30
0.0
 10
183.6222833575131
 20
102.6979654102759
 30
0.0
 10
182.6432057213203
 20
101.7188877740831
 30
0.0
 10
182.6432057213203
 20
100.5111343031778
 30
0.0
  0
ENDBLK
  5
199
330
196
100
AcDbEntity
  8
0
100
AcDbBlockEnd
  0
BLOCK
  5
19D
330
19B
100
AcDbEntity
  8
0
100
AcDbBlockBegin
  2
Block_58
 70
     0
 10
0.0
 20
0.0
 30
0.0
  3
Block_58
  1

  0
LINE
  5
19F
330
19B
100
AcDbEntity
  8
Ebene 1
 62
   254
370
    25
100
AcDbLine
 10
187.0168679355171
 20
100.5111343031778
 30
0.0
 11
187.0168679355171
 21
100.5111343031778
 31
0.0
  0
ENDBLK
  5
19E
330
19B
100
AcDbEntity
  8
0
100
AcDbBlockEnd
  0
BLOCK
  5
1A2
330
1A0
100
AcDbEntity
  8
0
100
AcDbBlockBegin
  2
Block_59
 70
     0
 10
0.0
 20
0.0
 30
0.0
  3
Block_59
  1

  0
SPLINE
  5
1A4
330
1A0
100
AcDbEntity
  8
Ebene 1
 62
   254
370
    25
100
AcDbSpline
210
0.0
220
0.0
230
1.0
 70
     8
 71
     3
 72
    11
 73
     7
 74
     0
 42
0.0000000001
 43
0.0000000001
 40
0.0
 40
0.0
 40
0.0
 40
0.0
 40
1.0
 40
1.0
 40
1.0
 40
2.0
 40
2.0
 40
2.0
 40
2.0
 10
187.0168679355171
 20
100.5111343031778
 30
0.0
 10
187.0168679355171
 20
101.7188877740831
 30
0.0
 10
186.037790299325
 20
102.6979654102759
 30
0.0
 10
184.830036828419
 20
102.6979654102759
 30
0.0
 10
183.6222833575131
 20
102.6979654102759
 30
0.0
 10
182.6432057213203
 20
101.7188877740831
 30
0.0
 10
182.6432057213203
 20
100.5111343031778
 30
0.0
  0
ENDBLK
  5
1A3
330
1A0
100
AcDbEntity
  8
0
100
AcDbBlockEnd
  0
BLOCK
  5
1A7
330
1A5
100
AcDbEntity
  8
0
100
AcDbBlockBegin
  2
Block_60
 70
     0
 10
0.0
 20
0.0
 30
0.0
  3
Block_60
  1

  0
LINE
  5
1A9
330
1A5
100
AcDbEntity
  8
Ebene 1
 62
   254
370
    25
100
AcDbLine
 10
183.0608532989488
 20
99.22574722917019
 30
0.0
 11
183.0608532989488
 21
99.22574722917019
 31
0.0
  0
ENDBLK
  5
1A8
330
1A5
100
AcDbEntity
  8
0
100
AcDbBlockEnd
  0
BLOCK
  5
1AC
330
1AA
100
AcDbEntity
  8
0
100
AcDbBlockBegin
  2
Block_61
 70
     0
 10
0.0
 20
0.0
 30
0.0
  3
Block_61
  1

  0
LINE
  5
1AE
330
1AA
100
AcDbEntity
  8
Ebene 1
 62
   254
370
    25
100
AcDbLine
 10
184.1542688524978
 20
98.43133432873413
 30
0.0
 11
184.1542688524978
 21
98.43133432873413
 31
0.0
  0
ENDBLK
  5
1AD
330
1AA
100
AcDbEntity
  8
0
100
AcDbBlockEnd
  0
BLOCK
  5
1B1
330
1AF
100
AcDbEntity
  8
0
100
AcDbBlockBegin
  2
Block_62
 70
     0
 10
0.0
 20
0.0
 30
0.0
  3
Block_62
  1

  0
LINE
  5
1B3
330
1AF
100
AcDbEntity
  8
Ebene 1
 62
   254
370
    25
100
AcDbLine
 10
185.5058048043402
 20
98.43133432873413
 30
0.0
 11
185.5058048043402
 21
98.43133432873413
 31
0.0
  0
ENDBLK
  5
1B2
330
1AF
100
AcDbEntity
  8
0
100
AcDbBlockEnd
  0
BLOCK
  5
1B6
330
1B4
100
AcDbEntity
  8
0
100
AcDbBlockBegin
  2
Block_63
 70
     0
 10
0.0
 20
0.0
 30
0.0
  3
Block_63
  1

  0
LINE
  5
1B8
330
1B4
100
AcDbEntity
  8
Ebene 1
 62
   254
370
    25
100
AcDbLine
 10
186.5992203578893
 20
99.22574722917019
 30
0.0
 11
186.5992203578893
 21
99.22574722917019
 31
0.0
  0
ENDBLK
  5
1B7
330
1B4
100
AcDbEntity
  8
0
100
AcDbBlockEnd
  0
BLOCK
  5
1BB
330
1B9
100
AcDbEntity
  8
0
100
AcDbBlockBegin
  2
Block_64
 70
     0
 10
0.0
 20
0.0
 30
0.0
  3
Block_64
  1

  0
LINE
  5
1BD
330
1B9
100
AcDbEntity
  8
Ebene 1
 62
   254
370
    25
100
AcDbLine
 10
181.0826296009319
 20
105.6028682736236
 30
0.0
 11
181.0826296009319
 21
105.6028682736236
 31
0.0
  0
ENDBLK
  5
1BC
330
1B9
100
AcDbEntity
  8
0
100
AcDbBlockEnd
  0
BLOCK
  5
1C0
330
1BE
100
AcDbEntity
  8
0
100
AcDbBlockBegin
  2
Block_65
 70
     0
 10
0.0
 20
0.0
 30
0.0
  3
Block_65
  1

  0
LINE
  5
1C2
330
1BE
100
AcDbEntity
  8
Ebene 1
 62
   254
370
    25
100
AcDbLine
 10
174.2403744463749
 20
109.0239958509023
 30
0.0
 11
174.2403744463749
 21
109.0239958509023
 31
0.0
  0
ENDBLK
  5
1C1
330
1BE
100
AcDbEntity
  8
0
100
AcDbBlockEnd
  0
BLOCK
  5
1C5
330
1C3
100
AcDbEntity
  8
0
100
AcDbBlockBegin
  2
Block_66
 70
     0
 10
0.0
 20
0.0
 30
0.0
  3
Block_66
  1

  0
LINE
  5
1C7
330
1C3
100
AcDbEntity
  8
Ebene 1
 62
   254
370
    25
100
AcDbLine
 10
176.0444327638736
 20
98.73454883721691
 30
0.0
 11
176.0444327638736
 21
98.73454883721691
 31
0.0
  0
ENDBLK
  5
1C6
330
1C3
100
AcDbEntity
  8
0
100
AcDbBlockEnd
  0
BLOCK
  5
1CA
330
1C8
100
AcDbEntity
  8
0
100
AcDbBlockBegin
  2
Block_67
 70
     0
 10
0.0
 20
0.0
 30
0.0
  3
Block_67
  1

  0
LINE
  5
1CC
330
1C8
100
AcDbEntity
  8
Ebene 1
 62
   254
370
    25
100
AcDbLine
 10
181.3687995112651
 20
98.37879961989097
 30
0.0
 11
181.3687995112651
 21
98.37879961989097
 31
0.0
  0
ENDBLK
  5
1CB
330
1C8
100
AcDbEntity
  8
0
100
AcDbBlockEnd
  0
BLOCK
  5
1CF
330
1CD
100
AcDbEntity
  8
0
100
AcDbBlockBegin
  2
Block_68
 70
     0
 10
0.0
 20
0.0
 30
0.0
  3
Block_68
  1

  0
LINE
  5
1D1
330
1CD
100
AcDbEntity
  8
Ebene 1
 62
   254
370
    25
100
AcDbLine
 10
186.5992203578893
 20
101.7965213771841
 30
0.0
 11
186.5992203578893
 21
101.7965213771841
 31
0.0
  0
ENDBLK
  5
1D0
330
1CD
100
AcDbEntity
  8
0
100
AcDbBlockEnd
  0
BLOCK
  5
1D4
330
1D2
100
AcDbEntity
  8
0
100
AcDbBlockBegin
  2
Block_69
 70
     0
 10
0.0
 20
0.0
 30
0.0
  3
Block_69
  1

  0
LINE
  5
1D6
330
1D2
100
AcDbEntity
  8
Ebene 1
 62
   254
370
    25
100
AcDbLine
 10
185.5058048043402
 20
102.5909342776202
 30
0.0
 11
185.5058048043402
 21
102.5909342776202
 31
0.0
  0
ENDBLK
  5
1D5
330
1D2
100
AcDbEntity
  8
0
100
AcDbBlockEnd
  0
BLOCK
  5
1D9
330
1D7
100
AcDbEntity
  8
0
100
AcDbBlockBegin
  2
Block_70
 70
     0
 10
0.0
 20
0.0
 30
0.0
  3
Block_70
  1

  0
LINE
  5
1DB
330
1D7
100
AcDbEntity
  8
Ebene 1
 62
   254
370
    25
100
AcDbLine
 10
184.1542688524978
 20
102.5909342776202
 30
0.0
 11
184.1542688524978
 21
102.5909342776202
 31
0.0
  0
ENDBLK
  5
1DA
330
1D7
100
AcDbEntity
  8
0
100
AcDbBlockEnd
  0
BLOCK
  5
1DE
330
1DC
100
AcDbEntity
  8
0
100
AcDbBlockBegin
  2
Block_71
 70
     0
 10
0.0
 20
0.0
 30
0.0
  3
Block_71
  1

  0
LINE
  5
1E0
330
1DC
100
AcDbEntity
  8
Ebene 1
 62
   254
370
    25
100
AcDbLine
 10
183.0608532989488
 20
101.7965213771841
 30
0.0
 11
183.0608532989488
 21
101.7965213771841
 31
0.0
  0
ENDBLK
  5
1DF
330
1DC
100
AcDbEntity
  8
0
100
AcDbBlockEnd
  0
BLOCK
  5
1E3
330
1E1
100
AcDbEntity
  8
0
100
AcDbBlockBegin
  2
Block_72
 70
     0
 10
0.0
 20
0.0
 30
0.0
  3
Block_72
  1

  0
LINE
  5
1E5
330
1E1
100
AcDbEntity
  8
Ebene 1
 62
   254
370
    25
100
AcDbLine
 10
187.0168679355171
 20
100.5111343031778
 30
0.0
 11
187.0168679355171
 21
100.5111343031778
 31
0.0
  0
ENDBLK
  5
1E4
330
1E1
100
AcDbEntity
  8
0
100
AcDbBlockEnd
  0
BLOCK
  5
1E8
330
1E6
100
AcDbEntity
  8
0
100
AcDbBlockBegin
  2
Block_73
 70
     0
 10
0.0
 20
0.0
 30
0.0
  3
Block_73
  1

  0
LINE
  5
1EA
330
1E6
100
AcDbEntity
  8
Ebene 1
 62
   254
370
    25
100
AcDbLine
 10
182.6432057213203
 20
100.5111343031778
 30
0.0
 11
182.6432057213203
 21
100.5111343031778
 31
0.0
  0
ENDBLK
  5
1E9
330
1E6
100
AcDbEntity
  8
0
100
AcDbBlockEnd
  0
BLOCK
  5
1ED
330
1EB
100
AcDbEntity
  8
0
100
AcDbBlockBegin
  2
Block_74
 70
     0
 10
0.0
 20
0.0
 30
0.0
  3
Block_74
  1

  0
LINE
  5
1EF
330
1EB
100
AcDbEntity
  8
Ebene 1
 62
   254
370
    25
100
AcDbLine
 10
182.6432057213203
 20
100.5111343031778
 30
0.0
 11
182.6432057213203
 21
100.5111343031778
 31
0.0
  0
ENDBLK
  5
1EE
330
1EB
100
AcDbEntity
  8
0
100
AcDbBlockEnd
  0
BLOCK
  5
1F2
330
1F0
100
AcDbEntity
  8
0
100
AcDbBlockBegin
  2
Block_75
 70
     0
 10
0.0
 20
0.0
 30
0.0
  3
Block_75
  1

  0
LINE
  5
1F4
330
1F0
100
AcDbEntity
  8
Ebene 1
 62
   254
370
    25
100
AcDbLine
 10
187.0168679355171
 20
100.5111343031778
 30
0.0
 11
187.0168679355171
 21
100.5111343031778
 31
0.0
  0
ENDBLK
  5
1F3
330
1F0
100
AcDbEntity
  8
0
100
AcDbBlockEnd
  0
BLOCK
  5
1F7
330
1F5
100
AcDbEntity
  8
0
100
AcDbBlockBegin
  2
Block_76
 70
     0
 10
0.0
 20
0.0
 30
0.0
  3
Block_76
  1

  0
LINE
  5
1F9
330
1F5
100
AcDbEntity
  8
Ebene 1
 62
   254
370
    25
100
AcDbLine
 10
185.8019617649071
 20
95.40852838661477
 30
0.0
 11
185.8019617649071
 21
95.40852838661477
 31
0.0
  0
ENDBLK
  5
1F8
330
1F5
100
AcDbEntity
  8
0
100
AcDbBlockEnd
  0
BLOCK
  5
1FC
330
1FA
100
AcDbEntity
  8
0
100
AcDbBlockBegin
  2
Block_77
 70
     0
 10
0.0
 20
0.0
 30
0.0
  3
Block_77
  1

  0
LINE
  5
1FE
330
1FA
100
AcDbEntity
  8
Ebene 1
 62
   254
370
    25
100
AcDbLine
 10
188.7177365743721
 20
95.40852838661477
 30
0.0
 11
188.7177365743721
 21
95.40852838661477
 31
0.0
  0
ENDBLK
  5
1FD
330
1FA
100
AcDbEntity
  8
0
100
AcDbBlockEnd
  0
BLOCK
  5
201
330
1FF
100
AcDbEntity
  8
0
100
AcDbBlockBegin
  2
Block_78
 70
     0
 10
0.0
 20
0.0
 30
0.0
  3
Block_78
  1

  0
LINE
  5
203
330
1FF
100
AcDbEntity
  8
Ebene 1
 62
   254
370
    25
100
AcDbLine
 10
188.7177365743721
 20
95.40852838661477
 30
0.0
 11
188.7177365743721
 21
95.40852838661477
 31
0.0
  0
ENDBLK
  5
202
330
1FF
100
AcDbEntity
  8
0
100
AcDbBlockEnd
  0
BLOCK
  5
206
330
204
100
AcDbEntity
  8
0
100
AcDbBlockBegin
  2
Block_79
 70
     0
 10
0.0
 20
0.0
 30
0.0
  3
Block_79
  1

  0
LINE
  5
208
330
204
100
AcDbEntity
  8
Ebene 1
 62
   254
370
    25
100
AcDbLine
 10
185.8019617649071
 20
95.40852838661477
 30
0.0
 11
185.8019617649071
 21
95.40852838661477
 31
0.0
  0
ENDBLK
  5
207
330
204
100
AcDbEntity
  8
0
100
AcDbBlockEnd
  0
BLOCK
  5
20B
330
209
100
AcDbEntity
  8
0
100
AcDbBlockBegin
  2
Block_80
 70
     0
 10
0.0
 20
0.0
 30
0.0
  3
Block_80
  1

  0
LINE
  5
20D
330
209
100
AcDbEntity
  8
Ebene 1
 62
   254
370
    25
100
AcDbLine
 10
188.7177365743721
 20
105.1277777514958
 30
0.0
 11
188.7177365743721
 21
105.1277777514958
 31
0.0
  0
ENDBLK
  5
20C
330
209
100
AcDbEntity
  8
0
100
AcDbBlockEnd
  0
BLOCK
  5
210
330
20E
100
AcDbEntity
  8
0
100
AcDbBlockBegin
  2
Block_81
 70
     0
 10
0.0
 20
0.0
 30
0.0
  3
Block_81
  1

  0
LINE
  5
212
330
20E
100
AcDbEntity
  8
Ebene 1
 62
   254
370
    25
100
AcDbLine
 10
188.7177365743721
 20
105.1277777514958
 30
0.0
 11
188.7177365743721
 21
105.1277777514958
 31
0.0
  0
ENDBLK
  5
211
330
20E
100
AcDbEntity
  8
0
100
AcDbBlockEnd
  0
BLOCK
  5
215
330
213
100
AcDbEntity
  8
0
100
AcDbBlockBegin
  2
Block_82
 70
     0
 10
0.0
 20
0.0
 30
0.0
  3
Block_82
  1

  0
LINE
  5
217
330
213
100
AcDbEntity
  8
Ebene 1
 62
   254
370
    25
100
AcDbLine
 10
169.2792378446087
 20
114.8470271163769
 30
0.0
 11
169.2792378446087
 21
114.8470271163769
 31
0.0
  0
ENDBLK
  5
216
330
213
100
AcDbEntity
  8
0
100
AcDbBlockEnd
  0
BLOCK
  5
21A
330
218
100
AcDbEntity
  8
0
100
AcDbBlockBegin
  2
Block_83
 70
     0
 10
0.0
 20
0.0
 30
0.0
  3
Block_83
  1

  0
LINE
  5
21C
330
218
100
AcDbEntity
  8
Ebene 1
 62
   254
370
    25
100
AcDbLine
 10
169.2792378446087
 20
114.8470271163769
 30
0.0
 11
169.2792378446087
 21
114.8470271163769
 31
0.0
  0
ENDBLK
  5
21B
330
218
100
AcDbEntity
  8
0
100
AcDbBlockEnd
  0
BLOCK
  5
21F
330
21D
100
AcDbEntity
  8
0
100
AcDbBlockBegin
  2
Block_84
 70
     0
 10
0.0
 20
0.0
 30
0.0
  3
Block_84
  1

  0
LINE
  5
221
330
21D
100
AcDbEntity
  8
Ebene 1
 62
   254
370
    25
100
AcDbLine
 10
123.2082243972227
 20
114.8470271163769
 30
0.0
 11
123.2082243972227
 21
114.8470271163769
 31
0.0
  0
ENDBLK
  5
220
330
21D
100
AcDbEntity
  8
0
100
AcDbBlockEnd
  0
BLOCK
  5
224
330
222
100
AcDbEntity
  8
0
100
AcDbBlockBegin
  2
Block_85
 70
     0
 10
0.0
 20
0.0
 30
0.0
  3
Block_85
  1

  0
LINE
  5
226
330
222
100
AcDbEntity
  8
Ebene 1
 62
   254
370
    25
100
AcDbLine
 10
123.2082243972227
 20
114.8470271163769
 30
0.0
 11
123.2082243972227
 21
114.8470271163769
 31
0.0
  0
ENDBLK
  5
225
330
222
100
AcDbEntity
  8
0
100
AcDbBlockEnd
  0
BLOCK
  5
229
330
227
100
AcDbEntity
  8
0
100
AcDbBlockBegin
  2
Block_86
 70
     0
 10
0.0
 20
0.0
 30
0.0
  3
Block_86
  1

  0
LINE
  5
22B
330
227
100
AcDbEntity
  8
Ebene 1
 62
   254
370
    25
100
AcDbLine
 10
108.3211522402573
 20
105.3664267153002
 30
0.0
 11
108.3211522402573
 21
105.3664267153002
 31
0.0
  0
ENDBLK
  5
22A
330
227
100
AcDbEntity
  8
0
100
AcDbBlockEnd
  0
BLOCK
  5
22E
330
22C
100
AcDbEntity
  8
0
100
AcDbBlockBegin
  2
Block_87
 70
     0
 10
0.0
 20
0.0
 30
0.0
  3
Block_87
  1

  0
LINE
  5
230
330
22C
100
AcDbEntity
  8
Ebene 1
 62
   254
370
    25
100
AcDbLine
 10
108.3211522402573
 20
105.3664267153002
 30
0.0
 11
108.3211522402573
 21
105.3664267153002
 31
0.0
  0
ENDBLK
  5
22F
330
22C
100
AcDbEntity
  8
0
100
AcDbBlockEnd
  0
BLOCK
  5
233
330
231
100
AcDbEntity
  8
0
100
AcDbBlockBegin
  2
Block_88
 70
     0
 10
0.0
 20
0.0
 30
0.0
  3
Block_88
  1

  0
LINE
  5
235
330
231
100
AcDbEntity
  8
Ebene 1
 62
   254
370
    25
100
AcDbLine
 10
112.0179312850669
 20
97.43865847011164
 30
0.0
 11
112.0179312850669
 21
97.43865847011164
 31
0.0
  0
ENDBLK
  5
234
330
231
100
AcDbEntity
  8
0
100
AcDbBlockEnd
  0
BLOCK
  5
238
330
236
100
AcDbEntity
  8
0
100
AcDbBlockBegin
  2
Block_89
 70
     0
 10
0.0
 20
0.0
 30
0.0
  3
Block_89
  1

  0
LINE
  5
23A
330
236
100
AcDbEntity
  8
Ebene 1
 62
   254
370
    25
100
AcDbLine
 10
112.0179312850669
 20
97.43865847011164
 30
0.0
 11
112.0179312850669
 21
97.43865847011164
 31
0.0
  0
ENDBLK
  5
239
330
236
100
AcDbEntity
  8
0
100
AcDbBlockEnd
  0
BLOCK
  5
23D
330
23B
100
AcDbEntity
  8
0
100
AcDbBlockBegin
  2
Block_90
 70
     0
 10
0.0
 20
0.0
 30
0.0
  3
Block_90
  1

  0
LINE
  5
23F
330
23B
100
AcDbEntity
  8
Ebene 1
 62
   254
370
    25
100
AcDbLine
 10
112.6799060719856
 20
98.12011836552358
 30
0.0
 11
112.6799060719856
 21
98.12011836552358
 31
0.0
  0
ENDBLK
  5
23E
330
23B
100
AcDbEntity
  8
0
100
AcDbBlockEnd
  0
BLOCK
  5
242
330
240
100
AcDbEntity
  8
0
100
AcDbBlockBegin
  2
Block_91
 70
     0
 10
0.0
 20
0.0
 30
0.0
  3
Block_91
  1

  0
LINE
  5
244
330
240
100
AcDbEntity
  8
Ebene 1
 62
   254
370
    25
100
AcDbLine
 10
112.6799060719856
 20
98.12011836552358
 30
0.0
 11
112.6799060719856
 21
98.12011836552358
 31
0.0
  0
ENDBLK
  5
243
330
240
100
AcDbEntity
  8
0
100
AcDbBlockEnd
  0
BLOCK
  5
247
330
245
100
AcDbEntity
  8
0
100
AcDbBlockBegin
  2
Block_92
 70
     0
 10
0.0
 20
0.0
 30
0.0
  3
Block_92
  1

  0
LINE
  5
249
330
245
100
AcDbEntity
  8
Ebene 1
 62
   254
370
    25
100
AcDbLine
 10
113.6518310084737
 20
103.8521884343115
 30
0.0
 11
113.6518310084737
 21
103.8521884343115
 31
0.0
  0
ENDBLK
  5
248
330
245
100
AcDbEntity
  8
0
100
AcDbBlockEnd
  0
BLOCK
  5
24C
330
24A
100
AcDbEntity
  8
0
100
AcDbBlockBegin
  2
Block_93
 70
     0
 10
0.0
 20
0.0
 30
0.0
  3
Block_93
  1

  0
LINE
  5
24E
330
24A
100
AcDbEntity
  8
Ebene 1
 62
   254
370
    25
100
AcDbLine
 10
113.6518310084737
 20
103.8521884343115
 30
0.0
 11
113.6518310084737
 21
103.8521884343115
 31
0.0
  0
ENDBLK
  5
24D
330
24A
100
AcDbEntity
  8
0
100
AcDbBlockEnd
  0
BLOCK
  5
251
330
24F
100
AcDbEntity
  8
0
100
AcDbBlockBegin
  2
Block_94
 70
     0
 10
0.0
 20
0.0
 30
0.0
  3
Block_94
  1

  0
LINE
  5
253
330
24F
100
AcDbEntity
  8
Ebene 1
 62
   254
370
    25
100
AcDbLine
 10
127.7456412221426
 20
110.4242400695282
 30
0.0
 11
127.7456412221426
 21
110.4242400695282
 31
0.0
  0
ENDBLK
  5
252
330
24F
100
AcDbEntity
  8
0
100
AcDbBlockEnd
  0
BLOCK
  5
256
330
254
100
AcDbEntity
  8
0
100
AcDbBlockBegin
  2
Block_95
 70
     0
 10
0.0
 20
0.0
 30
0.0
  3
Block_95
  1

  0
LINE
  5
258
330
254
100
AcDbEntity
  8
Ebene 1
 62
   254
370
    25
100
AcDbLine
 10
127.7456412221426
 20
110.4242400695282
 30
0.0
 11
127.7456412221426
 21
110.4242400695282
 31
0.0
  0
ENDBLK
  5
257
330
254
100
AcDbEntity
  8
0
100
AcDbBlockEnd
  0
BLOCK
  5
25B
330
259
100
AcDbEntity
  8
0
100
AcDbBlockBegin
  2
Block_96
 70
     0
 10
0.0
 20
0.0
 30
0.0
  3
Block_96
  1

  0
LINE
  5
25D
330
259
100
AcDbEntity
  8
Ebene 1
 62
   254
370
    25
100
AcDbLine
 10
128.8546749355853
 20
108.0459095959716
 30
0.0
 11
128.8546749355853
 21
108.0459095959716
 31
0.0
  0
ENDBLK
  5
25C
330
259
100
AcDbEntity
  8
0
100
AcDbBlockEnd
  0
BLOCK
  5
260
330
25E
100
AcDbEntity
  8
0
100
AcDbBlockBegin
  2
Block_97
 70
     0
 10
0.0
 20
0.0
 30
0.0
  3
Block_97
  1

  0
LINE
  5
262
330
25E
100
AcDbEntity
  8
Ebene 1
 62
   254
370
    25
100
AcDbLine
 10
128.8546749355853
 20
108.0459095959716
 30
0.0
 11
128.8546749355853
 21
108.0459095959716
 31
0.0
  0
ENDBLK
  5
261
330
25E
100
AcDbEntity
  8
0
100
AcDbBlockEnd
  0
BLOCK
  5
265
330
263
100
AcDbEntity
  8
0
100
AcDbBlockBegin
  2
Block_98
 70
     0
 10
0.0
 20
0.0
 30
0.0
  3
Block_98
  1

  0
LINE
  5
267
330
263
100
AcDbEntity
  8
Ebene 1
 62
   254
370
    25
100
AcDbLine
 10
126.123999206687
 20
106.7725745916483
 30
0.0
 11
126.123999206687
 21
106.7725745916483
 31
0.0
  0
ENDBLK
  5
266
330
263
100
AcDbEntity
  8
0
100
AcDbBlockEnd
  0
BLOCK
  5
26A
330
268
100
AcDbEntity
  8
0
100
AcDbBlockBegin
  2
Block_99
 70
     0
 10
0.0
 20
0.0
 30
0.0
  3
Block_99
  1

  0
LINE
  5
26C
330
268
100
AcDbEntity
  8
Ebene 1
 62
   254
370
    25
100
AcDbLine
 10
126.123999206687
 20
106.7725745916483
 30
0.0
 11
126.123999206687
 21
106.7725745916483
 31
0.0
  0
ENDBLK
  5
26B
330
268
100
AcDbEntity
  8
0
100
AcDbBlockEnd
  0
BLOCK
  5
26F
330
26D
100
AcDbEntity
  8
0
100
AcDbBlockBegin
  2
Block_100
 70
     0
 10
0.0
 20
0.0
 30
0.0
  3
Block_100
  1

  0
LINE
  5
271
330
26D
100
AcDbEntity
  8
Ebene 1
 62
   254
370
    25
100
AcDbLine
 10
127.0276563065293
 20
104.834675687269
 30
0.0
 11
127.0276563065293
 21
104.834675687269
 31
0.0
  0
ENDBLK
  5
270
330
26D
100
AcDbEntity
  8
0
100
AcDbBlockEnd
  0
BLOCK
  5
274
330
272
100
AcDbEntity
  8
0
100
AcDbBlockBegin
  2
Block_101
 70
     0
 10
0.0
 20
0.0
 30
0.0
  3
Block_101
  1

  0
LINE
  5
276
330
272
100
AcDbEntity
  8
Ebene 1
 62
   254
370
    25
100
AcDbLine
 10
127.0276563065293
 20
104.834675687269
 30
0.0
 11
127.0276563065293
 21
104.834675687269
 31
0.0
  0
ENDBLK
  5
275
330
272
100
AcDbEntity
  8
0
100
AcDbBlockEnd
  0
BLOCK
  5
279
330
277
100
AcDbEntity
  8
0
100
AcDbBlockBegin
  2
Block_102
 70
     0
 10
0.0
 20
0.0
 30
0.0
  3
Block_102
  1

  0
LINE
  5
27B
330
277
100
AcDbEntity
  8
Ebene 1
 62
   254
370
    25
100
AcDbLine
 10
128.8774688970734
 20
105.6972574643912
 30
0.0
 11
128.8774688970734
 21
105.6972574643912
 31
0.0
  0
ENDBLK
  5
27A
330
277
100
AcDbEntity
  8
0
100
AcDbBlockEnd
  0
BLOCK
  5
27E
330
27C
100
AcDbEntity
  8
0
100
AcDbBlockBegin
  2
Block_103
 70
     0
 10
0.0
 20
0.0
 30
0.0
  3
Block_103
  1

  0
LINE
  5
280
330
27C
100
AcDbEntity
  8
Ebene 1
 62
   254
370
    25
100
AcDbLine
 10
128.8774688970734
 20
105.6972574643912
 30
0.0
 11
128.8774688970734
 21
105.6972574643912
 31
0.0
  0
ENDBLK
  5
27F
330
27C
100
AcDbEntity
  8
0
100
AcDbBlockEnd
  0
BLOCK
  5
283
330
281
100
AcDbEntity
  8
0
100
AcDbBlockBegin
  2
Block_104
 70
     0
 10
0.0
 20
0.0
 30
0.0
  3
Block_104
  1

  0
LINE
  5
285
330
281
100
AcDbEntity
  8
Ebene 1
 62
   254
370
    25
100
AcDbLine
 10
129.945427287796
 20
103.4070133046702
 30
0.0
 11
129.945427287796
 21
103.4070133046702
 31
0.0
  0
ENDBLK
  5
284
330
281
100
AcDbEntity
  8
0
100
AcDbBlockEnd
  0
BLOCK
  5
288
330
286
100
AcDbEntity
  8
0
100
AcDbBlockBegin
  2
Block_105
 70
     0
 10
0.0
 20
0.0
 30
0.0
  3
Block_105
  1

  0
LINE
  5
28A
330
286
100
AcDbEntity
  8
Ebene 1
 62
   254
370
    25
100
AcDbLine
 10
129.945427287796
 20
103.4070133046702
 30
0.0
 11
129.945427287796
 21
103.4070133046702
 31
0.0
  0
ENDBLK
  5
289
330
286
100
AcDbEntity
  8
0
100
AcDbBlockEnd
  0
BLOCK
  5
28D
330
28B
100
AcDbEntity
  8
0
100
AcDbBlockBegin
  2
Block_106
 70
     0
 10
0.0
 20
0.0
 30
0.0
  3
Block_106
  1

  0
LINE
  5
28F
330
28B
100
AcDbEntity
  8
Ebene 1
 62
   254
370
    25
100
AcDbLine
 10
126.5981473620497
 20
101.8461510413061
 30
0.0
 11
126.5981473620497
 21
101.8461510413061
 31
0.0
  0
ENDBLK
  5
28E
330
28B
100
AcDbEntity
  8
0
100
AcDbBlockEnd
  0
BLOCK
  5
292
330
290
100
AcDbEntity
  8
0
100
AcDbBlockBegin
  2
Block_107
 70
     0
 10
0.0
 20
0.0
 30
0.0
  3
Block_107
  1

  0
LINE
  5
294
330
290
100
AcDbEntity
  8
Ebene 1
 62
   254
370
    25
100
AcDbLine
 10
126.5981473620497
 20
101.8461510413061
 30
0.0
 11
126.5981473620497
 21
101.8461510413061
 31
0.0
  0
ENDBLK
  5
293
330
290
100
AcDbEntity
  8
0
100
AcDbBlockEnd
  0
BLOCK
  5
297
330
295
100
AcDbEntity
  8
0
100
AcDbBlockBegin
  2
Block_108
 70
     0
 10
0.0
 20
0.0
 30
0.0
  3
Block_108
  1

  0
LINE
  5
299
330
295
100
AcDbEntity
  8
Ebene 1
 62
   254
370
    25
100
AcDbLine
 10
127.0677014785723
 20
100.7785379231873
 30
0.0
 11
127.0677014785723
 21
100.7785379231873
 31
0.0
  0
ENDBLK
  5
298
330
295
100
AcDbEntity
  8
0
100
AcDbBlockEnd
  0
BLOCK
  5
29C
330
29A
100
AcDbEntity
  8
0
100
AcDbBlockBegin
  2
Block_109
 70
     0
 10
0.0
 20
0.0
 30
0.0
  3
Block_109
  1

  0
LINE
  5
29E
330
29A
100
AcDbEntity
  8
Ebene 1
 62
   254
370
    25
100
AcDbLine
 10
127.0677014785723
 20
100.7785379231873
 30
0.0
 11
127.0677014785723
 21
100.7785379231873
 31
0.0
  0
ENDBLK
  5
29D
330
29A
100
AcDbEntity
  8
0
100
AcDbBlockEnd
  0
BLOCK
  5
2A1
330
29F
100
AcDbEntity
  8
0
100
AcDbBlockBegin
  2
Block_110
 70
     0
 10
0.0
 20
0.0
 30
0.0
  3
Block_110
  1

  0
LINE
  5
2A3
330
29F
100
AcDbEntity
  8
Ebene 1
 62
   254
370
    25
100
AcDbLine
 10
171.2555212929044
 20
96.38045332310289
 30
0.0
 11
171.2555212929044
 21
96.38045332310289
 31
0.0
  0
ENDBLK
  5
2A2
330
29F
100
AcDbEntity
  8
0
100
AcDbBlockEnd
  0
BLOCK
  5
2A6
330
2A4
100
AcDbEntity
  8
0
100
AcDbBlockBegin
  2
Block_111
 70
     0
 10
0.0
 20
0.0
 30
0.0
  3
Block_111
  1

  0
LINE
  5
2A8
330
2A4
100
AcDbEntity
  8
Ebene 1
 62
   254
370
    25
100
AcDbLine
 10
171.2555212929044
 20
96.38045332310289
 30
0.0
 11
171.2555212929044
 21
96.38045332310289
 31
0.0
  0
ENDBLK
  5
2A7
330
2A4
100
AcDbEntity
  8
0
100
AcDbBlockEnd
  0
ENDSEC
  0
SECTION
  2
ENTITIES
  0
INSERT
  5
7A
330
70
100
AcDbEntity
  8
Ebene 1
100
AcDbBlockReference
  2
Block_0
 10
0.0
 20
0.0
 30
0.0
  0
INSERT
  5
7F
330
70
100
AcDbEntity
  8
Ebene 1
100
AcDbBlockReference
  2
Block_1
 10
0.0
 20
0.0
 30
0.0
  0
INSERT
  5
84
330
70
100
AcDbEntity
  8
Ebene 1
100
AcDbBlockReference
  2
Block_2
 10
0.0
 20
0.0
 30
0.0
  0
INSERT
  5
89
330
70
100
AcDbEntity
  8
Ebene 1
100
AcDbBlockReference
  2
Block_3
 10
0.0
 20
0.0
 30
0.0
  0
INSERT
  5
8E
330
70
100
AcDbEntity
  8
Ebene 1
100
AcDbBlockReference
  2
Block_4
 10
0.0
 20
0.0
 30
0.0
  0
INSERT
  5
93
330
70
100
AcDbEntity
  8
Ebene 1
100
AcDbBlockReference
  2
Block_5
 10
0.0
 20
0.0
 30
0.0
  0
INSERT
  5
98
330
70
100
AcDbEntity
  8
Ebene 1
100
AcDbBlockReference
  2
Block_6
 10
0.0
 20
0.0
 30
0.0
  0
INSERT
  5
9D
330
70
100
AcDbEntity
  8
Ebene 1
100
AcDbBlockReference
  2
Block_7
 10
0.0
 20
0.0
 30
0.0
  0
INSERT
  5
A2
330
70
100
AcDbEntity
  8
Ebene 1
100
AcDbBlockReference
  2
Block_8
 10
0.0
 20
0.0
 30
0.0
  0
INSERT
  5
A7
330
70
100
AcDbEntity
  8
Ebene 1
100
AcDbBlockReference
  2
Block_9
 10
0.0
 20
0.0
 30
0.0
  0
INSERT
  5
AC
330
70
100
AcDbEntity
  8
Ebene 1
100
AcDbBlockReference
  2
Block_10
 10
0.0
 20
0.0
 30
0.0
  0
INSERT
  5
B1
330
70
100
AcDbEntity
  8
Ebene 1
100
AcDbBlockReference
  2
Block_11
 10
0.0
 20
0.0
 30
0.0
  0
INSERT
  5
B6
330
70
100
AcDbEntity
  8
Ebene 1
100
AcDbBlockReference
  2
Block_12
 10
0.0
 20
0.0
 30
0.0
  0
INSERT
  5
BB
330
70
100
AcDbEntity
  8
Ebene 1
100
AcDbBlockReference
  2
Block_13
 10
0.0
 20
0.0
 30
0.0
  0
INSERT
  5
C0
330
70
100
AcDbEntity
  8
Ebene 1
100
AcDbBlockReference
  2
Block_14
 10
0.0
 20
0.0
 30
0.0
  0
INSERT
  5
C5
330
70
100
AcDbEntity
  8
Ebene 1
100
AcDbBlockReference
  2
Block_15
 10
0.0
 20
0.0
 30
0.0
  0
INSERT
  5
CA
330
70
100
AcDbEntity
  8
Ebene 1
100
AcDbBlockReference
  2
Block_16
 10
0.0
 20
0.0
 30
0.0
  0
INSERT
  5
CF
330
70
100
AcDbEntity
  8
Ebene 1
100
AcDbBlockReference
  2
Block_17
 10
0.0
 20
0.0
 30
0.0
  0
INSERT
  5
D4
330
70
100
AcDbEntity
  8
Ebene 1
100
AcDbBlockReference
  2
Block_18
 10
0.0
 20
0.0
 30
0.0
  0
INSERT
  5
D9
330
70
100
AcDbEntity
  8
Ebene 1
100
AcDbBlockReference
  2
Block_19
 10
0.0
 20
0.0
 30
0.0
  0
INSERT
  5
DE
330
70
100
AcDbEntity
  8
Ebene 1
100
AcDbBlockReference
  2
Block_20
 10
0.0
 20
0.0
 30
0.0
  0
INSERT
  5
E3
330
70
100
AcDbEntity
  8
Ebene 1
100
AcDbBlockReference
  2
Block_21
 10
0.0
 20
0.0
 30
0.0
  0
INSERT
  5
E8
330
70
100
AcDbEntity
  8
Ebene 1
100
AcDbBlockReference
  2
Block_22
 10
0.0
 20
0.0
 30
0.0
  0
INSERT
  5
ED
330
70
100
AcDbEntity
  8
Ebene 1
100
AcDbBlockReference
  2
Block_23
 10
0.0
 20
0.0
 30
0.0
  0
INSERT
  5
F2
330
70
100
AcDbEntity
  8
Ebene 1
100
AcDbBlockReference
  2
Block_24
 10
0.0
 20
0.0
 30
0.0
  0
INSERT
  5
F7
330
70
100
AcDbEntity
  8
Ebene 1
100
AcDbBlockReference
  2
Block_25
 10
0.0
 20
0.0
 30
0.0
  0
INSERT
  5
FC
330
70
100
AcDbEntity
  8
Ebene 1
100
AcDbBlockReference
  2
Block_26
 10
0.0
 20
0.0
 30
0.0
  0
INSERT
  5
101
330
70
100
AcDbEntity
  8
Ebene 1
100
AcDbBlockReference
  2
Block_27
 10
0.0
 20
0.0
 30
0.0
  0
INSERT
  5
106
330
70
100
AcDbEntity
  8
Ebene 1
100
AcDbBlockReference
  2
Block_28
 10
0.0
 20
0.0
 30
0.0
  0
INSERT
  5
10B
330
70
100
AcDbEntity
  8
Ebene 1
100
AcDbBlockReference
  2
Block_29
 10
0.0
 20
0.0
 30
0.0
  0
INSERT
  5
110
330
70
100
AcDbEntity
  8
Ebene 1
100
AcDbBlockReference
  2
Block_30
 10
0.0
 20
0.0
 30
0.0
  0
INSERT
  5
115
330
70
100
AcDbEntity
  8
Ebene 1
100
AcDbBlockReference
  2
Block_31
 10
0.0
 20
0.0
 30
0.0
  0
INSERT
  5
11A
330
70
100
AcDbEntity
  8
Ebene 1
100
AcDbBlockReference
  2
Block_32
 10
0.0
 20
0.0
 30
0.0
  0
INSERT
  5
11F
330
70
100
AcDbEntity
  8
Ebene 1
100
AcDbBlockReference
  2
Block_33
 10
0.0
 20
0.0
 30
0.0
  0
INSERT
  5
124
330
70
100
AcDbEntity
  8
Ebene 1
100
AcDbBlockReference
  2
Block_34
 10
0.0
 20
0.0
 30
0.0
  0
INSERT
  5
129
330
70
100
AcDbEntity
  8
Ebene 1
100
AcDbBlockReference
  2
Block_35
 10
0.0
 20
0.0
 30
0.0
  0
INSERT
  5
12E
330
70
100
AcDbEntity
  8
Ebene 1
100
AcDbBlockReference
  2
Block_36
 10
0.0
 20
0.0
 30
0.0
  0
INSERT
  5
133
330
70
100
AcDbEntity
  8
Ebene 1
100
AcDbBlockReference
  2
Block_37
 10
0.0
 20
0.0
 30
0.0
  0
INSERT
  5
138
330
70
100
AcDbEntity
  8
Ebene 1
100
AcDbBlockReference
  2
Block_38
 10
0.0
 20
0.0
 30
0.0
  0
INSERT
  5
13D
330
70
100
AcDbEntity
  8
Ebene 1
100
AcDbBlockReference
  2
Block_39
 10
0.0
 20
0.0
 30
0.0
  0
INSERT
  5
142
330
70
100
AcDbEntity
  8
Ebene 1
100
AcDbBlockReference
  2
Block_40
 10
0.0
 20
0.0
 30
0.0
  0
INSERT
  5
147
330
70
100
AcDbEntity
  8
Ebene 1
100
AcDbBlockReference
  2
Block_41
 10
0.0
 20
0.0
 30
0.0
  0
INSERT
  5
14C
330
70
100
AcDbEntity
  8
Ebene 1
100
AcDbBlockReference
  2
Block_42
 10
0.0
 20
0.0
 30
0.0
  0
INSERT
  5
151
330
70
100
AcDbEntity
  8
Ebene 1
100
AcDbBlockReference
  2
Block_43
 10
0.0
 20
0.0
 30
0.0
  0
INSERT
  5
156
330
70
100
AcDbEntity
  8
Ebene 1
100
AcDbBlockReference
  2
Block_44
 10
0.0
 20
0.0
 30
0.0
  0
INSERT
  5
15B
330
70
100
AcDbEntity
  8
Ebene 1
100
AcDbBlockReference
  2
Block_45
 10
0.0
 20
0.0
 30
0.0
  0
INSERT
  5
160
330
70
100
AcDbEntity
  8
Ebene 1
100
AcDbBlockReference
  2
Block_46
 10
0.0
 20
0.0
 30
0.0
  0
INSERT
  5
165
330
70
100
AcDbEntity
  8
Ebene 1
100
AcDbBlockReference
  2
Block_47
 10
0.0
 20
0.0
 30
0.0
  0
INSERT
  5
16A
330
70
100
AcDbEntity
  8
Ebene 1
100
AcDbBlockReference
  2
Block_48
 10
0.0
 20
0.0
 30
0.0
  0
INSERT
  5
16F
330
70
100
AcDbEntity
  8
Ebene 1
100
AcDbBlockReference
  2
Block_49
 10
0.0
 20
0.0
 30
0.0
  0
INSERT
  5
174
330
70
100
AcDbEntity
  8
Ebene 1
100
AcDbBlockReference
  2
Block_50
 10
0.0
 20
0.0
 30
0.0
  0
INSERT
  5
179
330
70
100
AcDbEntity
  8
Ebene 1
100
AcDbBlockReference
  2
Block_51
 10
0.0
 20
0.0
 30
0.0
  0
INSERT
  5
17E
330
70
100
AcDbEntity
  8
Ebene 1
100
AcDbBlockReference
  2
Block_52
 10
0.0
 20
0.0
 30
0.0
  0
INSERT
  5
183
330
70
100
AcDbEntity
  8
Ebene 1
100
AcDbBlockReference
  2
Block_53
 10
0.0
 20
0.0
 30
0.0
  0
INSERT
  5
188
330
70
100
AcDbEntity
  8
Ebene 1
100
AcDbBlockReference
  2
Block_54
 10
0.0
 20
0.0
 30
0.0
  0
INSERT
  5
18D
330
70
100
AcDbEntity
  8
Ebene 1
100
AcDbBlockReference
  2
Block_55
 10
0.0
 20
0.0
 30
0.0
  0
INSERT
  5
192
330
70
100
AcDbEntity
  8
Ebene 1
100
AcDbBlockReference
  2
Block_56
 10
0.0
 20
0.0
 30
0.0
  0
INSERT
  5
197
330
70
100
AcDbEntity
  8
Ebene 1
100
AcDbBlockReference
  2
Block_57
 10
0.0
 20
0.0
 30
0.0
  0
INSERT
  5
19C
330
70
100
AcDbEntity
  8
Ebene 1
100
AcDbBlockReference
  2
Block_58
 10
0.0
 20
0.0
 30
0.0
  0
INSERT
  5
1A1
330
70
100
AcDbEntity
  8
Ebene 1
100
AcDbBlockReference
  2
Block_59
 10
0.0
 20
0.0
 30
0.0
  0
INSERT
  5
1A6
330
70
100
AcDbEntity
  8
Ebene 1
100
AcDbBlockReference
  2
Block_60
 10
0.0
 20
0.0
 30
0.0
  0
INSERT
  5
1AB
330
70
100
AcDbEntity
  8
Ebene 1
100
AcDbBlockReference
  2
Block_61
 10
0.0
 20
0.0
 30
0.0
  0
INSERT
  5
1B0
330
70
100
AcDbEntity
  8
Ebene 1
100
AcDbBlockReference
  2
Block_62
 10
0.0
 20
0.0
 30
0.0
  0
INSERT
  5
1B5
330
70
100
AcDbEntity
  8
Ebene 1
100
AcDbBlockReference
  2
Block_63
 10
0.0
 20
0.0
 30
0.0
  0
INSERT
  5
1BA
330
70
100
AcDbEntity
  8
Ebene 1
100
AcDbBlockReference
  2
Block_64
 10
0.0
 20
0.0
 30
0.0
  0
INSERT
  5
1BF
330
70
100
AcDbEntity
  8
Ebene 1
100
AcDbBlockReference
  2
Block_65
 10
0.0
 20
0.0
 30
0.0
  0
INSERT
  5
1C4
330
70
100
AcDbEntity
  8
Ebene 1
100
AcDbBlockReference
  2
Block_66
 10
0.0
 20
0.0
 30
0.0
  0
INSERT
  5
1C9
330
70
100
AcDbEntity
  8
Ebene 1
100
AcDbBlockReference
  2
Block_67
 10
0.0
 20
0.0
 30
0.0
  0
INSERT
  5
1CE
330
70
100
AcDbEntity
  8
Ebene 1
100
AcDbBlockReference
  2
Block_68
 10
0.0
 20
0.0
 30
0.0
  0
INSERT
  5
1D3
330
70
100
AcDbEntity
  8
Ebene 1
100
AcDbBlockReference
  2
Block_69
 10
0.0
 20
0.0
 30
0.0
  0
INSERT
  5
1D8
330
70
100
AcDbEntity
  8
Ebene 1
100
AcDbBlockReference
  2
Block_70
 10
0.0
 20
0.0
 30
0.0
  0
INSERT
  5
1DD
330
70
100
AcDbEntity
  8
Ebene 1
100
AcDbBlockReference
  2
Block_71
 10
0.0
 20
0.0
 30
0.0
  0
INSERT
  5
1E2
330
70
100
AcDbEntity
  8
Ebene 1
100
AcDbBlockReference
  2
Block_72
 10
0.0
 20
0.0
 30
0.0
  0
INSERT
  5
1E7
330
70
100
AcDbEntity
  8
Ebene 1
100
AcDbBlockReference
  2
Block_73
 10
0.0
 20
0.0
 30
0.0
  0
INSERT
  5
1EC
330
70
100
AcDbEntity
  8
Ebene 1
100
AcDbBlockReference
  2
Block_74
 10
0.0
 20
0.0
 30
0.0
  0
INSERT
  5
1F1
330
70
100
AcDbEntity
  8
Ebene 1
100
AcDbBlockReference
  2
Block_75
 10
0.0
 20
0.0
 30
0.0
  0
INSERT
  5
1F6
330
70
100
AcDbEntity
  8
Ebene 1
100
AcDbBlockReference
  2
Block_76
 10
0.0
 20
0.0
 30
0.0
  0
INSERT
  5
1FB
330
70
100
AcDbEntity
  8
Ebene 1
100
AcDbBlockReference
  2
Block_77
 10
0.0
 20
0.0
 30
0.0
  0
INSERT
  5
200
330
70
100
AcDbEntity
  8
Ebene 1
100
AcDbBlockReference
  2
Block_78
 10
0.0
 20
0.0
 30
0.0
  0
INSERT
  5
205
330
70
100
AcDbEntity
  8
Ebene 1
100
AcDbBlockReference
  2
Block_79
 10
0.0
 20
0.0
 30
0.0
  0
INSERT
  5
20A
330
70
100
AcDbEntity
  8
Ebene 1
100
AcDbBlockReference
  2
Block_80
 10
0.0
 20
0.0
 30
0.0
  0
INSERT
  5
20F
330
70
100
AcDbEntity
  8
Ebene 1
100
AcDbBlockReference
  2
Block_81
 10
0.0
 20
0.0
 30
0.0
  0
INSERT
  5
214
330
70
100
AcDbEntity
  8
Ebene 1
100
AcDbBlockReference
  2
Block_82
 10
0.0
 20
0.0
 30
0.0
  0
INSERT
  5
219
330
70
100
AcDbEntity
  8
Ebene 1
100
AcDbBlockReference
  2
Block_83
 10
0.0
 20
0.0
 30
0.0
  0
INSERT
  5
21E
330
70
100
AcDbEntity
  8
Ebene 1
100
AcDbBlockReference
  2
Block_84
 10
0.0
 20
0.0
 30
0.0
  0
INSERT
  5
223
330
70
100
AcDbEntity
  8
Ebene 1
100
AcDbBlockReference
  2
Block_85
 10
0.0
 20
0.0
 30
0.0
  0
INSERT
  5
228
330
70
100
AcDbEntity
  8
Ebene 1
100
AcDbBlockReference
  2
Block_86
 10
0.0
 20
0.0
 30
0.0
  0
INSERT
  5
22D
330
70
100
AcDbEntity
  8
Ebene 1
100
AcDbBlockReference
  2
Block_87
 10
0.0
 20
0.0
 30
0.0
  0
INSERT
  5
232
330
70
100
AcDbEntity
  8
Ebene 1
100
AcDbBlockReference
  2
Block_88
 10
0.0
 20
0.0
 30
0.0
  0
INSERT
  5
237
330
70
100
AcDbEntity
  8
Ebene 1
100
AcDbBlockReference
  2
Block_89
 10
0.0
 20
0.0
 30
0.0
  0
INSERT
  5
23C
330
70
100
AcDbEntity
  8
Ebene 1
100
AcDbBlockReference
  2
Block_90
 10
0.0
 20
0.0
 30
0.0
  0
INSERT
  5
241
330
70
100
AcDbEntity
  8
Ebene 1
100
AcDbBlockReference
  2
Block_91
 10
0.0
 20
0.0
 30
0.0
  0
INSERT
  5
246
330
70
100
AcDbEntity
  8
Ebene 1
100
AcDbBlockReference
  2
Block_92
 10
0.0
 20
0.0
 30
0.0
  0
INSERT
  5
24B
330
70
100
AcDbEntity
  8
Ebene 1
100
AcDbBlockReference
  2
Block_93
 10
0.0
 20
0.0
 30
0.0
  0
INSERT
  5
250
330
70
100
AcDbEntity
  8
Ebene 1
100
AcDbBlockReference
  2
Block_94
 10
0.0
 20
0.0
 30
0.0
  0
INSERT
  5
255
330
70
100
AcDbEntity
  8
Ebene 1
100
AcDbBlockReference
  2
Block_95
 10
0.0
 20
0.0
 30
0.0
  0
INSERT
  5
25A
330
70
100
AcDbEntity
  8
Ebene 1
100
AcDbBlockReference
  2
Block_96
 10
0.0
 20
0.0
 30
0.0
  0
INSERT
  5
25F
330
70
100
AcDbEntity
  8
Ebene 1
100
AcDbBlockReference
  2
Block_97
 10
0.0
 20
0.0
 30
0.0
  0
INSERT
  5
264
330
70
100
AcDbEntity
  8
Ebene 1
100
AcDbBlockReference
  2
Block_98
 10
0.0
 20
0.0
 30
0.0
  0
INSERT
  5
269
330
70
100
AcDbEntity
  8
Ebene 1
100
AcDbBlockReference
  2
Block_99
 10
0.0
 20
0.0
 30
0.0
  0
INSERT
  5
26E
330
70
100
AcDbEntity
  8
Ebene 1
100
AcDbBlockReference
  2
Block_100
 10
0.0
 20
0.0
 30
0.0
  0
INSERT
  5
273
330
70
100
AcDbEntity
  8
Ebene 1
100
AcDbBlockReference
  2
Block_101
 10
0.0
 20
0.0
 30
0.0
  0
INSERT
  5
278
330
70
100
AcDbEntity
  8
Ebene 1
100
AcDbBlockReference
  2
Block_102
 10
0.0
 20
0.0
 30
0.0
  0
INSERT
  5
27D
330
70
100
AcDbEntity
  8
Ebene 1
100
AcDbBlockReference
  2
Block_103
 10
0.0
 20
0.0
 30
0.0
  0
INSERT
  5
282
330
70
100
AcDbEntity
  8
Ebene 1
100
AcDbBlockReference
  2
Block_104
 10
0.0
 20
0.0
 30
0.0
  0
INSERT
  5
287
330
70
100
AcDbEntity
  8
Ebene 1
100
AcDbBlockReference
  2
Block_105
 10
0.0
 20
0.0
 30
0.0
  0
INSERT
  5
28C
330
70
100
AcDbEntity
  8
Ebene 1
100
AcDbBlockReference
  2
Block_106
 10
0.0
 20
0.0
 30
0.0
  0
INSERT
  5
291
330
70
100
AcDbEntity
  8
Ebene 1
100
AcDbBlockReference
  2
Block_107
 10
0.0
 20
0.0
 30
0.0
  0
INSERT
  5
296
330
70
100
AcDbEntity
  8
Ebene 1
100
AcDbBlockReference
  2
Block_108
 10
0.0
 20
0.0
 30
0.0
  0
INSERT
  5
29B
330
70
100
AcDbEntity
  8
Ebene 1
100
AcDbBlockReference
  2
Block_109
 10
0.0
 20
0.0
 30
0.0
  0
INSERT
  5
2A0
330
70
100
AcDbEntity
  8
Ebene 1
100
AcDbBlockReference
  2
Block_110
 10
0.0
 20
0.0
 30
0.0
  0
INSERT
  5
2A5
330
70
100
AcDbEntity
  8
Ebene 1
100
AcDbBlockReference
  2
Block_111
 10
0.0
 20
0.0
 30
0.0
  0
ENDSEC
  0
SECTION
  2
OBJECTS
  0
DICTIONARY
  5
C
330
0
100
AcDbDictionary
281
     1
  3
ACAD_COLOR
350
63
  3
ACAD_DETAILVIEWSTYLE
350
6A
  3
ACAD_GROUP
350
D
  3
ACAD_LAYOUT
350
62
  3
ACAD_MATERIAL
350
10
  3
ACAD_MLEADERSTYLE
350
66
  3
ACAD_MLINESTYLE
350
5F
  3
ACAD_PLOTSETTINGS
350
61
  3
ACAD_PLOTSTYLENAME
350
E
  3
ACAD_SCALELIST
350
42
  3
ACAD_SECTIONVIEWSTYLE
350
68
  3
ACAD_TABLESTYLE
350
64
  3
ACAD_VISUALSTYLE
350
29
  3
ACDB_RECOMPOSE_DATA
350
2B1
  3
AcDbVariableDictionary
350
2A9
  0
DICTIONARY
  5
63
102
{ACAD_REACTORS
330
C
102
}
330
C
100
AcDbDictionary
281
     1
  0
DICTIONARY
  5
6A
102
{ACAD_REACTORS
330
C
102
}
330
C
100
AcDbDictionary
281
     1
  3
Imperial24
350
6B
  0
DICTIONARY
  5
D
102
{ACAD_REACTORS
330
C
102
}
330
C
100
AcDbDictionary
281
     1
  0
DICTIONARY
  5
62
102
{ACAD_REACTORS
330
C
102
}
330
C
100
AcDbDictionary
281
     1
  3
Layout1
350
6F
  3
Layout2
350
77
  3
Model
350
73
  0
DICTIONARY
  5
10
102
{ACAD_REACTORS
330
C
102
}
330
C
100
AcDbDictionary
281
     1
  3
ByBlock
350
19
  3
ByLayer
350
11
  3
Global
350
21
  0
DICTIONARY
  5
66
102
{ACAD_REACTORS
330
C
102
}
330
C
100
AcDbDictionary
281
     1
  3
Standard
350
67
  0
DICTIONARY
  5
5F
102
{ACAD_REACTORS
330
C
102
}
330
C
100
AcDbDictionary
281
     1
  3
Standard
350
60
  0
DICTIONARY
  5
61
102
{ACAD_REACTORS
330
C
102
}
330
C
100
AcDbDictionary
281
     1
  0
ACDBDICTIONARYWDFLT
  5
E
102
{ACAD_REACTORS
330
C
102
}
330
C
100
AcDbDictionary
281
     1
  3
Normal
350
F
100
AcDbDictionaryWithDefault
340
F
  0
DICTIONARY
  5
42
102
{ACAD_REACTORS
330
C
102
}
330
C
100
AcDbDictionary
281
     1
  3
A0
350
43
  3
A1
350
44
  3
A2
350
45
  3
A3
350
46
  3
A4
350
47
  3
A5
350
48
  3
A6
350
49
  3
A7
350
4A
  3
A8
350
4B
  3
A9
350
4C
  3
B0
350
4D
  3
B1
350
4E
  3
B2
350
4F
  3
B3
350
50
  3
B4
350
51
  3
B5
350
52
  3
B6
350
53
  0
DICTIONARY
  5
68
102
{ACAD_REACTORS
330
C
102
}
330
C
100
AcDbDictionary
281
     1
  3
Imperial24
350
69
  0
DICTIONARY
  5
64
102
{ACAD_REACTORS
330
C
102
}
330
C
100
AcDbDictionary
281
     1
  3
Standard
350
65
  0
DICTIONARY
  5
29
102
{ACAD_REACTORS
330
C
102
}
330
C
100
AcDbDictionary
281
     1
  3
2dWireframe
350
2F
  3
Basic
350
2E
  3
Brighten
350
35
  3
ColorChange
350
39
  3
Conceptual
350
32
  3
Dim
350
34
  3
EdgeColorOff
350
41
  3
Facepattern
350
38
  3
Flat
350
2A
  3
FlatWithEdges
350
2B
  3
Gouraud
350
2C
  3
GouraudWithEdges
350
2D
  3
Hidden
350
31
  3
JitterOff
350
3F
  3
Linepattern
350
37
  3
OverhangOff
350
40
  3
Realistic
350
33
  3
Shaded
350
3E
  3
Shaded with edges
350
3D
  3
Shades of Gray
350
3A
  3
Sketchy
350
3B
  3
Thicken
350
36
  3
Wireframe
350
30
  3
X-Ray
350
3C
  0
XRECORD
  5
2B1
102
{ACAD_REACTORS
330
C
102
}
330
C
100
AcDbXrecord
280
     1
 90
        1
330
65
  0
DICTIONARY
  5
2A9
102
{ACAD_REACTORS
330
C
102
}
330
C
100
AcDbDictionary
281
     1
  3
CANNOSCALE
350
2AE
  3
CMLEADERSTYLE
350
2AB
  3
CTABLESTYLE
350
2AA
  3
CVIEWDETAILSTYLE
350
2AC
  3
CVIEWSECTIONSTYLE
350
2AD
  0
ACDBDETAILVIEWSTYLE
  5
6B
102
{ACAD_REACTORS
330
6A
102
}
330
6A
100
AcDbModelDocViewStyle
 70
     0
  3
Imperial24
290
     1
300
Imperial24
 90
        0
100
AcDbDetailViewStyle
 70
     0
 71
     0
 90
        3
 71
     1
340
55
 62
   256
 40
0.24
340
0
 62
   256
 40
0.24
300

 40
0.36
280
     3
 71
     2
340
5D
 90
       25
 62
   256
 71
     3
340
55
 62
   256
 40
0.24
 90
        1
 40
0.75
 90
        1
300
%<\AcVar ViewType \f "%tc1">% %<\AcVar ViewDetailId>%\PSCALE %<\AcVar ViewScale \f "%sn">%
 71
     4
340
5D
 90
       25
 62
   256
340
5D
 90
       25
 62
   256
280
     0
  0
LAYOUT
  5
6F
102
{ACAD_REACTORS
330
62
102
}
330
62
100
AcDbPlotSettings
  1

  2

  4

  6

 40
0.0
 41
0.0
 42
0.0
 43
0.0
 44
0.0
 45
0.0
 46
0.0
 47
0.0
 48
0.0
 49
0.0
140
0.0
141
0.0
142
1.0
143
1.0
 70
   688
 72
     0
 73
     0
 74
     5
  7

 75
    16
147
1.0
 76
     0
 77
     2
 78
   300
148
0.0
149
0.0
100
AcDbLayout
  1
Layout1
 70
     1
 71
     1
 10
0.0
 20
0.0
 11
12.0
 21
9.0
 12
0.0
 22
0.0
 32
0.0
 14
0.0
 24
0.0
 34
0.0
 15
0.0
 25
0.0
 35
0.0
146
0.0
 13
0.0
 23
0.0
 33
0.0
 16
1.0
 26
0.0
 36
0.0
 17
0.0
 27
1.0
 37
0.0
 76
     0
330
6C
  0
LAYOUT
  5
77
102
{ACAD_REACTORS
330
62
102
}
330
62
100
AcDbPlotSettings
  1

  2

  4

  6

 40
0.0
 41
0.0
 42
0.0
 43
0.0
 44
0.0
 45
0.0
 46
0.0
 47
0.0
 48
0.0
 49
0.0
140
0.0
141
0.0
142
1.0
143
1.0
 70
   688
 72
     0
 73
     0
 74
     5
  7

 75
    16
147
1.0
 76
     0
 77
     2
 78
   300
148
0.0
149
0.0
100
AcDbLayout
  1
Layout2
 70
     1
 71
     2
 10
0.0
 20
0.0
 11
12.0
 21
9.0
 12
0.0
 22
0.0
 32
0.0
 14
0.0
 24
0.0
 34
0.0
 15
0.0
 25
0.0
 35
0.0
146
0.0
 13
0.0
 23
0.0
 33
0.0
 16
1.0
 26
0.0
 36
0.0
 17
0.0
 27
1.0
 37
0.0
 76
     0
330
74
  0
LAYOUT
  5
73
102
{ACAD_REACTORS
330
62
102
}
330
62
100
AcDbPlotSettings
  1

  2

  4

  6

 40
0.0
 41
0.0
 42
0.0
 43
0.0
 44
0.0
 45
0.0
 46
0.0
 47
0.0
 48
0.0
 49
0.0
140
0.0
141
0.0
142
1.0
143
1.0
 70
  1712
 72
     0
 73
     0
 74
     0
  7

 75
     0
147
1.0
 76
     0
 77
     2
 78
   300
148
0.0
149
0.0
100
AcDbLayout
  1
Model
 70
     1
 71
     0
 10
0.0
 20
0.0
 11
12.0
 21
9.0
 12
0.0
 22
0.0
 32
0.0
 14
0.0
 24
0.0
 34
0.0
 15
0.0
 25
0.0
 35
0.0
146
0.0
 13
0.0
 23
0.0
 33
0.0
 16
1.0
 26
0.0
 36
0.0
 17
0.0
 27
1.0
 37
0.0
 76
     0
330
70
  0
MATERIAL
  5
19
102
{ACAD_XDICTIONARY
360
1A
102
}
102
{ACAD_REACTORS
330
10
102
}
330
10
100
AcDbMaterial
  1
ByBlock
 72
     0
 43
0.0208333333333333
 43
0.0
 43
0.0
 43
0.0
 43
0.0
 43
0.0208333333333333
 43
0.0
 43
0.0
 43
0.0
 43
0.0
 43
1.0
 43
0.0
 43
0.0
 43
0.0
 43
0.0
 43
1.0
 77
     0
 47
0.0208333333333333
 47
0.0
 47
0.0
 47
0.0
 47
0.0
 47
0.0208333333333333
 47
0.0
 47
0.0
 47
0.0
 47
0.0
 47
1.0
 47
0.0
 47
0.0
 47
0.0
 47
0.0
 47
1.0
171
     0
 49
0.0208333333333333
 49
0.0
 49
0.0
 49
0.0
 49
0.0
 49
0.0208333333333333
 49
0.0
 49
0.0
 49
0.0
 49
0.0
 49
1.0
 49
0.0
 49
0.0
 49
0.0
 49
0.0
 49
1.0
175
     0
142
0.0208333333333333
142
0.0
142
0.0
142
0.0
142
0.0
142
0.0208333333333333
142
0.0
142
0.0
142
0.0
142
0.0
142
1.0
142
0.0
142
0.0
142
0.0
142
0.0
142
1.0
179
     0
144
0.0208333333333333
144
0.0
144
0.0
144
0.0
144
0.0
144
0.0208333333333333
144
0.0
144
0.0
144
0.0
144
0.0
144
1.0
144
0.0
144
0.0
144
0.0
144
0.0
144
1.0
147
0.0208333333333333
147
0.0
147
0.0
147
0.0
147
0.0
147
0.0208333333333333
147
0.0
147
0.0
147
0.0
147
0.0
147
1.0
147
0.0
147
0.0
147
0.0
147
0.0
147
1.0
  0
MATERIAL
  5
11
102
{ACAD_XDICTIONARY
360
12
102
}
102
{ACAD_REACTORS
330
10
102
}
330
10
100
AcDbMaterial
  1
ByLayer
 72
     0
 43
0.0208333333333333
 43
0.0
 43
0.0
 43
0.0
 43
0.0
 43
0.0208333333333333
 43
0.0
 43
0.0
 43
0.0
 43
0.0
 43
1.0
 43
0.0
 43
0.0
 43
0.0
 43
0.0
 43
1.0
 77
     0
 47
0.0208333333333333
 47
0.0
 47
0.0
 47
0.0
 47
0.0
 47
0.0208333333333333
 47
0.0
 47
0.0
 47
0.0
 47
0.0
 47
1.0
 47
0.0
 47
0.0
 47
0.0
 47
0.0
 47
1.0
171
     0
 49
0.0208333333333333
 49
0.0
 49
0.0
 49
0.0
 49
0.0
 49
0.0208333333333333
 49
0.0
 49
0.0
 49
0.0
 49
0.0
 49
1.0
 49
0.0
 49
0.0
 49
0.0
 49
0.0
 49
1.0
175
     0
142
0.0208333333333333
142
0.0
142
0.0
142
0.0
142
0.0
142
0.0208333333333333
142
0.0
142
0.0
142
0.0
142
0.0
142
1.0
142
0.0
142
0.0
142
0.0
142
0.0
142
1.0
179
     0
144
0.0208333333333333
144
0.0
144
0.0
144
0.0
144
0.0
144
0.0208333333333333
144
0.0
144
0.0
144
0.0
144
0.0
144
1.0
144
0.0
144
0.0
144
0.0
144
0.0
144
1.0
147
0.0208333333333333
147
0.0
147
0.0
147
0.0
147
0.0
147
0.0208333333333333
147
0.0
147
0.0
147
0.0
147
0.0
147
1.0
147
0.0
147
0.0
147
0.0
147
0.0
147
1.0
  0
MATERIAL
  5
21
102
{ACAD_XDICTIONARY
360
22
102
}
102
{ACAD_REACTORS
330
10
102
}
330
10
100
AcDbMaterial
  1
Global
 72
     0
 43
0.0208333333333333
 43
0.0
 43
0.0
 43
0.0
 43
0.0
 43
0.0208333333333333
 43
0.0
 43
0.0
 43
0.0
 43
0.0
 43
1.0
 43
0.0
 43
0.0
 43
0.0
 43
0.0
 43
1.0
 77
     0
 47
0.0208333333333333
 47
0.0
 47
0.0
 47
0.0
 47
0.0
 47
0.0208333333333333
 47
0.0
 47
0.0
 47
0.0
 47
0.0
 47
1.0
 47
0.0
 47
0.0
 47
0.0
 47
0.0
 47
1.0
171
     0
 49
0.0208333333333333
 49
0.0
 49
0.0
 49
0.0
 49
0.0
 49
0.0208333333333333
 49
0.0
 49
0.0
 49
0.0
 49
0.0
 49
1.0
 49
0.0
 49
0.0
 49
0.0
 49
0.0
 49
1.0
175
     0
142
0.0208333333333333
142
0.0
142
0.0
142
0.0
142
0.0
142
0.0208333333333333
142
0.0
142
0.0
142
0.0
142
0.0
142
1.0
142
0.0
142
0.0
142
0.0
142
0.0
142
1.0
179
     0
144
0.0208333333333333
144
0.0
144
0.0
144
0.0
144
0.0
144
0.0208333333333333
144
0.0
144
0.0
144
0.0
144
0.0
144
1.0
144
0.0
144
0.0
144
0.0
144
0.0
144
1.0
147
0.0208333333333333
147
0.0
147
0.0
147
0.0
147
0.0
147
0.0208333333333333
147
0.0
147
0.0
147
0.0
147
0.0
147
1.0
147
0.0
147
0.0
147
0.0
147
0.0
147
1.0
  0
MLEADERSTYLE
  5
67
102
{ACAD_REACTORS
330
66
102
}
330
66
100
AcDbMLeaderStyle
179
     2
170
     2
171
     1
172
     0
 90
        2
 40
0.0
 41
0.0
173
     1
 91
-1056964608
340
5B
 92
       -2
290
     1
 42
0.09
291
     1
 43
0.36
  3
Standard
 44
0.18
300

342
55
174
     1
178
     6
175
     1
176
     0
 93
-1056964608
 45
0.18
292
     0
297
     0
 46
0.18
 94
-1056964608
 47
1.0
 49
1.0
140
1.0
293
     1
141
0.0
294
     1
177
     0
142
1.0
295
     1
296
     0
143
0.125
271
     0
272
     9
273
     9
298
     1
  0
MLINESTYLE
  5
60
102
{ACAD_REACTORS
330
5F
102
}
330
5F
100
AcDbMlineStyle
  2
STANDARD
 70
     0
  3

 62
   256
 51
90.0
 52
90.0
 71
     2
 49
0.5
 62
   256
  6
BYLAYER
 49
-0.5
 62
   256
  6
BYLAYER
  0
ACDBPLACEHOLDER
  5
F
102
{ACAD_REACTORS
330
E
102
}
330
E
  0
SCALE
  5
43
102
{ACAD_REACTORS
330
42
102
}
330
42
100
AcDbScale
 70
     0
300
1:1
140
1.0
141
1.0
290
     1
  0
SCALE
  5
44
102
{ACAD_REACTORS
330
42
102
}
330
42
100
AcDbScale
 70
     0
300
1/128" = 1'-0"
140
0.0078125
141
12.0
290
     0
  0
SCALE
  5
45
102
{ACAD_REACTORS
330
42
102
}
330
42
100
AcDbScale
 70
     0
300
1/64" = 1'-0"
140
0.015625
141
12.0
290
     0
  0
SCALE
  5
46
102
{ACAD_REACTORS
330
42
102
}
330
42
100
AcDbScale
 70
     0
300
1/32" = 1'-0"
140
0.03125
141
12.0
290
     0
  0
SCALE
  5
47
102
{ACAD_REACTORS
330
42
102
}
330
42
100
AcDbScale
 70
     0
300
1/16" = 1'-0"
140
0.0625
141
12.0
290
     0
  0
SCALE
  5
48
102
{ACAD_REACTORS
330
42
102
}
330
42
100
AcDbScale
 70
     0
300
3/32" = 1'-0"
140
0.09375
141
12.0
290
     0
  0
SCALE
  5
49
102
{ACAD_REACTORS
330
42
102
}
330
42
100
AcDbScale
 70
     0
300
1/8" = 1'-0"
140
0.125
141
12.0
290
     0
  0
SCALE
  5
4A
102
{ACAD_REACTORS
330
42
102
}
330
42
100
AcDbScale
 70
     0
300
3/16" = 1'-0"
140
0.1875
141
12.0
290
     0
  0
SCALE
  5
4B
102
{ACAD_REACTORS
330
42
102
}
330
42
100
AcDbScale
 70
     0
300
1/4" = 1'-0"
140
0.25
141
12.0
290
     0
  0
SCALE
  5
4C
102
{ACAD_REACTORS
330
42
102
}
330
42
100
AcDbScale
 70
     0
300
3/8" = 1'-0"
140
0.375
141
12.0
290
     0
  0
SCALE
  5
4D
102
{ACAD_REACTORS
330
42
102
}
330
42
100
AcDbScale
 70
     0
300
1/2" = 1'-0"
140
0.5
141
12.0
290
     0
  0
SCALE
  5
4E
102
{ACAD_REACTORS
330
42
102
}
330
42
100
AcDbScale
 70
     0
300
3/4" = 1'-0"
140
0.75
141
12.0
290
     0
  0
SCALE
  5
4F
102
{ACAD_REACTORS
330
42
102
}
330
42
100
AcDbScale
 70
     0
300
1" = 1'-0"
140
1.0
141
12.0
290
     0
  0
SCALE
  5
50
102
{ACAD_REACTORS
330
42
102
}
330
42
100
AcDbScale
 70
     0
300
1-1/2" = 1'-0"
140
1.5
141
12.0
290
     0
  0
SCALE
  5
51
102
{ACAD_REACTORS
330
42
102
}
330
42
100
AcDbScale
 70
     0
300
3" = 1'-0"
140
3.0
141
12.0
290
     0
  0
SCALE
  5
52
102
{ACAD_REACTORS
330
42
102
}
330
42
100
AcDbScale
 70
     0
300
6" = 1'-0"
140
6.0
141
12.0
290
     0
  0
SCALE
  5
53
102
{ACAD_REACTORS
330
42
102
}
330
42
100
AcDbScale
 70
     0
300
1'-0" = 1'-0"
140
12.0
141
12.0
290
     0
  0
ACDBSECTIONVIEWSTYLE
  5
69
102
{ACAD_REACTORS
330
68
102
}
330
68
100
AcDbModelDocViewStyle
 70
     0
  3
Imperial24
290
     1
300
Imperial24
 90
        0
100
AcDbSectionViewStyle
 70
     0
 71
     0
 90
       78
 71
     1
340
55
 62
   256
 40
0.24
340
0
340
0
 62
   256
 40
0.24
300
I, O, Q, S, X, Z
 40
0.48
 90
        3
 40
0.18
 90
        1
 71
     2
340
5D
 90
       25
 62
   256
340
5D
 90
       50
 62
   256
 40
0.24
 40
0.0
 40
0.24
 71
     3
340
55
 62
   256
 40
0.24
 90
        1
 40
0.75
 90
        1
300
%<\AcVar ViewType \f "%tc1">% %<\AcVar ViewSectionStartId>%-%<\AcVar ViewSectionEndId>%\PSCALE %<\AcVar ViewScale \f "%sn">%
 71
     4
 62
   256
 62
   257
300
ANSI31
 40
1.0
 90
        0
290
     0
290
     0
 90
        6
 40
0.0
 40
1.570796326794896
 40
0.2617993877991494
 40
1.308996938995747
 40
-0.2617993877991494
 40
1.832595714594046
  0
TABLESTYLE
  5
65
102
{ACAD_XDICTIONARY
360
2AF
102
}
102
{ACAD_REACTORS
330
64
102
}
330
64
100
AcDbTableStyle
280
     0
  3
Standard
 70
     0
 71
     0
 40
0.06
 41
0.06
280
     0
281
     0
  7
Standard
140
0.18
170
     2
 62
     0
 63
     7
283
     0
 90
      512
 91
        0
  1

274
    -2
284
     1
 64
     0
275
    -2
285
     1
 65
     0
276
    -2
286
     1
 66
     0
277
    -2
287
     1
 67
     0
278
    -2
288
     1
 68
     0
279
    -2
289
     1
 69
     0
  7
Standard
140
0.25
170
     5
 62
     0
 63
     7
283
     0
 90
      512
 91
        0
  1

274
    -2
284
     1
 64
     0
275
    -2
285
     1
 65
     0
276
    -2
286
     1
 66
     0
277
    -2
287
     1
 67
     0
278
    -2
288
     1
 68
     0
279
    -2
289
     1
 69
     0
  7
Standard
140
0.18
170
     5
 62
     0
 63
     7
283
     0
 90
      512
 91
        0
  1

274
    -2
284
     1
 64
     0
275
    -2
285
     1
 65
     0
276
    -2
286
     1
 66
     0
277
    -2
287
     1
 67
     0
278
    -2
288
     1
 68
     0
279
    -2
289
     1
 69
     0
  0
VISUALSTYLE
  5
2F
102
{ACAD_REACTORS
330
29
102
}
330
29
100
AcDbVisualStyle
  2
2dWireframe
 70
     4
177
     3
291
     0
 70
    58
 90
        0
176
     1
 90
        2
176
     1
 90
        0
176
     1
 90
        0
176
     1
 40
0.6
176
     1
 40
30.0
176
     1
 62
     7
420
 16777215
176
     1
 90
        1
176
     1
 90
        4
176
     1
 62
     7
176
     1
 62
   257
176
     1
 90
        1
176
     1
 90
        1
176
     1
 40
1.0
176
     1
 90
        0
176
     1
 62
   257
176
     1
 40
1.0
176
     1
 90
        1
176
     1
 90
        6
176
     1
 90
        2
176
     1
 62
     7
176
     1
 90
        5
176
     1
 90
        0
176
     1
 90
        0
176
     1
290
     0
176
     1
 90
        1
176
     1
 40
0.0
176
     1
 90
        0
176
     1
290
     1
176
     1
290
     1
176
     1
290
     0
176
     1
290
     0
176
     1
290
     0
176
     1
290
     0
176
     1
290
     0
176
     1
290
     0
176
     1
290
     0
176
     1
 90
       50
176
     1
 40
0.0
176
     1
 40
1.0
176
     1
 90
        0
176
     1
 62
    18
420
        0
176
     1
 90
       50
176
     1
 90
        3
176
     1
 62
     5
420
      255
176
     1
290
     0
176
     1
 90
       50
176
     1
 90
       50
176
     1
 90
       50
176
     1
290
     0
176
     1
 90
       50
176
     1
 62
   256
176
     0
 40
1.0
176
     0
 90
        2
176
     1
  1
strokes_ogs.tif
176
     1
290
     0
176
     1
 40
1.0
176
     1
 40
1.0
176
     1
  0
VISUALSTYLE
  5
2E
102
{ACAD_REACTORS
330
29
102
}
330
29
100
AcDbVisualStyle
  2
Basic
 70
     7
177
     3
291
     1
 70
    58
 90
        1
176
     1
 90
        0
176
     1
 90
        1
176
     1
 90
        0
176
     1
 40
0.6
176
     1
 40
30.0
176
     1
 62
     7
420
 16777215
176
     1
 90
        0
176
     1
 90
        4
176
     1
 62
     7
176
     1
 62
   257
176
     1
 90
        1
176
     1
 90
        1
176
     1
 40
1.0
176
     1
 90
        8
176
     1
 62
     7
176
     1
 40
1.0
176
     1
 90
        1
176
     1
 90
        6
176
     1
 90
        2
176
     1
 62
     7
176
     1
 90
        5
176
     1
 90
        0
176
     1
 90
        0
176
     1
290
     0
176
     1
 90
        1
176
     1
 40
0.0
176
     1
 90
        0
176
     1
290
     0
176
     1
290
     1
176
     1
290
     1
176
     1
290
     0
176
     1
290
     0
176
     1
290
     0
176
     1
290
     0
176
     1
290
     0
176
     1
290
     0
176
     1
 90
       50
176
     1
 40
0.0
176
     1
 40
1.0
176
     1
 90
        0
176
     1
 62
    18
420
        0
176
     1
 90
       50
176
     1
 90
        3
176
     1
 62
     5
420
      255
176
     1
290
     0
176
     1
 90
       50
176
     1
 90
       50
176
     1
 90
       50
176
     1
290
     0
176
     1
 90
       50
176
     1
 62
   256
176
     0
 40
1.0
176
     0
 90
        2
176
     1
  1
strokes_ogs.tif
176
     1
290
     0
176
     1
 40
1.0
176
     1
 40
1.0
176
     1
  0
VISUALSTYLE
  5
35
102
{ACAD_REACTORS
330
29
102
}
330
29
100
AcDbVisualStyle
  2
Brighten
 70
    12
177
     3
291
     1
 70
    58
 90
        2
176
     1
 90
        2
176
     1
 90
        0
176
     1
 90
        0
176
     1
 40
0.6
176
     1
 40
30.0
176
     1
 62
     7
420
 16777215
176
     1
 90
        1
176
     1
 90
        4
176
     1
 62
     7
176
     1
 62
   257
176
     1
 90
        1
176
     1
 90
        1
176
     1
 40
1.0
176
     1
 90
        8
176
     1
 62
     7
176
     1
 40
1.0
176
     1
 90
        1
176
     1
 90
        6
176
     1
 90
        2
176
     1
 62
     7
176
     1
 90
        5
176
     1
 90
        0
176
     1
 90
        0
176
     1
290
     0
176
     1
 90
        1
176
     1
 40
50.0
176
     1
 90
        0
176
     1
290
     0
176
     1
290
     1
176
     1
290
     1
176
     1
290
     0
176
     1
290
     0
176
     1
290
     0
176
     1
290
     0
176
     1
290
     0
176
     1
290
     0
176
     1
 90
       50
176
     1
 40
0.0
176
     1
 40
1.0
176
     1
 90
        0
176
     1
 62
    18
420
        0
176
     1
 90
       50
176
     1
 90
        3
176
     1
 62
     5
420
      255
176
     1
290
     0
176
     1
 90
       50
176
     1
 90
       50
176
     1
 90
       50
176
     1
290
     0
176
     1
 90
       50
176
     1
 62
   256
176
     0
 40
1.0
176
     0
 90
        2
176
     1
  1
strokes_ogs.tif
176
     1
290
     0
176
     1
 40
1.0
176
     1
 40
1.0
176
     1
  0
VISUALSTYLE
  5
39
102
{ACAD_REACTORS
330
29
102
}
330
29
100
AcDbVisualStyle
  2
ColorChange
 70
    16
177
     3
291
     1
 70
    58
 90
        2
176
     1
 90
        2
176
     1
 90
        3
176
     1
 90
        0
176
     1
 40
0.6
176
     1
 40
30.0
176
     1
 62
     8
420
  8421504
176
     1
 90
        1
176
     1
 90
        4
176
     1
 62
     7
176
     1
 62
   257
176
     1
 90
        1
176
     1
 90
        1
176
     1
 40
1.0
176
     1
 90
        8
176
     1
 62
     8
420
  8421504
176
     1
 40
1.0
176
     1
 90
        1
176
     1
 90
        6
176
     1
 90
        2
176
     1
 62
     7
176
     1
 90
        5
176
     1
 90
        0
176
     1
 90
        0
176
     1
290
     0
176
     1
 90
        1
176
     1
 40
0.0
176
     1
 90
        0
176
     1
290
     0
176
     1
290
     1
176
     1
290
     1
176
     1
290
     0
176
     1
290
     0
176
     1
290
     0
176
     1
290
     0
176
     1
290
     0
176
     1
290
     0
176
     1
 90
       50
176
     1
 40
0.0
176
     1
 40
1.0
176
     1
 90
        0
176
     1
 62
    18
420
        0
176
     1
 90
       50
176
     1
 90
        3
176
     1
 62
     5
420
      255
176
     1
290
     0
176
     1
 90
       50
176
     1
 90
       50
176
     1
 90
       50
176
     1
290
     0
176
     1
 90
       50
176
     1
 62
   256
176
     0
 40
1.0
176
     0
 90
        2
176
     1
  1
strokes_ogs.tif
176
     1
290
     0
176
     1
 40
1.0
176
     1
 40
1.0
176
     1
  0
VISUALSTYLE
  5
32
102
{ACAD_REACTORS
330
29
102
}
330
29
100
AcDbVisualStyle
  2
Conceptual
 70
     9
177
     3
291
     0
 70
    58
 90
        3
176
     1
 90
        2
176
     1
 90
        0
176
     1
 90
        0
176
     1
 40
0.6
176
     1
 40
30.0
176
     1
 62
     7
420
 16777215
176
     1
 90
        2
176
     1
 90
        2
176
     1
 62
     7
176
     1
 62
   257
176
     1
 90
        1
176
     1
 90
        1
176
     1
 40
179.0
176
     1
 90
        8
176
     1
 62
     7
176
     1
 40
1.0
176
     1
 90
        1
176
     1
 90
        6
176
     1
 90
        2
176
     1
 62
     7
176
     1
 90
        3
176
     1
 90
        0
176
     1
 90
        0
176
     1
290
     0
176
     1
 90
        1
176
     1
 40
0.0
176
     1
 90
        0
176
     1
290
     0
176
     1
290
     1
176
     1
290
     1
176
     1
290
     0
176
     1
290
     0
176
     1
290
     0
176
     1
290
     0
176
     1
290
     0
176
     1
290
     0
176
     1
 90
       50
176
     1
 40
0.0
176
     1
 40
1.0
176
     1
 90
        0
176
     1
 62
    18
420
        0
176
     1
 90
       50
176
     1
 90
        3
176
     1
 62
     5
420
      255
176
     1
290
     0
176
     1
 90
       50
176
     1
 90
       50
176
     1
 90
       50
176
     1
290
     0
176
     1
 90
       50
176
     1
 62
   256
176
     0
 40
1.0
176
     0
 90
        2
176
     1
  1
strokes_ogs.tif
176
     1
290
     0
176
     1
 40
1.0
176
     1
 40
1.0
176
     1
  0
VISUALSTYLE
  5
34
102
{ACAD_REACTORS
330
29
102
}
330
29
100
AcDbVisualStyle
  2
Dim
 70
    11
177
     3
291
     1
 70
    58
 90
        2
176
     1
 90
        2
176
     1
 90
        0
176
     1
 90
        0
176
     1
 40
0.6
176
     1
 40
30.0
176
     1
 62
     7
420
 16777215
176
     1
 90
        1
176
     1
 90
        4
176
     1
 62
     7
176
     1
 62
   257
176
     1
 90
        1
176
     1
 90
        1
176
     1
 40
1.0
176
     1
 90
        8
176
     1
 62
     7
176
     1
 40
1.0
176
     1
 90
        1
176
     1
 90
        6
176
     1
 90
        2
176
     1
 62
     7
176
     1
 90
        5
176
     1
 90
        0
176
     1
 90
        0
176
     1
290
     0
176
     1
 90
        1
176
     1
 40
-50.0
176
     1
 90
        0
176
     1
290
     0
176
     1
290
     1
176
     1
290
     1
176
     1
290
     0
176
     1
290
     0
176
     1
290
     0
176
     1
290
     0
176
     1
290
     0
176
     1
290
     0
176
     1
 90
       50
176
     1
 40
0.0
176
     1
 40
1.0
176
     1
 90
        0
176
     1
 62
    18
420
        0
176
     1
 90
       50
176
     1
 90
        3
176
     1
 62
     5
420
      255
176
     1
290
     0
176
     1
 90
       50
176
     1
 90
       50
176
     1
 90
       50
176
     1
290
     0
176
     1
 90
       50
176
     1
 62
   256
176
     0
 40
1.0
176
     0
 90
        2
176
     1
  1
strokes_ogs.tif
176
     1
290
     0
176
     1
 40
1.0
176
     1
 40
1.0
176
     1
  0
VISUALSTYLE
  5
41
102
{ACAD_REACTORS
330
29
102
}
330
29
100
AcDbVisualStyle
  2
EdgeColorOff
 70
    22
177
     3
291
     1
 70
    58
 90
        2
176
     0
 90
        2
176
     0
 90
        0
176
     0
 90
        0
176
     0
 40
0.6
176
     0
 40
30.0
176
     0
 62
     7
420
 16777215
176
     0
 90
        1
176
     0
 90
        4
176
     0
 62
     7
176
     0
 62
   257
176
     0
 90
        1
176
     0
 90
        1
176
     0
 40
1.0
176
     0
 90
        8
176
     2
 62
     7
176
     0
 40
1.0
176
     0
 90
        1
176
     0
 90
        6
176
     0
 90
        2
176
     0
 62
     7
176
     0
 90
        5
176
     0
 90
        0
176
     0
 90
        0
176
     0
290
     0
176
     0
 90
        1
176
     0
 40
0.0
176
     0
 90
        0
176
     0
290
     0
176
     0
290
     1
176
     0
290
     1
176
     0
290
     0
176
     0
290
     0
176
     0
290
     0
176
     0
290
     0
176
     0
290
     0
176
     0
290
     0
176
     0
 90
       50
176
     0
 40
0.0
176
     0
 40
1.0
176
     0
 90
        0
176
     0
 62
    18
420
        0
176
     0
 90
       50
176
     0
 90
        3
176
     0
 62
     5
420
      255
176
     0
290
     0
176
     0
 90
       50
176
     0
 90
       50
176
     0
 90
       50
176
     0
290
     0
176
     0
 90
       50
176
     0
 62
   256
176
     0
 40
1.0
176
     0
 90
        2
176
     0
  1
strokes_ogs.tif
176
     0
290
     0
176
     0
 40
1.0
176
     0
 40
1.0
176
     0
  0
VISUALSTYLE
  5
38
102
{ACAD_REACTORS
330
29
102
}
330
29
100
AcDbVisualStyle
  2
Facepattern
 70
    15
177
     3
291
     1
 70
    58
 90
        2
176
     1
 90
        2
176
     1
 90
        0
176
     1
 90
        0
176
     1
 40
0.6
176
     1
 40
30.0
176
     1
 62
     7
420
 16777215
176
     1
 90
        1
176
     1
 90
        4
176
     1
 62
     7
176
     1
 62
   257
176
     1
 90
        1
176
     1
 90
        1
176
     1
 40
1.0
176
     1
 90
        8
176
     1
 62
     7
176
     1
 40
1.0
176
     1
 90
        1
176
     1
 90
        6
176
     1
 90
        2
176
     1
 62
     7
176
     1
 90
        5
176
     1
 90
        0
176
     1
 90
        0
176
     1
290
     0
176
     1
 90
        1
176
     1
 40
0.0
176
     1
 90
        0
176
     1
290
     0
176
     1
290
     1
176
     1
290
     1
176
     1
290
     0
176
     1
290
     0
176
     1
290
     0
176
     1
290
     0
176
     1
290
     0
176
     1
290
     0
176
     1
 90
       50
176
     1
 40
0.0
176
     1
 40
1.0
176
     1
 90
        0
176
     1
 62
    18
420
        0
176
     1
 90
       50
176
     1
 90
        3
176
     1
 62
     5
420
      255
176
     1
290
     0
176
     1
 90
       50
176
     1
 90
       50
176
     1
 90
       50
176
     1
290
     0
176
     1
 90
       50
176
     1
 62
   256
176
     0
 40
1.0
176
     0
 90
        2
176
     1
  1
strokes_ogs.tif
176
     1
290
     0
176
     1
 40
1.0
176
     1
 40
1.0
176
     1
  0
VISUALSTYLE
  5
2A
102
{ACAD_REACTORS
330
29
102
}
330
29
100
AcDbVisualStyle
  2
Flat
 70
     0
177
     3
291
     1
 70
    58
 90
        2
176
     1
 90
        1
176
     1
 90
        1
176
     1
 90
        2
176
     1
 40
0.6
176
     1
 40
30.0
176
     1
 62
     7
420
 16777215
176
     1
 90
        0
176
     1
 90
        0
176
     1
 62
     7
176
     1
 62
   257
176
     1
 90
        1
176
     1
 90
        1
176
     1
 40
1.0
176
     1
 90
        8
176
     1
 62
     7
176
     1
 40
1.0
176
     1
 90
        1
176
     1
 90
        6
176
     1
 90
        2
176
     1
 62
     7
176
     1
 90
        5
176
     1
 90
        0
176
     1
 90
        0
176
     1
290
     0
176
     1
 90
       13
176
     1
 40
0.0
176
     1
 90
        0
176
     1
290
     0
176
     1
290
     1
176
     1
290
     1
176
     1
290
     0
176
     1
290
     0
176
     1
290
     0
176
     1
290
     0
176
     1
290
     0
176
     1
290
     0
176
     1
 90
       50
176
     1
 40
0.0
176
     1
 40
1.0
176
     1
 90
        0
176
     1
 62
    18
420
        0
176
     1
 90
       50
176
     1
 90
        3
176
     1
 62
     5
420
      255
176
     1
290
     0
176
     1
 90
       50
176
     1
 90
       50
176
     1
 90
       50
176
     1
290
     0
176
     1
 90
       50
176
     1
 62
   256
176
     0
 40
1.0
176
     0
 90
        2
176
     1
  1
strokes_ogs.tif
176
     1
290
     0
176
     1
 40
1.0
176
     1
 40
1.0
176
     1
  0
VISUALSTYLE
  5
2B
102
{ACAD_REACTORS
330
29
102
}
330
29
100
AcDbVisualStyle
  2
FlatWithEdges
 70
     1
177
     3
291
     1
 70
    58
 90
        2
176
     1
 90
        1
176
     1
 90
        1
176
     1
 90
        2
176
     1
 40
0.6
176
     1
 40
30.0
176
     1
 62
     7
420
 16777215
176
     1
 90
        1
176
     1
 90
        0
176
     1
 62
     7
176
     1
 62
   257
176
     1
 90
        1
176
     1
 90
        1
176
     1
 40
1.0
176
     1
 90
        0
176
     1
 62
   257
176
     1
 40
1.0
176
     1
 90
        1
176
     1
 90
        6
176
     1
 90
        2
176
     1
 62
     7
176
     1
 90
        5
176
     1
 90
        0
176
     1
 90
        0
176
     1
290
     0
176
     1
 90
       13
176
     1
 40
0.0
176
     1
 90
        0
176
     1
290
     0
176
     1
290
     1
176
     1
290
     1
176
     1
290
     0
176
     1
290
     0
176
     1
290
     0
176
     1
290
     0
176
     1
290
     0
176
     1
290
     0
176
     1
 90
       50
176
     1
 40
0.0
176
     1
 40
1.0
176
     1
 90
        0
176
     1
 62
    18
420
        0
176
     1
 90
       50
176
     1
 90
        3
176
     1
 62
     5
420
      255
176
     1
290
     0
176
     1
 90
       50
176
     1
 90
       50
176
     1
 90
       50
176
     1
290
     0
176
     1
 90
       50
176
     1
 62
   256
176
     0
 40
1.0
176
     0
 90
        2
176
     1
  1
strokes_ogs.tif
176
     1
290
     0
176
     1
 40
1.0
176
     1
 40
1.0
176
     1
  0
VISUALSTYLE
  5
2C
102
{ACAD_REACTORS
330
29
102
}
330
29
100
AcDbVisualStyle
  2
Gouraud
 70
     2
177
     3
291
     1
 70
    58
 90
        2
176
     1
 90
        2
176
     1
 90
        1
176
     1
 90
        2
176
     1
 40
0.6
176
     1
 40
30.0
176
     1
 62
     7
420
 16777215
176
     1
 90
        0
176
     1
 90
        0
176
     1
 62
     7
176
     1
 62
   257
176
     1
 90
        1
176
     1
 90
        1
176
     1
 40
1.0
176
     1
 90
        0
176
     1
 62
     7
176
     1
 40
1.0
176
     1
 90
        1
176
     1
 90
        6
176
     1
 90
        2
176
     1
 62
     7
176
     1
 90
        5
176
     1
 90
        0
176
     1
 90
        0
176
     1
290
     0
176
     1
 90
       13
176
     1
 40
0.0
176
     1
 90
        0
176
     1
290
     0
176
     1
290
     1
176
     1
290
     1
176
     1
290
     0
176
     1
290
     0
176
     1
290
     0
176
     1
290
     0
176
     1
290
     0
176
     1
290
     0
176
     1
 90
       50
176
     1
 40
0.0
176
     1
 40
1.0
176
     1
 90
        0
176
     1
 62
    18
420
        0
176
     1
 90
       50
176
     1
 90
        3
176
     1
 62
     5
420
      255
176
     1
290
     0
176
     1
 90
       50
176
     1
 90
       50
176
     1
 90
       50
176
     1
290
     0
176
     1
 90
       50
176
     1
 62
   256
176
     0
 40
1.0
176
     0
 90
        2
176
     1
  1
strokes_ogs.tif
176
     1
290
     0
176
     1
 40
1.0
176
     1
 40
1.0
176
     1
  0
VISUALSTYLE
  5
2D
102
{ACAD_REACTORS
330
29
102
}
330
29
100
AcDbVisualStyle
  2
GouraudWithEdges
 70
     3
177
     3
291
     1
 70
    58
 90
        2
176
     1
 90
        2
176
     1
 90
        1
176
     1
 90
        2
176
     1
 40
0.6
176
     1
 40
30.0
176
     1
 62
     7
420
 16777215
176
     1
 90
        1
176
     1
 90
        0
176
     1
 62
     7
176
     1
 62
   257
176
     1
 90
        1
176
     1
 90
        1
176
     1
 40
1.0
176
     1
 90
        0
176
     1
 62
   257
176
     1
 40
1.0
176
     1
 90
        1
176
     1
 90
        6
176
     1
 90
        2
176
     1
 62
     7
176
     1
 90
        5
176
     1
 90
        0
176
     1
 90
        0
176
     1
290
     0
176
     1
 90
       13
176
     1
 40
0.0
176
     1
 90
        0
176
     1
290
     0
176
     1
290
     1
176
     1
290
     1
176
     1
290
     0
176
     1
290
     0
176
     1
290
     0
176
     1
290
     0
176
     1
290
     0
176
     1
290
     0
176
     1
 90
       50
176
     1
 40
0.0
176
     1
 40
1.0
176
     1
 90
        0
176
     1
 62
    18
420
        0
176
     1
 90
       50
176
     1
 90
        3
176
     1
 62
     5
420
      255
176
     1
290
     0
176
     1
 90
       50
176
     1
 90
       50
176
     1
 90
       50
176
     1
290
     0
176
     1
 90
       50
176
     1
 62
   256
176
     0
 40
1.0
176
     0
 90
        2
176
     1
  1
strokes_ogs.tif
176
     1
290
     0
176
     1
 40
1.0
176
     1
 40
1.0
176
     1
  0
VISUALSTYLE
  5
31
102
{ACAD_REACTORS
330
29
102
}
330
29
100
AcDbVisualStyle
  2
Hidden
 70
     6
177
     3
291
     0
 70
    58
 90
        1
176
     1
 90
        2
176
     1
 90
        2
176
     1
 90
        0
176
     1
 40
0.6
176
     1
 40
30.0
176
     1
 62
     7
420
 16777215
176
     1
 90
        2
176
     1
 90
        2
176
     1
 62
     7
176
     1
 62
   257
176
     1
 90
        2
176
     1
 90
        1
176
     1
 40
40.0
176
     1
 90
        0
176
     1
 62
   257
176
     1
 40
1.0
176
     1
 90
        1
176
     1
 90
        6
176
     1
 90
        2
176
     1
 62
     7
176
     1
 90
        3
176
     1
 90
        0
176
     1
 90
        0
176
     1
290
     0
176
     1
 90
        1
176
     1
 40
0.0
176
     1
 90
        0
176
     1
290
     0
176
     1
290
     1
176
     1
290
     1
176
     1
290
     0
176
     1
290
     0
176
     1
290
     0
176
     1
290
     0
176
     1
290
     0
176
     1
290
     0
176
     1
 90
       50
176
     1
 40
0.0
176
     1
 40
1.0
176
     1
 90
        0
176
     1
 62
    18
420
        0
176
     1
 90
       50
176
     1
 90
        3
176
     1
 62
     5
420
      255
176
     1
290
     0
176
     1
 90
       50
176
     1
 90
       50
176
     1
 90
       50
176
     1
290
     0
176
     1
 90
       50
176
     1
 62
   256
176
     0
 40
1.0
176
     0
 90
        2
176
     1
  1
strokes_ogs.tif
176
     1
290
     0
176
     1
 40
1.0
176
     1
 40
1.0
176
     1
  0
VISUALSTYLE
  5
3F
102
{ACAD_REACTORS
330
29
102
}
330
29
100
AcDbVisualStyle
  2
JitterOff
 70
    20
177
     3
291
     1
 70
    58
 90
        2
176
     0
 90
        2
176
     0
 90
        0
176
     0
 90
        0
176
     0
 40
0.6
176
     0
 40
30.0
176
     0
 62
     7
420
 16777215
176
     0
 90
        1
176
     0
 90
        4
176
     0
 62
     7
176
     0
 62
   257
176
     0
 90
        1
176
     0
 90
        1
176
     0
 40
1.0
176
     0
 90
       10
176
     2
 62
     7
176
     0
 40
1.0
176
     0
 90
        1
176
     0
 90
        6
176
     0
 90
        2
176
     0
 62
     7
176
     0
 90
        5
176
     0
 90
        0
176
     0
 90
        0
176
     0
290
     0
176
     0
 90
        1
176
     0
 40
0.0
176
     0
 90
        0
176
     0
290
     0
176
     0
290
     1
176
     0
290
     1
176
     0
290
     0
176
     0
290
     0
176
     0
290
     0
176
     0
290
     0
176
     0
290
     0
176
     0
290
     0
176
     0
 90
       50
176
     0
 40
0.0
176
     0
 40
1.0
176
     0
 90
        0
176
     0
 62
    18
420
        0
176
     0
 90
       50
176
     0
 90
        3
176
     0
 62
     5
420
      255
176
     0
290
     0
176
     0
 90
       50
176
     0
 90
       50
176
     0
 90
       50
176
     0
290
     0
176
     0
 90
       50
176
     0
 62
   256
176
     0
 40
1.0
176
     0
 90
        2
176
     0
  1
strokes_ogs.tif
176
     0
290
     0
176
     0
 40
1.0
176
     0
 40
1.0
176
     0
  0
VISUALSTYLE
  5
37
102
{ACAD_REACTORS
330
29
102
}
330
29
100
AcDbVisualStyle
  2
Linepattern
 70
    14
177
     3
291
     1
 70
    58
 90
        2
176
     1
 90
        2
176
     1
 90
        0
176
     1
 90
        0
176
     1
 40
0.6
176
     1
 40
30.0
176
     1
 62
     7
420
 16777215
176
     1
 90
        1
176
     1
 90
        4
176
     1
 62
     7
176
     1
 62
   257
176
     1
 90
        7
176
     1
 90
        7
176
     1
 40
1.0
176
     1
 90
        8
176
     1
 62
     7
176
     1
 40
1.0
176
     1
 90
        1
176
     1
 90
        6
176
     1
 90
        2
176
     1
 62
     7
176
     1
 90
        5
176
     1
 90
        0
176
     1
 90
        0
176
     1
290
     0
176
     1
 90
        1
176
     1
 40
0.0
176
     1
 90
        0
176
     1
290
     0
176
     1
290
     1
176
     1
290
     1
176
     1
290
     0
176
     1
290
     0
176
     1
290
     0
176
     1
290
     0
176
     1
290
     0
176
     1
290
     0
176
     1
 90
       50
176
     1
 40
0.0
176
     1
 40
1.0
176
     1
 90
        0
176
     1
 62
    18
420
        0
176
     1
 90
       50
176
     1
 90
        3
176
     1
 62
     5
420
      255
176
     1
290
     0
176
     1
 90
       50
176
     1
 90
       50
176
     1
 90
       50
176
     1
290
     0
176
     1
 90
       50
176
     1
 62
   256
176
     0
 40
1.0
176
     0
 90
        2
176
     1
  1
strokes_ogs.tif
176
     1
290
     0
176
     1
 40
1.0
176
     1
 40
1.0
176
     1
  0
VISUALSTYLE
  5
40
102
{ACAD_REACTORS
330
29
102
}
330
29
100
AcDbVisualStyle
  2
OverhangOff
 70
    21
177
     3
291
     1
 70
    58
 90
        2
176
     0
 90
        2
176
     0
 90
        0
176
     0
 90
        0
176
     0
 40
0.6
176
     0
 40
30.0
176
     0
 62
     7
420
 16777215
176
     0
 90
        1
176
     0
 90
        4
176
     0
 62
     7
176
     0
 62
   257
176
     0
 90
        1
176
     0
 90
        1
176
     0
 40
1.0
176
     0
 90
        9
176
     2
 62
     7
176
     0
 40
1.0
176
     0
 90
        1
176
     0
 90
        6
176
     0
 90
        2
176
     0
 62
     7
176
     0
 90
        5
176
     0
 90
        0
176
     0
 90
        0
176
     0
290
     0
176
     0
 90
        1
176
     0
 40
0.0
176
     0
 90
        0
176
     0
290
     0
176
     0
290
     1
176
     0
290
     1
176
     0
290
     0
176
     0
290
     0
176
     0
290
     0
176
     0
290
     0
176
     0
290
     0
176
     0
290
     0
176
     0
 90
       50
176
     0
 40
0.0
176
     0
 40
1.0
176
     0
 90
        0
176
     0
 62
    18
420
        0
176
     0
 90
       50
176
     0
 90
        3
176
     0
 62
     5
420
      255
176
     0
290
     0
176
     0
 90
       50
176
     0
 90
       50
176
     0
 90
       50
176
     0
290
     0
176
     0
 90
       50
176
     0
 62
   256
176
     0
 40
1.0
176
     0
 90
        2
176
     0
  1
strokes_ogs.tif
176
     0
290
     0
176
     0
 40
1.0
176
     0
 40
1.0
176
     0
  0
VISUALSTYLE
  5
33
102
{ACAD_REACTORS
330
29
102
}
330
29
100
AcDbVisualStyle
  2
Realistic
 70
     8
177
     3
291
     0
 70
    58
 90
        2
176
     1
 90
        3
176
     1
 90
        0
176
     1
 90
        2
176
     1
 40
0.6
176
     1
 40
30.0
176
     1
 62
     7
420
 16777215
176
     1
 90
        0
176
     1
 90
        0
176
     1
 62
     7
176
     1
 62
   257
176
     1
 90
        1
176
     1
 90
        1
176
     1
 40
1.0
176
     1
 90
        8
176
     1
 62
   257
176
     1
 40
1.0
176
     1
 90
        1
176
     1
 90
        6
176
     1
 90
        2
176
     1
 62
     7
176
     1
 90
        3
176
     1
 90
        0
176
     1
 90
        0
176
     1
290
     0
176
     1
 90
       13
176
     1
 40
0.0
176
     1
 90
        0
176
     1
290
     0
176
     1
290
     1
176
     1
290
     1
176
     1
290
     0
176
     1
290
     0
176
     1
290
     0
176
     1
290
     0
176
     1
290
     0
176
     1
290
     0
176
     1
 90
       50
176
     1
 40
0.0
176
     1
 40
1.0
176
     1
 90
        0
176
     1
 62
    18
420
        0
176
     1
 90
       50
176
     1
 90
        3
176
     1
 62
     5
420
      255
176
     1
290
     0
176
     1
 90
       50
176
     1
 90
       50
176
     1
 90
       50
176
     1
290
     0
176
     1
 90
       50
176
     1
 62
   256
176
     0
 40
1.0
176
     0
 90
        2
176
     1
  1
strokes_ogs.tif
176
     1
290
     0
176
     1
 40
1.0
176
     1
 40
1.0
176
     1
  0
VISUALSTYLE
  5
3E
102
{ACAD_REACTORS
330
29
102
}
330
29
100
AcDbVisualStyle
  2
Shaded
 70
    27
177
     3
291
     0
 70
    58
 90
        2
176
     1
 90
        2
176
     1
 90
        1
176
     1
 90
        2
176
     1
 40
0.6
176
     1
 40
30.0
176
     1
 62
     7
420
 16777215
176
     1
 90
        0
176
     1
 90
        4
176
     1
 62
     7
176
     1
 62
   257
176
     1
 90
        1
176
     1
 90
        1
176
     1
 40
1.0
176
     1
 90
        8
176
     1
 62
   257
176
     1
 40
1.0
176
     1
 90
        1
176
     1
 90
        6
176
     1
 90
        2
176
     1
 62
     8
420
  7895160
176
     1
 90
        3
176
     1
 90
        0
176
     1
 90
        0
176
     1
290
     0
176
     1
 90
        5
176
     1
 40
0.0
176
     1
 90
        0
176
     1
290
     0
176
     1
290
     1
176
     1
290
     1
176
     1
290
     0
176
     1
290
     0
176
     1
290
     0
176
     1
290
     0
176
     1
290
     0
176
     1
290
     0
176
     1
 90
       50
176
     1
 40
0.0
176
     1
 40
1.0
176
     1
 90
        0
176
     1
 62
    18
420
        0
176
     1
 90
       50
176
     1
 90
        3
176
     1
 62
     5
420
      255
176
     1
290
     0
176
     1
 90
       50
176
     1
 90
       50
176
     1
 90
       50
176
     1
290
     0
176
     1
 90
       50
176
     1
 62
   256
176
     0
 40
1.0
176
     0
 90
        2
176
     1
  1
strokes_ogs.tif
176
     1
290
     0
176
     1
 40
1.0
176
     1
 40
1.0
176
     1
  0
VISUALSTYLE
  5
3D
102
{ACAD_REACTORS
330
29
102
}
330
29
100
AcDbVisualStyle
  2
Shaded with edges
 70
    26
177
     3
291
     0
 70
    58
 90
        2
176
     1
 90
        2
176
     1
 90
        1
176
     1
 90
        2
176
     1
 40
0.6
176
     1
 40
30.0
176
     1
 62
     7
420
 16777215
176
     1
 90
        1
176
     1
 90
        2
176
     1
 62
     7
176
     1
 62
   257
176
     1
 90
        2
176
     1
 90
        1
176
     1
 40
1.0
176
     1
 90
        8
176
     1
 62
   257
176
     1
 40
1.0
176
     1
 90
        1
176
     1
 90
        6
176
     1
 90
        2
176
     1
 62
     7
176
     1
 90
        3
176
     1
 90
        0
176
     1
 90
        0
176
     1
290
     0
176
     1
 90
        5
176
     1
 40
0.0
176
     1
 90
        0
176
     1
290
     0
176
     1
290
     1
176
     1
290
     1
176
     1
290
     0
176
     1
290
     0
176
     1
290
     0
176
     1
290
     0
176
     1
290
     0
176
     1
290
     0
176
     1
 90
       50
176
     1
 40
0.0
176
     1
 40
1.0
176
     1
 90
        0
176
     1
 62
    18
420
        0
176
     1
 90
       50
176
     1
 90
        3
176
     1
 62
     5
420
      255
176
     1
290
     0
176
     1
 90
       50
176
     1
 90
       50
176
     1
 90
       50
176
     1
290
     0
176
     1
 90
       50
176
     1
 62
   256
176
     0
 40
1.0
176
     0
 90
        2
176
     1
  1
strokes_ogs.tif
176
     1
290
     0
176
     1
 40
1.0
176
     1
 40
1.0
176
     1
  0
VISUALSTYLE
  5
3A
102
{ACAD_REACTORS
330
29
102
}
330
29
100
AcDbVisualStyle
  2
Shades of Gray
 70
    23
177
     3
291
     0
 70
    58
 90
        2
176
     1
 90
        2
176
     1
 90
        3
176
     1
 90
        0
176
     1
 40
0.6
176
     1
 40
30.0
176
     1
 62
     7
420
 16777215
176
     1
 90
        2
176
     1
 90
        2
176
     1
 62
     7
176
     1
 62
     7
176
     1
 90
        1
176
     1
 90
        1
176
     1
 40
40.0
176
     1
 90
        8
176
     1
 62
     7
176
     1
 40
1.0
176
     1
 90
        1
176
     1
 90
        6
176
     1
 90
        2
176
     1
 62
     7
176
     1
 90
        3
176
     1
 90
        0
176
     1
 90
        0
176
     1
290
     0
176
     1
 90
        1
176
     1
 40
0.0
176
     1
 90
        0
176
     1
290
     0
176
     1
290
     1
176
     1
290
     1
176
     1
290
     0
176
     1
290
     0
176
     1
290
     0
176
     1
290
     0
176
     1
290
     0
176
     1
290
     0
176
     1
 90
       50
176
     1
 40
0.0
176
     1
 40
1.0
176
     1
 90
        0
176
     1
 62
    18
420
        0
176
     1
 90
       50
176
     1
 90
        3
176
     1
 62
     5
420
      255
176
     1
290
     0
176
     1
 90
       50
176
     1
 90
       50
176
     1
 90
       50
176
     1
290
     0
176
     1
 90
       50
176
     1
 62
   256
176
     0
 40
1.0
176
     0
 90
        2
176
     1
  1
strokes_ogs.tif
176
     1
290
     0
176
     1
 40
1.0
176
     1
 40
1.0
176
     1
  0
VISUALSTYLE
  5
3B
102
{ACAD_REACTORS
330
29
102
}
330
29
100
AcDbVisualStyle
  2
Sketchy
 70
    24
177
     3
291
     0
 70
    58
 90
        1
176
     1
 90
        2
176
     1
 90
        2
176
     1
 90
        0
176
     1
 40
0.6
176
     1
 40
30.0
176
     1
 62
     7
420
 16777215
176
     1
 90
        2
176
     1
 90
        2
176
     1
 62
     7
176
     1
 62
     7
176
     1
 90
        1
176
     1
 90
        1
176
     1
 40
40.0
176
     1
 90
       11
176
     1
 62
     7
176
     1
 40
1.0
176
     1
 90
        1
176
     1
 90
        6
176
     1
 90
        2
176
     1
 62
     7
176
     1
 90
        6
176
     1
 90
        0
176
     1
 90
        0
176
     1
290
     0
176
     1
 90
        1
176
     1
 40
0.0
176
     1
 90
        0
176
     1
290
     0
176
     1
290
     1
176
     1
290
     1
176
     1
290
     0
176
     1
290
     0
176
     1
290
     0
176
     1
290
     0
176
     1
290
     0
176
     1
290
     0
176
     1
 90
       50
176
     1
 40
0.0
176
     1
 40
1.0
176
     1
 90
        0
176
     1
 62
    18
420
        0
176
     1
 90
       50
176
     1
 90
        3
176
     1
 62
     5
420
      255
176
     1
290
     0
176
     1
 90
       50
176
     1
 90
       50
176
     1
 90
       50
176
     1
290
     0
176
     1
 90
       50
176
     1
 62
   256
176
     0
 40
1.0
176
     0
 90
        2
176
     1
  1
strokes_ogs.tif
176
     1
290
     0
176
     1
 40
1.0
176
     1
 40
1.0
176
     1
  0
VISUALSTYLE
  5
36
102
{ACAD_REACTORS
330
29
102
}
330
29
100
AcDbVisualStyle
  2
Thicken
 70
    13
177
     3
291
     1
 70
    58
 90
        2
176
     1
 90
        2
176
     1
 90
        0
176
     1
 90
        0
176
     1
 40
0.6
176
     1
 40
30.0
176
     1
 62
     7
420
 16777215
176
     1
 90
        1
176
     1
 90
        4
176
     1
 62
     7
176
     1
 62
   257
176
     1
 90
        1
176
     1
 90
        1
176
     1
 40
1.0
176
     1
 90
       12
176
     1
 62
     7
176
     1
 40
1.0
176
     1
 90
        1
176
     1
 90
        6
176
     1
 90
        2
176
     1
 62
     7
176
     1
 90
        5
176
     1
 90
        0
176
     1
 90
        0
176
     1
290
     0
176
     1
 90
        1
176
     1
 40
0.0
176
     1
 90
        0
176
     1
290
     0
176
     1
290
     1
176
     1
290
     1
176
     1
290
     0
176
     1
290
     0
176
     1
290
     0
176
     1
290
     0
176
     1
290
     0
176
     1
290
     0
176
     1
 90
       50
176
     1
 40
0.0
176
     1
 40
1.0
176
     1
 90
        0
176
     1
 62
    18
420
        0
176
     1
 90
       50
176
     1
 90
        3
176
     1
 62
     5
420
      255
176
     1
290
     0
176
     1
 90
       50
176
     1
 90
       50
176
     1
 90
       50
176
     1
290
     0
176
     1
 90
       50
176
     1
 62
   256
176
     0
 40
1.0
176
     0
 90
        2
176
     1
  1
strokes_ogs.tif
176
     1
290
     0
176
     1
 40
1.0
176
     1
 40
1.0
176
     1
  0
VISUALSTYLE
  5
30
102
{ACAD_REACTORS
330
29
102
}
330
29
100
AcDbVisualStyle
  2
Wireframe
 70
     5
177
     3
291
     0
 70
    58
 90
        0
176
     1
 90
        2
176
     1
 90
        0
176
     1
 90
        0
176
     1
 40
0.6
176
     1
 40
30.0
176
     1
 62
     7
420
 16777215
176
     1
 90
        1
176
     1
 90
        4
176
     1
 62
     7
176
     1
 62
   257
176
     1
 90
        1
176
     1
 90
        1
176
     1
 40
1.0
176
     1
 90
        0
176
     1
 62
   257
176
     1
 40
1.0
176
     1
 90
        1
176
     1
 90
        6
176
     1
 90
        2
176
     1
 62
     7
176
     1
 90
        3
176
     1
 90
        0
176
     1
 90
        0
176
     1
290
     0
176
     1
 90
        1
176
     1
 40
0.0
176
     1
 90
        0
176
     1
290
     0
176
     1
290
     1
176
     1
290
     1
176
     1
290
     0
176
     1
290
     0
176
     1
290
     0
176
     1
290
     0
176
     1
290
     0
176
     1
290
     0
176
     1
 90
       50
176
     1
 40
0.0
176
     1
 40
1.0
176
     1
 90
        0
176
     1
 62
    18
420
        0
176
     1
 90
       50
176
     1
 90
        3
176
     1
 62
     5
420
      255
176
     1
290
     0
176
     1
 90
       50
176
     1
 90
       50
176
     1
 90
       50
176
     1
290
     0
176
     1
 90
       50
176
     1
 62
   256
176
     0
 40
1.0
176
     0
 90
        2
176
     1
  1
strokes_ogs.tif
176
     1
290
     0
176
     1
 40
1.0
176
     1
 40
1.0
176
     1
  0
VISUALSTYLE
  5
3C
102
{ACAD_REACTORS
330
29
102
}
330
29
100
AcDbVisualStyle
  2
X-Ray
 70
    25
177
     3
291
     0
 70
    58
 90
        2
176
     1
 90
        2
176
     1
 90
        1
176
     1
 90
        1
176
     1
 40
0.5
176
     1
 40
30.0
176
     1
 62
     7
420
 16777215
176
     1
 90
        1
176
     1
 90
        0
176
     1
 62
     7
176
     1
 62
   257
176
     1
 90
        1
176
     1
 90
        1
176
     1
 40
1.0
176
     1
 90
        8
176
     1
 62
     7
176
     1
 40
1.0
176
     1
 90
        1
176
     1
 90
        6
176
     1
 90
        2
176
     1
 62
     7
176
     1
 90
        3
176
     1
 90
        0
176
     1
 90
        0
176
     1
290
     0
176
     1
 90
       13
176
     1
 40
0.0
176
     1
 90
        0
176
     1
290
     0
176
     1
290
     1
176
     1
290
     1
176
     1
290
     0
176
     1
290
     0
176
     1
290
     0
176
     1
290
     0
176
     1
290
     0
176
     1
290
     0
176
     1
 90
       50
176
     1
 40
0.0
176
     1
 40
1.0
176
     1
 90
        0
176
     1
 62
    18
420
        0
176
     1
 90
       50
176
     1
 90
        3
176
     1
 62
     5
420
      255
176
     1
290
     0
176
     1
 90
       50
176
     1
 90
       50
176
     1
 90
       50
176
     1
290
     0
176
     1
 90
       50
176
     1
 62
   256
176
     0
 40
1.0
176
     0
 90
        2
176
     1
  1
strokes_ogs.tif
176
     1
290
     0
176
     1
 40
1.0
176
     1
 40
1.0
176
     1
  0
DICTIONARYVAR
  5
2AE
102
{ACAD_REACTORS
330
2A9
102
}
330
2A9
100
DictionaryVariables
280
     0
  1
1:1
  0
DICTIONARYVAR
  5
2AB
102
{ACAD_REACTORS
330
2A9
102
}
330
2A9
100
DictionaryVariables
280
     0
  1
STANDARD
  0
DICTIONARYVAR
  5
2AA
102
{ACAD_REACTORS
330
2A9
102
}
330
2A9
100
DictionaryVariables
280
     0
  1
STANDARD
  0
DICTIONARYVAR
  5
2AC
102
{ACAD_REACTORS
330
2A9
102
}
330
2A9
100
DictionaryVariables
280
     0
  1
Imperial24
  0
DICTIONARYVAR
  5
2AD
102
{ACAD_REACTORS
330
2A9
102
}
330
2A9
100
DictionaryVariables
280
     0
  1
Imperial24
  0
DICTIONARY
  5
1A
330
19
100
AcDbDictionary
280
     1
281
     1
  3
BUMPTILE
360
1C
  3
DIFFUSETILE
360
1B
  3
OPACITYTILE
360
1F
  3
REFLECTIONTILE
360
1E
  3
REFRACTIONTILE
360
20
  3
SPECULARTILE
360
1D
  0
DICTIONARY
  5
12
330
11
100
AcDbDictionary
280
     1
281
     1
  3
BUMPTILE
360
14
  3
DIFFUSETILE
360
13
  3
OPACITYTILE
360
17
  3
REFLECTIONTILE
360
16
  3
REFRACTIONTILE
360
18
  3
SPECULARTILE
360
15
  0
DICTIONARY
  5
22
330
21
100
AcDbDictionary
280
     1
281
     1
  3
BUMPTILE
360
24
  3
DIFFUSETILE
360
23
  3
OPACITYTILE
360
27
  3
REFLECTIONTILE
360
26
  3
REFRACTIONTILE
360
28
  3
SPECULARTILE
360
25
  0
DICTIONARY
  5
2AF
330
65
100
AcDbDictionary
280
     1
281
     1
  3
ACAD_ROUNDTRIP_2008_TABLESTYLE_CELLSTYLEMAP
360
2B0
  0
XRECORD
  5
1C
102
{ACAD_REACTORS
330
1A
102
}
330
1A
100
AcDbXrecord
280
     1
270
     1
271
     1
  0
XRECORD
  5
1B
102
{ACAD_REACTORS
330
1A
102
}
330
1A
100
AcDbXrecord
280
     1
270
     1
271
     1
  0
XRECORD
  5
1F
102
{ACAD_REACTORS
330
1A
102
}
330
1A
100
AcDbXrecord
280
     1
270
     1
271
     1
  0
XRECORD
  5
1E
102
{ACAD_REACTORS
330
1A
102
}
330
1A
100
AcDbXrecord
280
     1
270
     1
271
     1
  0
XRECORD
  5
20
102
{ACAD_REACTORS
330
1A
102
}
330
1A
100
AcDbXrecord
280
     1
270
     1
271
     1
  0
XRECORD
  5
1D
102
{ACAD_REACTORS
330
1A
102
}
330
1A
100
AcDbXrecord
280
     1
270
     1
271
     1
  0
XRECORD
  5
14
102
{ACAD_REACTORS
330
12
102
}
330
12
100
AcDbXrecord
280
     1
270
     1
271
     1
  0
XRECORD
  5
13
102
{ACAD_REACTORS
330
12
102
}
330
12
100
AcDbXrecord
280
     1
270
     1
271
     1
  0
XRECORD
  5
17
102
{ACAD_REACTORS
330
12
102
}
330
12
100
AcDbXrecord
280
     1
270
     1
271
     1
  0
XRECORD
  5
16
102
{ACAD_REACTORS
330
12
102
}
330
12
100
AcDbXrecord
280
     1
270
     1
271
     1
  0
XRECORD
  5
18
102
{ACAD_REACTORS
330
12
102
}
330
12
100
AcDbXrecord
280
     1
270
     1
271
     1
  0
XRECORD
  5
15
102
{ACAD_REACTORS
330
12
102
}
330
12
100
AcDbXrecord
280
     1
270
     1
271
     1
  0
XRECORD
  5
24
102
{ACAD_REACTORS
330
22
102
}
330
22
100
AcDbXrecord
280
     1
270
     1
271
     1
  0
XRECORD
  5
23
102
{ACAD_REACTORS
330
22
102
}
330
22
100
AcDbXrecord
280
     1
270
     1
271
     1
  0
XRECORD
  5
27
102
{ACAD_REACTORS
330
22
102
}
330
22
100
AcDbXrecord
280
     1
270
     1
271
     1
  0
XRECORD
  5
26
102
{ACAD_REACTORS
330
22
102
}
330
22
100
AcDbXrecord
280
     1
270
     1
271
     1
  0
XRECORD
  5
28
102
{ACAD_REACTORS
330
22
102
}
330
22
100
AcDbXrecord
280
     1
270
     1
271
     1
  0
XRECORD
  5
25
102
{ACAD_REACTORS
330
22
102
}
330
22
100
AcDbXrecord
280
     1
270
     1
271
     1
  0
CELLSTYLEMAP
  5
2B0
102
{ACAD_REACTORS
330
2AF
102
}
330
2AF
100
AcDbCellStyleMap
 90
        3
300
CELLSTYLE
  1
TABLEFORMAT_BEGIN
 90
        5
170
     1
 91
        0
 92
    32768
 62
   257
 93
        1
300
CONTENTFORMAT
  1
CONTENTFORMAT_BEGIN
 90
        0
 91
        0
 92
      512
 93
        0
300

 40
0.0
140
1.0
 94
        5
 62
     0
340
55
144
0.25
309
CONTENTFORMAT_END
171
     0
 94
        0
309
TABLEFORMAT_END
  1
CELLSTYLE_BEGIN
 90
        1
 91
        1
300
_TITLE
309
CELLSTYLE_END
300
CELLSTYLE
  1
TABLEFORMAT_BEGIN
 90
        5
170
     1
 91
        0
 92
        0
 62
   257
 93
        1
300
CONTENTFORMAT
  1
CONTENTFORMAT_BEGIN
 90
        0
 91
        0
 92
      512
 93
        0
300

 40
0.0
140
1.0
 94
        5
 62
     0
340
55
144
0.18
309
CONTENTFORMAT_END
171
     0
 94
        0
309
TABLEFORMAT_END
  1
CELLSTYLE_BEGIN
 90
        2
 91
        1
300
_HEADER
309
CELLSTYLE_END
300
CELLSTYLE
  1
TABLEFORMAT_BEGIN
 90
        5
170
     1
 91
        0
 92
        0
 62
   257
 93
        1
300
CONTENTFORMAT
  1
CONTENTFORMAT_BEGIN
 90
        0
 91
        0
 92
      512
 93
        0
300

 40
0.0
140
1.0
 94
        2
 62
     0
340
55
144
0.18
309
CONTENTFORMAT_END
171
     0
 94
        0
309
TABLEFORMAT_END
  1
CELLSTYLE_BEGIN
 90
        3
 91
        2
300
_DATA
309
CELLSTYLE_END
  0
ENDSEC
  0
EOF
